<svg width="517" height="385" viewBox="0 0 517 385" fill="none" xmlns="http://www.w3.org/2000/svg">
<path d="M516.695 338.328H0V338.586H516.695V338.328Z" fill="#EBEBEB"/>
<path d="M464.921 354.961H430.695V355.219H464.921V354.961Z" fill="#EBEBEB"/>
<path d="M342.281 357.773H333.301V358.032H342.281V357.773Z" fill="#EBEBEB"/>
<path d="M429.663 345.367H409.832V345.626H429.663V345.367Z" fill="#EBEBEB"/>
<path d="M98.8431 347.109H54.2109V347.368H98.8431V347.109Z" fill="#EBEBEB"/>
<path d="M114.592 347.109H108.051V347.368H114.592V347.109Z" fill="#EBEBEB"/>
<path d="M232.667 351.461H135.859V351.719H232.667V351.461Z" fill="#EBEBEB"/>
<path d="M244.912 292.243H45.3747C43.8115 292.24 42.3133 291.617 41.209 290.511C40.1046 289.405 39.4844 287.905 39.4844 286.342V5.84899C39.498 4.2948 40.1242 2.80873 41.2271 1.71359C42.33 0.618441 43.8205 0.00266241 45.3747 0H244.912C246.477 0 247.978 0.621675 249.085 1.72826C250.191 2.83485 250.813 4.33571 250.813 5.90066V286.342C250.813 287.907 250.191 289.408 249.085 290.515C247.978 291.621 246.477 292.243 244.912 292.243ZM45.3747 0.206679C43.8801 0.209416 42.4476 0.805079 41.3917 1.86292C40.3358 2.92076 39.7427 4.35434 39.7427 5.84899V286.342C39.7427 287.837 40.3358 289.27 41.3917 290.328C42.4476 291.386 43.8801 291.982 45.3747 291.984H244.912C246.408 291.982 247.841 291.386 248.899 290.329C249.956 289.271 250.552 287.838 250.554 286.342V5.84899C250.552 4.35339 249.956 2.91984 248.899 1.86229C247.841 0.804743 246.408 0.209411 244.912 0.206679H45.3747Z" fill="#EBEBEB"/>
<path d="M468.444 292.243H268.897C267.333 292.24 265.833 291.618 264.727 290.512C263.621 289.406 262.999 287.906 262.996 286.342V5.84899C263.012 4.29385 263.641 2.8078 264.745 1.71294C265.85 0.61808 267.342 0.00263338 268.897 0H468.444C469.997 0.00537828 471.485 0.622359 472.585 1.71721C473.686 2.81207 474.311 4.29658 474.324 5.84899V286.342C474.324 287.904 473.706 289.401 472.604 290.507C471.501 291.613 470.006 292.237 468.444 292.243ZM268.897 0.206679C267.401 0.209411 265.968 0.804743 264.91 1.86229C263.853 2.91984 263.257 4.35339 263.254 5.84899V286.342C263.257 287.838 263.853 289.271 264.91 290.329C265.968 291.386 267.401 291.982 268.897 291.984H468.444C469.94 291.982 471.374 291.386 472.431 290.329C473.489 289.271 474.084 287.838 474.087 286.342V5.84899C474.084 4.35339 473.489 2.91984 472.431 1.86229C471.374 0.804743 469.94 0.209411 468.444 0.206679H268.897Z" fill="#EBEBEB"/>
<path d="M459.363 338.333V90.4844H377.756V338.333H459.363Z" fill="#F0F0F0"/>
<path d="M454.879 170.374V97.7266H382.232V170.374H454.879Z" fill="#555151"/>
<path d="M454.879 249.546V176.898H382.232V249.546H454.879Z" fill="#555151"/>
<path d="M454.879 328.71V256.062H382.232V328.71H454.879Z" fill="#555151"/>
<path d="M402.477 96.7656H434.636C434.636 97.7549 434.441 98.7345 434.062 99.6485C433.684 100.563 433.129 101.393 432.429 102.093C431.73 102.792 430.899 103.347 429.985 103.726C429.071 104.104 428.092 104.299 427.102 104.299H410.01C408.012 104.299 406.096 103.505 404.683 102.093C403.27 100.68 402.477 98.7636 402.477 96.7656Z" fill="#E6E6E6"/>
<path d="M402.477 175.938H434.636C434.636 176.927 434.441 177.906 434.062 178.82C433.684 179.734 433.129 180.565 432.429 181.264C431.73 181.964 430.899 182.519 429.985 182.897C429.071 183.276 428.092 183.471 427.102 183.471H410.01C408.012 183.471 406.096 182.677 404.683 181.264C403.27 179.852 402.477 177.935 402.477 175.938Z" fill="#E6E6E6"/>
<path d="M402.477 255.102H434.636C434.636 256.091 434.441 257.07 434.062 257.984C433.684 258.898 433.129 259.729 432.429 260.429C431.73 261.128 430.899 261.683 429.985 262.062C429.071 262.44 428.092 262.635 427.102 262.635H410.01C408.012 262.635 406.096 261.841 404.683 260.429C403.27 259.016 402.477 257.1 402.477 255.102Z" fill="#E6E6E6"/>
<path d="M377.746 338.325V90.4766H336.989V338.325H377.746Z" fill="#555151"/>
<path d="M78.25 177.672V179.914H79.6864L80.8645 197.492H98.3288L99.5068 179.914H100.943V177.672H78.25Z" fill="#E6E6E6"/>
<path d="M83.9925 134.044C85.4289 123.565 99.5554 120.609 117.495 120.196C134.556 119.824 140.023 113.789 140.023 113.789C140.023 113.789 139.971 138.239 115.377 147.095C92.0323 155.497 82.5561 144.532 83.9925 134.044Z" fill="#E6E6E6"/>
<path d="M92.7061 157.78C92.4064 153.47 85.5343 145.555 68.9898 149.161C57.0334 151.755 52.5898 145.555 52.5898 145.555C52.5898 145.555 53.6956 163.06 71.6766 168.289C88.7585 173.312 93.2331 165.344 92.7061 157.78Z" fill="#E6E6E6"/>
<path d="M88.9337 184.271C88.8413 184.27 88.7501 184.249 88.6664 184.21C88.5826 184.17 88.5082 184.114 88.448 184.044C87.2493 182.628 88.231 179.228 89.5848 174.536C91.3312 168.501 93.5013 160.999 91.6515 155.553C90.637 152.68 89.4499 149.871 88.0967 147.141C85.4925 141.654 83.2501 136.911 85.1205 131.961C85.1503 131.882 85.1954 131.81 85.2531 131.749C85.3108 131.687 85.38 131.638 85.4568 131.603C85.5335 131.569 85.6164 131.55 85.7005 131.547C85.7847 131.545 85.8685 131.559 85.9472 131.589C86.0256 131.617 86.0975 131.661 86.1587 131.718C86.2199 131.775 86.2692 131.843 86.3038 131.919C86.3384 131.995 86.3576 132.077 86.3603 132.161C86.3629 132.244 86.349 132.327 86.3192 132.405C84.6348 136.859 86.6706 141.158 89.2437 146.593C90.6168 149.372 91.8245 152.229 92.8606 155.15C94.8241 160.968 92.5919 168.687 90.7938 174.888C89.7604 178.546 88.6444 182.318 89.3988 183.217C89.5076 183.346 89.5611 183.513 89.5476 183.681C89.534 183.85 89.4546 184.006 89.3264 184.116C89.2177 184.212 89.0787 184.267 88.9337 184.271Z" fill="#E6E6E6"/>
<path d="M360.117 197.492H287.707V338.333H360.117V197.492Z" fill="#555151"/>
<path d="M360.118 197.492H354.145V338.333H360.118V197.492Z" fill="#F0F0F0"/>
<path d="M126.568 261.109H293.285V201.514L126.568 201.514V261.109Z" fill="#E6E6E6"/>
<path d="M196.099 338.303H124.619C124.345 338.303 124.082 338.194 123.889 338C123.695 337.807 123.586 337.544 123.586 337.27C123.586 336.996 123.695 336.733 123.889 336.539C124.082 336.345 124.345 336.236 124.619 336.236H196.099C206.433 336.236 207.807 333.229 207.807 321.252V170.377C207.807 170.103 207.916 169.84 208.11 169.646C208.304 169.453 208.567 169.344 208.841 169.344C209.115 169.344 209.378 169.453 209.571 169.646C209.765 169.84 209.874 170.103 209.874 170.377V321.252C209.874 334.046 207.88 338.303 196.099 338.303Z" fill="#E6E6E6"/>
<path d="M134.611 208.055L360.117 208.055V197.493L134.611 197.493V208.055Z" fill="#F0F0F0"/>
<path d="M134.609 197.492H62.1992V338.333H134.609V197.492Z" fill="#555151"/>
<path d="M134.61 197.492H128.637V338.333H134.61V197.492Z" fill="#F0F0F0"/>
<path d="M216.103 197.488H200.488L204.281 167.086H219.906L216.103 197.488Z" fill="#F0F0F0"/>
<path d="M219.562 197.488H203.938L207.74 167.086H223.355L219.562 197.488Z" fill="#555151"/>
<path d="M221.465 182.287H205.84L207.741 167.086H223.356L221.465 182.287Z" fill="#F0F0F0"/>
<path d="M164.061 178.651H274.562C274.779 178.652 274.994 178.605 275.193 178.516C275.391 178.426 275.568 178.296 275.712 178.132C275.856 177.969 275.963 177.777 276.027 177.569C276.09 177.361 276.109 177.141 276.081 176.925L267.566 108.804C267.522 108.433 267.343 108.09 267.063 107.842C266.783 107.594 266.421 107.458 266.047 107.461H155.546C155.329 107.461 155.115 107.507 154.918 107.596C154.72 107.684 154.544 107.814 154.4 107.976C154.256 108.139 154.149 108.329 154.085 108.536C154.02 108.743 154.001 108.961 154.027 109.176L162.542 177.308C162.588 177.679 162.767 178.02 163.047 178.267C163.327 178.515 163.688 178.651 164.061 178.651Z" fill="#F0F0F0"/>
<path d="M165.706 178.649H276.206C276.424 178.65 276.639 178.604 276.837 178.514C277.036 178.425 277.213 178.294 277.357 178.13C277.5 177.967 277.608 177.775 277.671 177.567C277.735 177.359 277.753 177.139 277.725 176.924L269.21 108.802C269.162 108.426 268.975 108.082 268.687 107.835C268.398 107.589 268.029 107.459 267.65 107.469H157.191C156.974 107.469 156.76 107.515 156.562 107.604C156.365 107.693 156.188 107.823 156.045 107.985C155.901 108.147 155.793 108.338 155.729 108.545C155.665 108.752 155.645 108.97 155.672 109.185L164.187 177.316C164.234 177.685 164.415 178.024 164.695 178.269C164.974 178.515 165.334 178.65 165.706 178.649Z" fill="#555151"/>
<path d="M274.159 174.882L266.191 111.122C266.176 111.02 266.126 110.926 266.048 110.858C265.97 110.79 265.871 110.752 265.767 110.75H159.659C159.598 110.748 159.538 110.759 159.482 110.783C159.426 110.807 159.376 110.843 159.335 110.888C159.295 110.934 159.265 110.987 159.248 111.046C159.23 111.104 159.226 111.166 159.235 111.226L167.203 174.996C167.217 175.098 167.268 175.192 167.346 175.26C167.424 175.329 167.523 175.367 167.626 175.368H273.735C273.796 175.367 273.855 175.353 273.911 175.328C273.966 175.302 274.015 175.265 274.055 175.22C274.095 175.174 274.125 175.12 274.142 175.062C274.16 175.004 274.166 174.943 274.159 174.882Z" fill="#E6E6E6"/>
<path d="M262.832 175.368L234.786 110.75H210.191L238.248 175.368H262.832Z" fill="#EBEBEB"/>
<path d="M233.504 175.368L205.458 110.75H196.602L224.648 175.368H233.504Z" fill="#EBEBEB"/>
<path d="M233.773 197.492H208.331V197.172C208.331 196.5 208.598 195.856 209.073 195.382C209.548 194.907 210.192 194.64 210.863 194.64H231.242C231.913 194.64 232.557 194.907 233.032 195.382C233.507 195.856 233.773 196.5 233.773 197.172V197.492Z" fill="#555151"/>
<path d="M211.277 197.492H194.02V197.172C194.02 196.5 194.286 195.856 194.761 195.382C195.236 194.907 195.88 194.64 196.552 194.64H208.746C209.417 194.64 210.061 194.907 210.536 195.382C211.011 195.856 211.277 196.5 211.277 197.172V197.492Z" fill="#F0F0F0"/>
<path d="M261.892 197.494H183.23L181.102 191.18H251.661L261.892 197.494Z" fill="#555151"/>
<path d="M191.89 197.494H178.89L177.133 191.18H190.123L191.89 197.494Z" fill="#F0F0F0"/>
<path d="M281.796 192.211H293.629C294.322 192.211 295.009 192.348 295.649 192.613C296.29 192.878 296.872 193.267 297.363 193.758C297.853 194.248 298.242 194.83 298.507 195.471C298.773 196.111 298.909 196.798 298.909 197.492H276.516C276.516 196.798 276.652 196.111 276.918 195.471C277.183 194.83 277.572 194.248 278.062 193.758C278.553 193.267 279.135 192.878 279.775 192.613C280.416 192.348 281.103 192.211 281.796 192.211Z" fill="#F0F0F0"/>
<path d="M204.686 29.5938H89.0391V87.6186H204.686V29.5938Z" fill="#E6E6E6"/>
<path d="M210.408 29.5938H90.5039V87.6186H210.408V29.5938Z" fill="#F0F0F0"/>
<path d="M205.832 83.0434V34.1641L95.0732 34.1641V83.0434H205.832Z" fill="white"/>
<path d="M99.4648 58.6048C99.4648 58.1087 99.6619 57.633 100.013 57.2822C100.363 56.9314 100.839 56.7344 101.335 56.7344H199.58C200.076 56.7344 200.552 56.9314 200.902 57.2822C201.253 57.633 201.45 58.1087 201.45 58.6048C201.45 58.8504 201.402 59.0937 201.308 59.3206C201.214 59.5475 201.076 59.7537 200.902 59.9274C200.729 60.1011 200.522 60.2389 200.296 60.3329C200.069 60.4269 199.825 60.4752 199.58 60.4752H101.335C101.09 60.4752 100.846 60.4269 100.619 60.3329C100.393 60.2389 100.186 60.1011 100.013 59.9274C99.839 59.7537 99.7012 59.5475 99.6072 59.3206C99.5132 59.0937 99.4648 58.8504 99.4648 58.6048Z" fill="#555151"/>
<path d="M258.348 384.998C369.007 384.998 458.713 379.76 458.713 373.3C458.713 366.839 369.007 361.602 258.348 361.602C147.69 361.602 57.9844 366.839 57.9844 373.3C57.9844 379.76 147.69 384.998 258.348 384.998Z" fill="#555151"/>
<path d="M96.8389 201.508L340.068 201.508C346.917 201.508 352.469 195.956 352.469 189.107V36.744C352.469 29.8953 346.917 24.3433 340.068 24.3433L96.8389 24.3433C89.9902 24.3433 84.4382 29.8953 84.4382 36.744V189.107C84.4382 195.956 89.9902 201.508 96.8389 201.508Z" fill="#263238"/>
<path d="M154.772 363.586L213.54 304.848L214.987 303.411V129.171C214.987 128.552 215.233 127.958 215.671 127.52C216.109 127.082 216.703 126.836 217.323 126.836H219.596C220.215 126.836 220.81 127.082 221.248 127.52C221.686 127.958 221.932 128.552 221.932 129.171V303.38L223.368 304.817L282.116 363.586C282.303 363.771 282.451 363.992 282.553 364.235C282.654 364.478 282.706 364.738 282.706 365.001C282.706 365.265 282.654 365.525 282.553 365.768C282.451 366.011 282.303 366.232 282.116 366.417L280.049 368.484C279.674 368.856 279.167 369.064 278.639 369.064C278.111 369.064 277.604 368.856 277.228 368.484L221.932 313.187V366.748C221.932 367.367 221.686 367.961 221.248 368.399C220.81 368.837 220.215 369.083 219.596 369.083H217.323C217.012 369.089 216.704 369.032 216.416 368.918C216.128 368.803 215.866 368.632 215.644 368.414C215.423 368.197 215.247 367.937 215.127 367.651C215.008 367.365 214.946 367.058 214.946 366.748V313.208L159.69 368.505C159.307 368.865 158.801 369.066 158.275 369.066C157.749 369.066 157.242 368.865 156.859 368.505L154.792 366.438C154.423 366.056 154.215 365.547 154.211 365.016C154.207 364.485 154.408 363.973 154.772 363.586Z" fill="#263238"/>
<path d="M321.996 20.7266H314.152V21.76H321.996V20.7266Z" fill="url(#paint0_linear_156_459)"/>
<path d="M306.917 20.7266H290.559V21.76H306.917V20.7266Z" fill="url(#paint1_linear_156_459)"/>
<path d="M99.3701 201.508L342.599 201.508C349.448 201.508 355 195.956 355 189.107V36.744C355 29.8953 349.448 24.3433 342.599 24.3433L99.3701 24.3433C92.5214 24.3433 86.9695 29.8953 86.9695 36.744V189.107C86.9695 195.956 92.5214 201.508 99.3701 201.508Z" fill="url(#paint2_linear_156_459)"/>
<path d="M347.77 189.1V36.7373C347.77 33.8836 345.456 31.5703 342.603 31.5703L99.3734 31.5703C96.5198 31.5703 94.2065 33.8836 94.2065 36.7373V189.1C94.2065 191.954 96.5198 194.267 99.3734 194.267L342.603 194.267C345.456 194.267 347.77 191.954 347.77 189.1Z" fill="#FAFAFA"/>
<path d="M211.656 305.703H225.255C227.065 305.703 228.531 304.236 228.531 302.427V293.137C228.531 291.328 227.065 289.861 225.255 289.861H211.656C209.847 289.861 208.38 291.328 208.38 293.137V302.427C208.38 304.236 209.847 305.703 211.656 305.703Z" fill="url(#paint3_linear_156_459)"/>
<path opacity="0.1" d="M188.581 167.599C197.778 167.599 206.769 164.872 214.416 159.762C222.063 154.652 228.024 147.389 231.543 138.892C235.063 130.395 235.984 121.045 234.19 112.024C232.395 103.004 227.966 94.7176 221.463 88.2141C214.959 81.7106 206.674 77.2816 197.653 75.4873C188.632 73.693 179.282 74.6139 170.785 78.1336C162.288 81.6532 155.025 87.6136 149.915 95.2609C144.805 102.908 142.078 111.899 142.078 121.096C142.078 133.43 146.977 145.258 155.698 153.979C164.419 162.7 176.247 167.599 188.581 167.599ZM188.581 75.5445C197.594 75.5445 206.405 78.2173 213.899 83.2249C221.394 88.2324 227.235 95.3499 230.684 103.677C234.134 112.004 235.036 121.168 233.278 130.008C231.519 138.848 227.179 146.968 220.805 153.342C214.432 159.715 206.312 164.055 197.471 165.814C188.631 167.572 179.468 166.67 171.141 163.221C162.814 159.771 155.696 153.93 150.689 146.436C145.681 138.941 143.008 130.13 143.008 121.117C143.022 109.035 147.828 97.451 156.371 88.9075C164.915 80.3639 176.498 75.5582 188.581 75.5445Z" fill="black"/>
<path d="M133.1 51.4766H174.033C175.491 51.4766 176.889 52.0558 177.92 53.0868C178.951 54.1178 179.53 55.5161 179.53 56.9742V132.618C179.53 134.076 178.951 135.475 177.92 136.506C176.889 137.537 175.491 138.116 174.033 138.116H121.65C120.192 138.116 118.794 137.537 117.763 136.506C116.732 135.475 116.152 134.076 116.152 132.618V68.4242L133.1 51.4766Z" fill="url(#paint4_linear_156_459)"/>
<path d="M135.509 130.558H169.611C170.241 130.542 170.839 130.279 171.277 129.827C171.716 129.375 171.96 128.769 171.957 128.14C171.957 127.504 171.704 126.894 171.255 126.444C170.805 125.995 170.195 125.742 169.56 125.742H135.458C134.83 125.756 134.232 126.014 133.792 126.462C133.352 126.91 133.104 127.512 133.102 128.14C133.102 128.779 133.355 129.393 133.806 129.846C134.257 130.299 134.87 130.555 135.509 130.558Z" fill="white"/>
<path d="M151.546 63.8496H169.558C170.194 63.8496 170.804 63.597 171.253 63.1474C171.703 62.6978 171.955 62.088 171.955 61.4522C171.955 60.8163 171.703 60.2065 171.253 59.7569C170.804 59.3073 170.194 59.0547 169.558 59.0547H151.546C150.91 59.0547 150.3 59.3073 149.851 59.7569C149.401 60.2065 149.148 60.8163 149.148 61.4522C149.148 62.088 149.401 62.6978 149.851 63.1474C150.3 63.597 150.91 63.8496 151.546 63.8496Z" fill="white"/>
<path d="M139.8 73.3652H169.561C170.197 73.3652 170.807 73.1127 171.257 72.663C171.706 72.2134 171.959 71.6036 171.959 70.9678C171.959 70.3319 171.706 69.7221 171.257 69.2725C170.807 68.8229 170.197 68.5703 169.561 68.5703H139.8C139.164 68.5703 138.554 68.8229 138.105 69.2725C137.655 69.7221 137.402 70.3319 137.402 70.9678C137.402 71.6036 137.655 72.2134 138.105 72.663C138.554 73.1127 139.164 73.3652 139.8 73.3652Z" fill="white"/>
<path d="M126.123 82.9043H169.525C170.161 82.9043 170.771 82.6517 171.22 82.2021C171.67 81.7525 171.923 81.1427 171.923 80.5068C171.923 79.871 171.67 79.2612 171.22 78.8116C170.771 78.362 170.161 78.1094 169.525 78.1094H126.123C125.486 78.1094 124.875 78.3616 124.424 78.811C123.972 79.2603 123.718 79.8701 123.715 80.5068C123.718 81.1436 123.972 81.7534 124.424 82.2027C124.875 82.6521 125.486 82.9043 126.123 82.9043Z" fill="white"/>
<path d="M126.123 92.4356H151.368C152.005 92.4356 152.616 92.1833 153.067 91.734C153.519 91.2847 153.773 90.6749 153.776 90.0381C153.773 89.4013 153.519 88.7915 153.067 88.3422C152.616 87.8929 152.005 87.6406 151.368 87.6406H126.123C125.486 87.6406 124.875 87.8929 124.424 88.3422C123.972 88.7915 123.718 89.4013 123.715 90.0381C123.718 90.6749 123.972 91.2847 124.424 91.734C124.875 92.1833 125.486 92.4356 126.123 92.4356Z" fill="white"/>
<path d="M162.956 92.4356H169.559C170.195 92.4356 170.805 92.183 171.255 91.7334C171.704 91.2838 171.957 90.6739 171.957 90.0381C171.957 89.4023 171.704 88.7924 171.255 88.3428C170.805 87.8932 170.195 87.6406 169.559 87.6406H162.956C162.32 87.6406 161.71 87.8932 161.261 88.3428C160.811 88.7924 160.559 89.4023 160.559 90.0381C160.559 90.6739 160.811 91.2838 161.261 91.7334C161.71 92.183 162.32 92.4356 162.956 92.4356Z" fill="white"/>
<path d="M126.123 101.959H169.525C170.161 101.959 170.771 101.706 171.22 101.257C171.67 100.807 171.923 100.197 171.923 99.5615C171.923 98.9257 171.67 98.3159 171.22 97.8663C170.771 97.4167 170.161 97.1641 169.525 97.1641H126.123C125.486 97.1641 124.875 97.4163 124.424 97.8656C123.972 98.315 123.718 98.9247 123.715 99.5615C123.718 100.198 123.972 100.808 124.424 101.257C124.875 101.707 125.486 101.959 126.123 101.959Z" fill="white"/>
<path d="M142.888 111.49H169.56C170.196 111.49 170.806 111.238 171.255 110.788C171.705 110.338 171.958 109.729 171.958 109.093C171.958 108.457 171.705 107.847 171.255 107.398C170.806 106.948 170.196 106.695 169.56 106.695H142.888C142.251 106.695 141.641 106.948 141.189 107.397C140.738 107.846 140.483 108.456 140.48 109.093C140.483 109.73 140.738 110.339 141.189 110.789C141.641 111.238 142.251 111.49 142.888 111.49Z" fill="white"/>
<path d="M126.123 111.49H133.243C133.879 111.49 134.488 111.238 134.938 110.788C135.388 110.338 135.64 109.729 135.64 109.093C135.64 108.457 135.388 107.847 134.938 107.398C134.488 106.948 133.879 106.695 133.243 106.695H126.123C125.486 106.695 124.875 106.948 124.424 107.397C123.972 107.846 123.718 108.456 123.715 109.093C123.718 109.73 123.972 110.339 124.424 110.789C124.875 111.238 125.486 111.49 126.123 111.49Z" fill="white"/>
<path d="M126.123 121.021H169.525C170.161 121.021 170.771 120.769 171.22 120.319C171.67 119.87 171.923 119.26 171.923 118.624C171.923 117.988 171.67 117.378 171.22 116.929C170.771 116.479 170.161 116.227 169.525 116.227H126.123C125.486 116.227 124.875 116.479 124.424 116.928C123.972 117.377 123.718 117.987 123.715 118.624C123.718 119.261 123.972 119.871 124.424 120.32C124.875 120.769 125.486 121.022 126.123 121.021Z" fill="white"/>
<path opacity="0.2" d="M133.1 51.4766V62.9265C133.1 64.3846 132.521 65.7829 131.49 66.814C130.459 67.845 129.06 68.4242 127.602 68.4242H116.152L133.1 51.4766Z" fill="black"/>
<path d="M270.406 58.4158V42.0469C256.584 42.0325 243.145 46.5834 232.176 54.9926C221.207 63.4018 213.323 75.1983 209.748 88.5494C206.173 101.901 207.108 116.059 212.407 128.824C217.706 141.589 227.073 152.246 239.053 159.14L247.237 144.962C238.395 139.863 231.483 131.987 227.574 122.558C223.665 113.129 222.977 102.673 225.618 92.8127C228.258 82.9528 234.079 74.2399 242.177 68.0262C250.276 61.8124 260.198 58.4451 270.406 58.4468V58.4158Z" fill="#263238"/>
<path opacity="0.2" d="M333.133 104.784C333.13 88.1477 326.521 72.1934 314.758 60.4288C302.996 48.6642 287.043 42.0524 270.406 42.0469V58.4158C282.703 58.4185 294.495 63.3046 303.191 71.9998C311.886 80.6949 316.772 92.4872 316.774 104.784H333.133Z" fill="black"/>
<path d="M333.135 104.781H316.776C316.776 112.919 314.634 120.913 310.565 127.96C306.497 135.008 300.644 140.86 293.597 144.928C286.55 148.997 278.556 151.139 270.418 151.139C262.281 151.139 254.286 148.997 247.239 144.928L239.055 159.138C248.589 164.63 259.401 167.518 270.404 167.512C281.408 167.505 292.216 164.604 301.744 159.1C311.272 153.596 319.184 145.682 324.687 136.153C330.189 126.624 333.088 115.816 333.093 104.812L333.135 104.781Z" fill="url(#paint5_linear_156_459)"/>
<path d="M182.145 149.805L201.975 124.188L221.806 149.805H212.475V182.977H191.476V149.805H182.145Z" fill="url(#paint6_linear_156_459)"/>
<defs>
<linearGradient id="paint0_linear_156_459" x1="318.074" y1="20.7266" x2="318.074" y2="21.76" gradientUnits="userSpaceOnUse">
<stop stop-color="#60BCB4"/>
<stop offset="1" stop-color="#3A73B7"/>
</linearGradient>
<linearGradient id="paint1_linear_156_459" x1="298.738" y1="20.7266" x2="298.738" y2="21.76" gradientUnits="userSpaceOnUse">
<stop stop-color="#60BCB4"/>
<stop offset="1" stop-color="#3A73B7"/>
</linearGradient>
<linearGradient id="paint2_linear_156_459" x1="220.985" y1="201.508" x2="220.985" y2="24.3433" gradientUnits="userSpaceOnUse">
<stop stop-color="#60BCB4"/>
<stop offset="1" stop-color="#3A73B7"/>
</linearGradient>
<linearGradient id="paint3_linear_156_459" x1="218.456" y1="305.703" x2="218.456" y2="289.861" gradientUnits="userSpaceOnUse">
<stop stop-color="#60BCB4"/>
<stop offset="1" stop-color="#3A73B7"/>
</linearGradient>
<linearGradient id="paint4_linear_156_459" x1="147.841" y1="51.4766" x2="147.841" y2="138.116" gradientUnits="userSpaceOnUse">
<stop stop-color="#60BCB4"/>
<stop offset="1" stop-color="#3A73B7"/>
</linearGradient>
<linearGradient id="paint5_linear_156_459" x1="286.095" y1="104.781" x2="286.095" y2="167.512" gradientUnits="userSpaceOnUse">
<stop stop-color="#60BCB4"/>
<stop offset="1" stop-color="#3A73B7"/>
</linearGradient>
<linearGradient id="paint6_linear_156_459" x1="201.975" y1="124.188" x2="201.975" y2="182.977" gradientUnits="userSpaceOnUse">
<stop stop-color="#60BCB4"/>
<stop offset="1" stop-color="#3A73B7"/>
</linearGradient>
</defs>
</svg>
