<svg width="138" height="32" viewBox="0 0 138 32" fill="none" xmlns="http://www.w3.org/2000/svg">
<path d="M1.632 24.2277V7.42772H7.368C9.336 7.42772 10.952 7.77972 12.216 8.48372C13.496 9.17172 14.44 10.1477 15.048 11.4117C15.672 12.6597 15.984 14.1317 15.984 15.8277C15.984 17.5237 15.672 19.0037 15.048 20.2677C14.44 21.5157 13.496 22.4917 12.216 23.1957C10.952 23.8837 9.336 24.2277 7.368 24.2277H1.632ZM4.704 21.5877H7.224C8.632 21.5877 9.744 21.3637 10.56 20.9157C11.376 20.4517 11.96 19.7957 12.312 18.9477C12.664 18.0837 12.84 17.0437 12.84 15.8277C12.84 14.6277 12.664 13.5957 12.312 12.7317C11.96 11.8677 11.376 11.2037 10.56 10.7397C9.744 10.2757 8.632 10.0437 7.224 10.0437H4.704V21.5877ZM26.0385 24.5157C24.4545 24.5157 23.0705 24.1557 21.8865 23.4357C20.7025 22.7157 19.7825 21.7157 19.1265 20.4357C18.4705 19.1397 18.1425 17.6357 18.1425 15.9237C18.1425 14.1957 18.4785 12.6757 19.1505 11.3637C19.8385 10.0357 20.8065 9.00372 22.0545 8.26772C23.3185 7.51572 24.8145 7.13972 26.5425 7.13972C28.5105 7.13972 30.1425 7.61172 31.4385 8.55572C32.7345 9.49972 33.5745 10.8037 33.9585 12.4677H30.5265C30.2705 11.6837 29.8065 11.0757 29.1345 10.6437C28.4625 10.1957 27.5985 9.97172 26.5425 9.97172C24.8625 9.97172 23.5665 10.5077 22.6545 11.5797C21.7425 12.6357 21.2865 14.0917 21.2865 15.9477C21.2865 17.8037 21.7345 19.2437 22.6305 20.2677C23.5425 21.2757 24.7745 21.7797 26.3265 21.7797C27.8465 21.7797 28.9905 21.3717 29.7585 20.5557C30.5425 19.7237 31.0145 18.6357 31.1745 17.2917H26.9265V14.9877H34.2705V24.2277H31.4385L31.1985 22.0197C30.6545 22.8197 29.9745 23.4357 29.1585 23.8677C28.3425 24.2997 27.3025 24.5157 26.0385 24.5157ZM37.257 24.2277V7.42772H40.329V21.8277H47.769V24.2277H37.257ZM63.5385 24.5157C61.9545 24.5157 60.5705 24.1557 59.3865 23.4357C58.2025 22.7157 57.2825 21.7157 56.6265 20.4357C55.9705 19.1397 55.6425 17.6357 55.6425 15.9237C55.6425 14.1957 55.9785 12.6757 56.6505 11.3637C57.3385 10.0357 58.3065 9.00372 59.5545 8.26772C60.8185 7.51572 62.3145 7.13972 64.0425 7.13972C66.0105 7.13972 67.6425 7.61172 68.9385 8.55572C70.2345 9.49972 71.0745 10.8037 71.4585 12.4677H68.0265C67.7705 11.6837 67.3065 11.0757 66.6345 10.6437C65.9625 10.1957 65.0985 9.97172 64.0425 9.97172C62.3625 9.97172 61.0665 10.5077 60.1545 11.5797C59.2425 12.6357 58.7865 14.0917 58.7865 15.9477C58.7865 17.8037 59.2345 19.2437 60.1305 20.2677C61.0425 21.2757 62.2745 21.7797 63.8265 21.7797C65.3465 21.7797 66.4905 21.3717 67.2585 20.5557C68.0425 19.7237 68.5145 18.6357 68.6745 17.2917H64.4265V14.9877H71.7705V24.2277H68.9385L68.6985 22.0197C68.1545 22.8197 67.4745 23.4357 66.6585 23.8677C65.8425 24.2997 64.8025 24.5157 63.5385 24.5157ZM74.757 24.2277V7.42772H80.925C82.269 7.42772 83.373 7.65972 84.237 8.12372C85.117 8.57172 85.773 9.18772 86.205 9.97172C86.637 10.7397 86.853 11.5957 86.853 12.5397C86.853 13.5637 86.581 14.4997 86.037 15.3477C85.509 16.1957 84.677 16.8117 83.541 17.1957L87.021 24.2277H83.493L80.373 17.6037H77.829V24.2277H74.757ZM77.829 15.3477H80.733C81.757 15.3477 82.509 15.0997 82.989 14.6037C83.469 14.1077 83.709 13.4517 83.709 12.6357C83.709 11.8357 83.469 11.1957 82.989 10.7157C82.525 10.2357 81.765 9.99572 80.709 9.99572H77.829V15.3477ZM97.5821 24.5157C95.9021 24.5157 94.4301 24.1477 93.1661 23.4117C91.9181 22.6757 90.9341 21.6597 90.2141 20.3637C89.5101 19.0517 89.1581 17.5397 89.1581 15.8277C89.1581 14.1157 89.5101 12.6117 90.2141 11.3157C90.9341 10.0037 91.9181 8.97972 93.1661 8.24372C94.4301 7.50772 95.9021 7.13972 97.5821 7.13972C99.2461 7.13972 100.71 7.50772 101.974 8.24372C103.238 8.97972 104.222 10.0037 104.926 11.3157C105.63 12.6117 105.982 14.1157 105.982 15.8277C105.982 17.5397 105.63 19.0517 104.926 20.3637C104.222 21.6597 103.238 22.6757 101.974 23.4117C100.71 24.1477 99.2461 24.5157 97.5821 24.5157ZM97.5821 21.7557C99.1821 21.7557 100.454 21.2277 101.398 20.1717C102.358 19.1157 102.838 17.6677 102.838 15.8277C102.838 13.9877 102.358 12.5397 101.398 11.4837C100.454 10.4277 99.1821 9.89972 97.5821 9.89972C95.9821 9.89972 94.7021 10.4277 93.7421 11.4837C92.7821 12.5397 92.3021 13.9877 92.3021 15.8277C92.3021 17.6677 92.7821 19.1157 93.7421 20.1717C94.7021 21.2277 95.9821 21.7557 97.5821 21.7557ZM115.175 24.5157C113.943 24.5157 112.831 24.2757 111.839 23.7957C110.847 23.2997 110.055 22.5557 109.463 21.5637C108.887 20.5717 108.599 19.3157 108.599 17.7957V7.42772H111.671V17.8197C111.671 19.1317 111.983 20.1077 112.607 20.7477C113.247 21.3877 114.127 21.7077 115.247 21.7077C116.351 21.7077 117.223 21.3877 117.863 20.7477C118.503 20.1077 118.823 19.1317 118.823 17.8197V7.42772H121.895V17.7957C121.895 19.3157 121.591 20.5717 120.983 21.5637C120.375 22.5557 119.559 23.2997 118.535 23.7957C117.527 24.2757 116.407 24.5157 115.175 24.5157ZM125.03 24.2277V7.42772H131.246C132.59 7.42772 133.702 7.65172 134.582 8.09972C135.462 8.54772 136.118 9.16372 136.55 9.94772C136.982 10.7317 137.198 11.6117 137.198 12.5877C137.198 13.5157 136.99 14.3717 136.574 15.1557C136.158 15.9237 135.51 16.5477 134.63 17.0277C133.75 17.4917 132.622 17.7237 131.246 17.7237H128.102V24.2277H125.03ZM128.102 15.2277H131.054C132.126 15.2277 132.894 14.9957 133.358 14.5317C133.838 14.0517 134.078 13.4037 134.078 12.5877C134.078 11.7557 133.838 11.1077 133.358 10.6437C132.894 10.1637 132.126 9.92372 131.054 9.92372H128.102V15.2277Z" fill="url(#paint0_linear_797_3725)"/>
<defs>
<linearGradient id="paint0_linear_797_3725" x1="69" y1="0.227722" x2="69" y2="31.2277" gradientUnits="userSpaceOnUse">
<stop stop-color="#3A73B7"/>
<stop offset="1" stop-color="#60BCB4"/>
</linearGradient>
</defs>
</svg>
