<svg width="138" height="48" viewBox="0 0 138 48" fill="none" xmlns="http://www.w3.org/2000/svg">
<g clip-path="url(#clip0_215_248)">
<path d="M53.6905 8.42188C45.1098 8.42188 38.0258 15.3493 38.0258 23.959C38.0258 26.2351 38.5247 28.4123 39.4226 30.3916L33.935 33.0635C33.4361 32.6677 32.8375 32.3708 32.139 32.3708C30.6424 32.3708 29.4451 33.5584 29.4451 35.0428C29.4451 36.5272 30.6424 37.7148 32.139 37.7148C33.6357 37.7148 34.833 36.5272 34.833 35.0428C34.833 34.8449 34.833 34.7459 34.7332 34.548L40.2208 31.876C41.2186 33.4594 42.4159 34.8449 43.9125 36.0324L29.3453 43.1577C28.8465 42.7619 28.2478 42.465 27.5494 42.465C26.0528 42.366 24.8555 43.6525 24.8555 45.038C24.8555 46.5224 26.0528 47.71 27.5494 47.71C29.046 47.71 30.2433 46.5224 30.2433 45.038C30.2433 44.8401 30.2433 44.7411 30.1435 44.5432L45.6087 37.121C48.0033 38.5065 50.6972 39.3971 53.6905 39.3971C62.2712 39.3971 69.3552 32.4698 69.3552 23.8601C69.3552 15.3493 62.2712 8.42188 53.6905 8.42188Z" fill="#0F70B7"/>
<path d="M15.6647 39.2881C24.2454 39.2881 31.3294 32.3607 31.3294 23.751C31.3294 21.4749 30.8306 19.2977 29.9326 17.3184L35.4202 14.6465C35.9191 15.0423 36.5177 15.3392 37.2162 15.3392C38.7128 15.3392 39.9101 14.1516 39.9101 12.6672C39.9101 11.1828 38.7128 9.9952 37.2162 9.9952C35.7195 9.9952 34.5222 11.1828 34.5222 12.6672C34.5222 12.8651 34.5222 12.9641 34.622 13.162L29.1344 15.834C28.1366 14.2506 26.9393 12.8651 25.4427 11.6776L40.0099 4.55227C40.5088 4.94812 41.1074 5.245 41.8058 5.245C43.3025 5.34397 44.4998 4.05746 44.4998 2.67198C44.4998 1.18755 43.3025 1.309e-07 41.8058 0C40.3092 -1.308e-07 39.1119 1.18755 39.1119 2.67198C39.1119 2.86991 39.1119 2.96887 39.2117 3.1668L23.7465 10.589C21.3519 9.2035 18.658 8.31284 15.6647 8.31284C7.08404 8.31284 7.527e-07 15.2402 0 23.85C-7.44e-07 32.3607 7.08403 39.2881 15.6647 39.2881Z" fill="#1AA880"/>
<path fill-rule="evenodd" clip-rule="evenodd" d="M62.5228 31.6499C64.3439 29.5389 65.3458 26.8438 65.3458 24.0558H60.8583C60.8583 24.0558 60.8583 24.0558 60.8583 24.0559H53.7197V26.9624H60.2397C59.958 27.5943 59.5838 28.1867 59.1249 28.7187C58.0068 30.0148 56.46 30.866 54.7667 31.1171C53.0733 31.3682 51.3462 31.0023 49.9 30.0863C48.4538 29.1703 47.385 27.7651 46.8883 26.1269C46.3917 24.4887 46.5002 22.7266 47.1942 21.1617C47.8883 19.5969 49.1215 18.3335 50.6692 17.6019C52.2168 16.8704 53.9758 16.7194 55.6256 17.1764C57.2753 17.6334 58.7058 18.668 59.6564 20.0917L63.3885 17.5997C61.8402 15.2811 59.5104 13.596 56.8236 12.8517C54.1368 12.1074 51.272 12.3534 48.7514 13.5448C46.2308 14.7363 44.2223 16.7938 43.092 19.3424C41.9618 21.891 41.7849 24.7609 42.5938 27.4289C43.4027 30.097 45.1435 32.3855 47.4987 33.8774C49.854 35.3692 52.667 35.965 55.4248 35.5561C58.1826 35.1472 60.7017 33.7609 62.5228 31.6499Z" fill="white"/>
<path fill-rule="evenodd" clip-rule="evenodd" d="M23.4385 17.1466C25.126 19.0527 26.0577 21.5104 26.0577 24.0562H23.39V24.0561H7.87863C7.87864 25.2986 8.17723 26.5325 8.76143 27.6498C9.63912 29.3284 11.1008 30.6278 12.8707 31.3027C14.6405 31.9777 16.5962 31.9817 18.3688 31.3138C20.1414 30.646 21.6083 29.3525 22.4927 27.6774L24.8517 28.923C23.6631 31.1742 21.6916 32.9126 19.3094 33.8102C16.9271 34.7078 14.2987 34.7025 11.9201 33.7953C9.54139 32.8882 7.57697 31.1419 6.3974 28.8859C5.21782 26.6299 4.90464 24.0202 5.51694 21.5492C6.12924 19.0782 7.62469 16.9166 9.72114 15.4724C11.8176 14.0282 14.3701 13.4012 16.8971 13.7096C19.4241 14.018 21.7509 15.2406 23.4385 17.1466ZM8.47324 21.078C9.04329 19.7073 9.99853 18.5208 11.2346 17.6693C12.7945 16.5947 14.6937 16.1282 16.574 16.3577C18.4542 16.5871 20.1855 17.4968 21.4411 18.915C22.0136 19.5616 22.4691 20.2935 22.7954 21.078H8.47324Z" fill="white"/>
<path d="M84.229 23.9304C84.229 24.0315 84.2207 24.1754 84.2039 24.362H78.9291C79.0214 24.8208 79.2606 25.1863 79.6467 25.4585C80.0411 25.7229 80.5279 25.8551 81.107 25.8551C81.8455 25.8551 82.454 25.6296 82.9324 25.1786L83.7758 26.0768C83.4737 26.4112 83.0918 26.6639 82.6302 26.835C82.1687 27.0061 81.6483 27.0916 81.0692 27.0916C80.3307 27.0916 79.6802 26.9555 79.1179 26.6833C78.5556 26.4112 78.1192 26.034 77.8087 25.5518C77.5065 25.0619 77.3555 24.5098 77.3555 23.8954C77.3555 23.2888 77.5023 22.7445 77.7961 22.2623C78.0982 21.7724 78.5137 21.3914 79.0424 21.1192C79.5711 20.847 80.167 20.7109 80.83 20.7109C81.4847 20.7109 82.0679 20.847 82.5799 21.1192C83.1002 21.3836 83.5031 21.7607 83.7884 22.2507C84.0822 22.7328 84.229 23.2927 84.229 23.9304ZM80.83 21.8774C80.3265 21.8774 79.8984 22.0174 79.5459 22.2973C79.2019 22.5695 78.992 22.935 78.9165 23.3938H82.731C82.6638 22.9428 82.4582 22.5773 82.1141 22.2973C81.77 22.0174 81.342 21.8774 80.83 21.8774Z" fill="black"/>
<path d="M85.5234 23.1562H88.9854V24.3694H85.5234V23.1562Z" fill="black"/>
<path d="M97.5033 20.7809V26.0651C97.5033 28.2581 96.2948 29.3546 93.8777 29.3546C93.2315 29.3546 92.6188 29.2768 92.0397 29.1213C91.4606 28.9735 90.9823 28.7558 90.6046 28.4681L91.3096 27.3716C91.6033 27.5971 91.9726 27.7759 92.4174 27.9081C92.8706 28.0481 93.328 28.1181 93.7896 28.1181C94.5281 28.1181 95.0695 27.9626 95.4136 27.6515C95.7577 27.3405 95.9297 26.8661 95.9297 26.2284V25.9018C95.6612 26.174 95.3338 26.38 94.9478 26.52C94.5617 26.66 94.1379 26.73 93.6763 26.73C93.0385 26.73 92.4594 26.6056 91.939 26.3567C91.4271 26.1001 91.02 25.7424 90.7179 25.2835C90.4241 24.8247 90.2773 24.2998 90.2773 23.7088C90.2773 23.1178 90.4241 22.5967 90.7179 22.1457C91.02 21.6869 91.4271 21.333 91.939 21.0842C92.4594 20.8353 93.0385 20.7109 93.6763 20.7109C94.1631 20.7109 94.6037 20.7848 94.9981 20.9325C95.401 21.0803 95.7367 21.3058 96.0053 21.6091V20.7809H97.5033ZM93.9155 25.4935C94.5114 25.4935 94.9981 25.3302 95.3758 25.0036C95.7619 24.6692 95.9549 24.2376 95.9549 23.7088C95.9549 23.1877 95.7619 22.7639 95.3758 22.4373C94.9981 22.1107 94.5114 21.9474 93.9155 21.9474C93.3112 21.9474 92.816 22.1107 92.43 22.4373C92.0523 22.7639 91.8635 23.1877 91.8635 23.7088C91.8635 24.2376 92.0523 24.6692 92.43 25.0036C92.816 25.3302 93.3112 25.4935 93.9155 25.4935Z" fill="black"/>
<path d="M103.299 20.7079C103.953 20.7079 104.537 20.8401 105.048 21.1045C105.569 21.3689 105.976 21.7422 106.27 22.2243C106.563 22.7065 106.71 23.2625 106.71 23.8924C106.71 24.5223 106.563 25.0822 106.27 25.5722C105.976 26.0543 105.569 26.4276 105.048 26.692C104.537 26.9564 103.953 27.0886 103.299 27.0886C102.837 27.0886 102.413 27.0147 102.027 26.867C101.649 26.7192 101.331 26.4976 101.07 26.2021V27.0069H99.5723V18.3516H101.146V21.5361C101.414 21.2639 101.729 21.0579 102.09 20.9179C102.459 20.7779 102.862 20.7079 103.299 20.7079ZM103.122 25.8405C103.701 25.8405 104.176 25.6616 104.545 25.3039C104.923 24.9461 105.111 24.4757 105.111 23.8924C105.111 23.3092 104.923 22.8387 104.545 22.481C104.176 22.1232 103.701 21.9444 103.122 21.9444C102.745 21.9444 102.405 22.026 102.103 22.1893C101.801 22.3449 101.561 22.5704 101.385 22.8659C101.209 23.1614 101.121 23.5036 101.121 23.8924C101.121 24.2813 101.209 24.6234 101.385 24.9189C101.561 25.2144 101.801 25.4439 102.103 25.6072C102.405 25.7627 102.745 25.8405 103.122 25.8405Z" fill="black"/>
<path d="M110.684 20.7109C111.674 20.7109 112.429 20.9325 112.95 21.3758C113.478 21.8113 113.743 22.4723 113.743 23.3588V27.0099H112.257V26.2517C112.064 26.5239 111.787 26.7339 111.426 26.8816C111.074 27.0216 110.646 27.0916 110.142 27.0916C109.639 27.0916 109.198 27.0138 108.821 26.8583C108.443 26.695 108.149 26.4734 107.939 26.1934C107.738 25.9057 107.637 25.5829 107.637 25.2252C107.637 24.6653 107.86 24.2181 108.304 23.8838C108.758 23.5416 109.467 23.3705 110.432 23.3705H112.169V23.2772C112.169 22.8417 112.027 22.5073 111.741 22.274C111.464 22.0407 111.049 21.9241 110.495 21.9241C110.117 21.9241 109.744 21.9785 109.374 22.0874C109.014 22.1962 108.707 22.3479 108.455 22.5423L107.839 21.4808C108.191 21.2319 108.615 21.0414 109.11 20.9092C109.605 20.777 110.13 20.7109 110.684 20.7109ZM110.47 26.0301C110.864 26.0301 111.212 25.9484 111.515 25.7851C111.825 25.614 112.043 25.373 112.169 25.0619V24.3387H110.545C109.639 24.3387 109.186 24.6148 109.186 25.1669C109.186 25.4313 109.299 25.6413 109.525 25.7968C109.752 25.9523 110.067 26.0301 110.47 26.0301Z" fill="black"/>
<path d="M121.935 20.7812L119.052 27.0103H117.428L114.545 20.7812H116.182L118.271 25.4006L120.424 20.7812H121.935Z" fill="black"/>
<path d="M125.755 27.0916C125.076 27.0916 124.463 26.9555 123.917 26.6833C123.372 26.4112 122.944 26.034 122.633 25.5518C122.331 25.0619 122.18 24.5098 122.18 23.8954C122.18 23.2811 122.331 22.7328 122.633 22.2507C122.944 21.7685 123.372 21.3914 123.917 21.1192C124.463 20.847 125.076 20.7109 125.755 20.7109C126.444 20.7109 127.06 20.847 127.606 21.1192C128.151 21.3914 128.575 21.7685 128.877 22.2507C129.188 22.7328 129.343 23.2811 129.343 23.8954C129.343 24.5098 129.188 25.0619 128.877 25.5518C128.575 26.034 128.151 26.4112 127.606 26.6833C127.06 26.9555 126.444 27.0916 125.755 27.0916ZM125.755 25.8435C126.334 25.8435 126.813 25.6646 127.19 25.3069C127.568 24.9491 127.757 24.4787 127.757 23.8954C127.757 23.3122 127.568 22.8417 127.19 22.484C126.813 22.1262 126.334 21.9474 125.755 21.9474C125.176 21.9474 124.698 22.1262 124.32 22.484C123.951 22.8417 123.766 23.3122 123.766 23.8954C123.766 24.4787 123.951 24.9491 124.32 25.3069C124.698 25.6646 125.176 25.8435 125.755 25.8435Z" fill="black"/>
<path d="M137.355 20.7812V27.0103H135.857V26.2171C135.606 26.4971 135.291 26.7147 134.913 26.8703C134.536 27.018 134.128 27.092 133.692 27.092C132.794 27.092 132.085 26.8626 131.565 26.4038C131.053 25.9372 130.797 25.2489 130.797 24.3391V20.7812H132.37V24.1408C132.37 24.7007 132.505 25.1206 132.773 25.4006C133.05 25.6728 133.44 25.8089 133.944 25.8089C134.506 25.8089 134.951 25.6494 135.278 25.3306C135.614 25.004 135.782 24.5373 135.782 23.9307V20.7812H137.355Z" fill="black"/>
</g>
<defs>
<clipPath id="clip0_215_248">
<rect width="138" height="48" fill="white"/>
</clipPath>
</defs>
</svg>
