<svg width="185" height="210" viewBox="0 0 185 210" fill="none" xmlns="http://www.w3.org/2000/svg">
<circle cx="92.5" cy="76" r="74" stroke="url(#paint0_linear_206_160)" stroke-width="4"/>
<path d="M104.856 84.5444L125.633 76.3369C130.284 74.4994 131.649 75.0287 133.819 76.6541C135.046 77.5728 135.494 78.6884 135.606 80.0666C135.838 82.9344 135.289 84.7937 133.449 86.0319C122.295 93.5328 110.406 99.1219 95.5003 105.249C88.2553 108.226 77.5409 106.262 67.9159 102.952L55.025 102.902C54.4114 102.903 53.8036 102.783 53.2362 102.55C52.6689 102.316 52.1532 101.973 51.7185 101.54C51.2838 101.106 50.9386 100.592 50.7028 100.026C50.4669 99.4591 50.3449 98.8517 50.3438 98.2381V85.1962C50.3438 82.6019 52.4328 80.515 55.025 80.515H68.8631C74.1284 73.97 90.1562 76.1509 101.501 76.5359C104.563 76.6409 105.709 79.7931 104.856 84.5444ZM104.856 84.5444C101.908 90.2034 94.4109 88.705 87.3563 88.9609M110.432 64.2028L107.735 61.5056L105.036 64.205H102.898M97.4997 64.2028L100.199 61.5056L102.896 64.2028M90.0622 53.1144H111.318L117.281 58.6597L111.318 64.205H110.434M97.5019 64.205H90.0644M90.0622 64.2028L84.6722 69.5928C82.7034 71.5616 79.5359 71.5616 77.5694 69.5928L70.1844 62.2144C68.2156 60.2456 68.2156 57.0781 70.1844 55.1094L77.5672 47.7266C79.5359 45.7578 82.7034 45.7578 84.67 47.7266L90.06 53.1166M80.6472 58.6597C80.6472 60.5497 79.1159 62.0831 77.2238 62.0831C75.3338 62.0831 73.7981 60.5519 73.7981 58.6597C73.7981 56.7697 75.3294 55.2362 77.2216 55.2362C79.1116 55.2362 80.6472 56.7675 80.6472 58.6575V58.6597Z" stroke="black" stroke-linecap="round" stroke-linejoin="round"/>
<path d="M1.776 203V186.2H12.168V187.856H3.792V193.712H11.448V195.344H3.792V201.344H12.168V203H1.776ZM24.9709 208.28V201.032C24.5869 201.608 24.0349 202.128 23.3149 202.592C22.5949 203.056 21.6909 203.288 20.6029 203.288C19.4189 203.288 18.3789 203.016 17.4829 202.472C16.6029 201.928 15.9149 201.184 15.4189 200.24C14.9389 199.296 14.6989 198.224 14.6989 197.024C14.6989 195.824 14.9469 194.76 15.4429 193.832C15.9389 192.888 16.6269 192.152 17.5069 191.624C18.3869 191.08 19.4269 190.808 20.6269 190.808C21.6029 190.808 22.4669 191.008 23.2189 191.408C23.9709 191.808 24.5549 192.368 24.9709 193.088L25.1629 191.096H26.9869V208.28H24.9709ZM20.8189 201.536C21.6189 201.536 22.3229 201.352 22.9309 200.984C23.5549 200.6 24.0349 200.072 24.3709 199.4C24.7229 198.728 24.8989 197.944 24.8989 197.048C24.8989 196.152 24.7229 195.368 24.3709 194.696C24.0349 194.024 23.5549 193.504 22.9309 193.136C22.3229 192.752 21.6189 192.56 20.8189 192.56C20.0349 192.56 19.3309 192.752 18.7069 193.136C18.0989 193.504 17.6189 194.024 17.2669 194.696C16.9309 195.368 16.7629 196.152 16.7629 197.048C16.7629 197.944 16.9309 198.728 17.2669 199.4C17.6189 200.072 18.0989 200.6 18.7069 200.984C19.3309 201.352 20.0349 201.536 20.8189 201.536ZM34.6172 203.288C33.2092 203.288 32.0892 202.864 31.2572 202.016C30.4252 201.152 30.0092 199.832 30.0092 198.056V191.096H32.0252V197.84C32.0252 200.32 33.0412 201.56 35.0732 201.56C36.1132 201.56 36.9692 201.192 37.6412 200.456C38.3292 199.704 38.6732 198.64 38.6732 197.264V191.096H40.6892V203H38.8652L38.7212 200.864C38.3532 201.616 37.8012 202.208 37.0652 202.64C36.3452 203.072 35.5292 203.288 34.6172 203.288ZM45.2316 188.456C44.8316 188.456 44.4956 188.328 44.2236 188.072C43.9676 187.8 43.8396 187.464 43.8396 187.064C43.8396 186.68 43.9676 186.36 44.2236 186.104C44.4956 185.848 44.8316 185.72 45.2316 185.72C45.6156 185.72 45.9436 185.848 46.2156 186.104C46.4876 186.36 46.6236 186.68 46.6236 187.064C46.6236 187.464 46.4876 187.8 46.2156 188.072C45.9436 188.328 45.6156 188.456 45.2316 188.456ZM44.2236 203V191.096H46.2396V203H44.2236ZM49.7498 208.28V191.096H51.5738L51.7658 193.064C52.1498 192.488 52.6938 191.968 53.3978 191.504C54.1178 191.04 55.0298 190.808 56.1338 190.808C57.3178 190.808 58.3498 191.08 59.2298 191.624C60.1098 192.168 60.7898 192.912 61.2698 193.856C61.7658 194.8 62.0138 195.872 62.0138 197.072C62.0138 198.272 61.7658 199.344 61.2698 200.288C60.7898 201.216 60.1018 201.952 59.2058 202.496C58.3258 203.024 57.2938 203.288 56.1098 203.288C55.1338 203.288 54.2618 203.088 53.4938 202.688C52.7418 202.288 52.1658 201.728 51.7658 201.008V208.28H49.7498ZM55.8938 201.536C56.6938 201.536 57.3978 201.352 58.0058 200.984C58.6138 200.6 59.0938 200.072 59.4458 199.4C59.7978 198.728 59.9738 197.944 59.9738 197.048C59.9738 196.152 59.7978 195.368 59.4458 194.696C59.0938 194.024 58.6138 193.504 58.0058 193.136C57.3978 192.752 56.6938 192.56 55.8938 192.56C55.0938 192.56 54.3898 192.752 53.7818 193.136C53.1738 193.504 52.6938 194.024 52.3418 194.696C51.9898 195.368 51.8138 196.152 51.8138 197.048C51.8138 197.944 51.9898 198.728 52.3418 199.4C52.6938 200.072 53.1738 200.6 53.7818 200.984C54.3898 201.352 55.0938 201.536 55.8938 201.536ZM70.1721 203.288C69.0361 203.288 68.0281 203.032 67.1481 202.52C66.2681 201.992 65.5721 201.264 65.0601 200.336C64.5641 199.408 64.3161 198.312 64.3161 197.048C64.3161 195.8 64.5641 194.712 65.0601 193.784C65.5561 192.84 66.2441 192.112 67.1241 191.6C68.0201 191.072 69.0521 190.808 70.2201 190.808C71.3721 190.808 72.3641 191.072 73.1961 191.6C74.0441 192.112 74.6921 192.792 75.1401 193.64C75.5881 194.488 75.8121 195.4 75.8121 196.376C75.8121 196.552 75.8041 196.728 75.7881 196.904C75.7881 197.08 75.7881 197.28 75.7881 197.504H66.3081C66.3561 198.416 66.5641 199.176 66.9321 199.784C67.3161 200.376 67.7881 200.824 68.3481 201.128C68.9241 201.432 69.5321 201.584 70.1721 201.584C71.0041 201.584 71.7001 201.392 72.2601 201.008C72.8201 200.624 73.2281 200.104 73.4841 199.448H75.4761C75.1561 200.552 74.5401 201.472 73.6281 202.208C72.7321 202.928 71.5801 203.288 70.1721 203.288ZM70.1721 192.512C69.2121 192.512 68.3561 192.808 67.6041 193.4C66.8681 193.976 66.4441 194.824 66.3321 195.944H73.8201C73.7721 194.872 73.4041 194.032 72.7161 193.424C72.0281 192.816 71.1801 192.512 70.1721 192.512ZM90.1877 203.288C89.0517 203.288 88.0437 203.032 87.1637 202.52C86.2837 201.992 85.5877 201.264 85.0757 200.336C84.5797 199.408 84.3317 198.312 84.3317 197.048C84.3317 195.8 84.5797 194.712 85.0757 193.784C85.5717 192.84 86.2597 192.112 87.1397 191.6C88.0357 191.072 89.0677 190.808 90.2357 190.808C91.3877 190.808 92.3797 191.072 93.2117 191.6C94.0597 192.112 94.7077 192.792 95.1557 193.64C95.6037 194.488 95.8277 195.4 95.8277 196.376C95.8277 196.552 95.8197 196.728 95.8037 196.904C95.8037 197.08 95.8037 197.28 95.8037 197.504H86.3237C86.3717 198.416 86.5797 199.176 86.9477 199.784C87.3317 200.376 87.8037 200.824 88.3637 201.128C88.9397 201.432 89.5477 201.584 90.1877 201.584C91.0197 201.584 91.7157 201.392 92.2757 201.008C92.8357 200.624 93.2437 200.104 93.4997 199.448H95.4917C95.1717 200.552 94.5557 201.472 93.6437 202.208C92.7477 202.928 91.5957 203.288 90.1877 203.288ZM90.1877 192.512C89.2277 192.512 88.3717 192.808 87.6197 193.4C86.8837 193.976 86.4597 194.824 86.3477 195.944H93.8357C93.7877 194.872 93.4197 194.032 92.7317 193.424C92.0437 192.816 91.1957 192.512 90.1877 192.512ZM98.4998 203V191.096H100.324L100.444 193.232C100.828 192.48 101.38 191.888 102.1 191.456C102.82 191.024 103.636 190.808 104.548 190.808C105.956 190.808 107.076 191.24 107.908 192.104C108.756 192.952 109.18 194.264 109.18 196.04V203H107.164V196.256C107.164 193.776 106.14 192.536 104.092 192.536C103.068 192.536 102.212 192.912 101.524 193.664C100.852 194.4 100.516 195.456 100.516 196.832V203H98.4998ZM116.938 199.256C116.266 199.256 115.65 199.168 115.09 198.992L113.89 200.12C114.066 200.248 114.282 200.36 114.538 200.456C114.81 200.536 115.194 200.616 115.69 200.696C116.186 200.76 116.882 200.832 117.778 200.912C119.378 201.024 120.522 201.392 121.21 202.016C121.898 202.64 122.242 203.456 122.242 204.464C122.242 205.152 122.05 205.808 121.666 206.432C121.298 207.056 120.722 207.568 119.938 207.968C119.17 208.368 118.178 208.568 116.962 208.568C115.89 208.568 114.938 208.424 114.106 208.136C113.274 207.864 112.626 207.44 112.162 206.864C111.698 206.304 111.466 205.592 111.466 204.728C111.466 204.28 111.586 203.792 111.826 203.264C112.066 202.752 112.514 202.264 113.17 201.8C112.818 201.656 112.514 201.504 112.258 201.344C112.018 201.168 111.794 200.976 111.586 200.768V200.216L113.626 198.2C112.682 197.4 112.21 196.344 112.21 195.032C112.21 194.248 112.394 193.536 112.762 192.896C113.13 192.256 113.666 191.752 114.37 191.384C115.074 191 115.93 190.808 116.938 190.808C117.626 190.808 118.25 190.904 118.81 191.096H123.202V192.608L120.97 192.704C121.434 193.376 121.666 194.152 121.666 195.032C121.666 195.816 121.474 196.528 121.09 197.168C120.722 197.808 120.186 198.32 119.482 198.704C118.794 199.072 117.946 199.256 116.938 199.256ZM116.938 197.6C117.786 197.6 118.458 197.384 118.954 196.952C119.466 196.504 119.722 195.864 119.722 195.032C119.722 194.216 119.466 193.592 118.954 193.16C118.458 192.712 117.786 192.488 116.938 192.488C116.074 192.488 115.386 192.712 114.874 193.16C114.378 193.592 114.13 194.216 114.13 195.032C114.13 195.864 114.378 196.504 114.874 196.952C115.386 197.384 116.074 197.6 116.938 197.6ZM113.434 204.536C113.434 205.336 113.77 205.928 114.442 206.312C115.114 206.712 115.954 206.912 116.962 206.912C117.954 206.912 118.746 206.696 119.338 206.264C119.946 205.832 120.25 205.256 120.25 204.536C120.25 204.024 120.042 203.576 119.626 203.192C119.21 202.824 118.442 202.608 117.322 202.544C116.442 202.48 115.682 202.4 115.042 202.304C114.386 202.656 113.954 203.032 113.746 203.432C113.538 203.848 113.434 204.216 113.434 204.536ZM129.436 203.288C128.444 203.288 127.62 203.12 126.964 202.784C126.308 202.448 125.82 202 125.5 201.44C125.18 200.88 125.02 200.272 125.02 199.616C125.02 198.4 125.484 197.464 126.412 196.808C127.34 196.152 128.604 195.824 130.204 195.824H133.42V195.68C133.42 194.64 133.148 193.856 132.604 193.328C132.06 192.784 131.332 192.512 130.42 192.512C129.636 192.512 128.956 192.712 128.38 193.112C127.82 193.496 127.468 194.064 127.324 194.816H125.26C125.34 193.952 125.628 193.224 126.124 192.632C126.636 192.04 127.268 191.592 128.02 191.288C128.772 190.968 129.572 190.808 130.42 190.808C132.084 190.808 133.332 191.256 134.164 192.152C135.012 193.032 135.436 194.208 135.436 195.68V203H133.636L133.516 200.864C133.18 201.536 132.684 202.112 132.028 202.592C131.388 203.056 130.524 203.288 129.436 203.288ZM129.748 201.584C130.516 201.584 131.172 201.384 131.716 200.984C132.276 200.584 132.7 200.064 132.988 199.424C133.276 198.784 133.42 198.112 133.42 197.408V197.384H130.372C129.188 197.384 128.348 197.592 127.852 198.008C127.372 198.408 127.132 198.912 127.132 199.52C127.132 200.144 127.356 200.648 127.804 201.032C128.268 201.4 128.916 201.584 129.748 201.584ZM143.165 199.256C142.493 199.256 141.877 199.168 141.317 198.992L140.117 200.12C140.293 200.248 140.509 200.36 140.765 200.456C141.037 200.536 141.421 200.616 141.917 200.696C142.413 200.76 143.109 200.832 144.005 200.912C145.605 201.024 146.749 201.392 147.437 202.016C148.125 202.64 148.469 203.456 148.469 204.464C148.469 205.152 148.277 205.808 147.893 206.432C147.525 207.056 146.949 207.568 146.165 207.968C145.397 208.368 144.405 208.568 143.189 208.568C142.117 208.568 141.165 208.424 140.333 208.136C139.501 207.864 138.853 207.44 138.389 206.864C137.925 206.304 137.693 205.592 137.693 204.728C137.693 204.28 137.813 203.792 138.053 203.264C138.293 202.752 138.741 202.264 139.397 201.8C139.045 201.656 138.741 201.504 138.485 201.344C138.245 201.168 138.021 200.976 137.813 200.768V200.216L139.853 198.2C138.909 197.4 138.437 196.344 138.437 195.032C138.437 194.248 138.621 193.536 138.989 192.896C139.357 192.256 139.893 191.752 140.597 191.384C141.301 191 142.157 190.808 143.165 190.808C143.853 190.808 144.477 190.904 145.037 191.096H149.429V192.608L147.197 192.704C147.661 193.376 147.893 194.152 147.893 195.032C147.893 195.816 147.701 196.528 147.317 197.168C146.949 197.808 146.413 198.32 145.709 198.704C145.021 199.072 144.173 199.256 143.165 199.256ZM143.165 197.6C144.013 197.6 144.685 197.384 145.181 196.952C145.693 196.504 145.949 195.864 145.949 195.032C145.949 194.216 145.693 193.592 145.181 193.16C144.685 192.712 144.013 192.488 143.165 192.488C142.301 192.488 141.613 192.712 141.101 193.16C140.605 193.592 140.357 194.216 140.357 195.032C140.357 195.864 140.605 196.504 141.101 196.952C141.613 197.384 142.301 197.6 143.165 197.6ZM139.661 204.536C139.661 205.336 139.997 205.928 140.669 206.312C141.341 206.712 142.181 206.912 143.189 206.912C144.181 206.912 144.973 206.696 145.565 206.264C146.173 205.832 146.477 205.256 146.477 204.536C146.477 204.024 146.269 203.576 145.853 203.192C145.437 202.824 144.669 202.608 143.549 202.544C142.669 202.48 141.909 202.4 141.269 202.304C140.613 202.656 140.181 203.032 139.973 203.432C139.765 203.848 139.661 204.216 139.661 204.536ZM156.586 203.288C155.45 203.288 154.442 203.032 153.562 202.52C152.682 201.992 151.986 201.264 151.474 200.336C150.978 199.408 150.73 198.312 150.73 197.048C150.73 195.8 150.978 194.712 151.474 193.784C151.97 192.84 152.658 192.112 153.538 191.6C154.434 191.072 155.466 190.808 156.634 190.808C157.786 190.808 158.778 191.072 159.61 191.6C160.458 192.112 161.106 192.792 161.554 193.64C162.002 194.488 162.226 195.4 162.226 196.376C162.226 196.552 162.218 196.728 162.202 196.904C162.202 197.08 162.202 197.28 162.202 197.504H152.722C152.77 198.416 152.978 199.176 153.346 199.784C153.73 200.376 154.202 200.824 154.762 201.128C155.338 201.432 155.946 201.584 156.586 201.584C157.418 201.584 158.114 201.392 158.674 201.008C159.234 200.624 159.642 200.104 159.898 199.448H161.89C161.57 200.552 160.954 201.472 160.042 202.208C159.146 202.928 157.994 203.288 156.586 203.288ZM156.586 192.512C155.626 192.512 154.77 192.808 154.018 193.4C153.282 193.976 152.858 194.824 152.746 195.944H160.234C160.186 194.872 159.818 194.032 159.13 193.424C158.442 192.816 157.594 192.512 156.586 192.512ZM156.034 190.112V188.6L161.074 185.552V187.304L156.034 190.112ZM170.25 203.288C169.114 203.288 168.106 203.032 167.226 202.52C166.346 201.992 165.65 201.264 165.138 200.336C164.642 199.408 164.394 198.312 164.394 197.048C164.394 195.8 164.642 194.712 165.138 193.784C165.634 192.84 166.322 192.112 167.202 191.6C168.098 191.072 169.13 190.808 170.298 190.808C171.45 190.808 172.442 191.072 173.274 191.6C174.122 192.112 174.77 192.792 175.218 193.64C175.666 194.488 175.89 195.4 175.89 196.376C175.89 196.552 175.882 196.728 175.866 196.904C175.866 197.08 175.866 197.28 175.866 197.504H166.386C166.434 198.416 166.642 199.176 167.01 199.784C167.394 200.376 167.866 200.824 168.426 201.128C169.002 201.432 169.61 201.584 170.25 201.584C171.082 201.584 171.778 201.392 172.338 201.008C172.898 200.624 173.306 200.104 173.562 199.448H175.554C175.234 200.552 174.618 201.472 173.706 202.208C172.81 202.928 171.658 203.288 170.25 203.288ZM170.25 192.512C169.29 192.512 168.434 192.808 167.682 193.4C166.946 193.976 166.522 194.824 166.41 195.944H173.898C173.85 194.872 173.482 194.032 172.794 193.424C172.106 192.816 171.258 192.512 170.25 192.512Z" fill="black"/>
<defs>
<linearGradient id="paint0_linear_206_160" x1="92.5" y1="0" x2="92.5" y2="152" gradientUnits="userSpaceOnUse">
<stop stop-color="#3A73B7"/>
<stop offset="1" stop-color="#60BCB4"/>
</linearGradient>
</defs>
</svg>
