<svg width="185" height="217" viewBox="0 0 185 217" fill="none" xmlns="http://www.w3.org/2000/svg">
<circle cx="92.5" cy="76" r="74" stroke="url(#paint0_linear_206_159)" stroke-width="4"/>
<path d="M58.0781 85.3673V95.841L92.4414 115.68L100.727 110.896C95.2793 110.251 85.4957 105.206 85.4957 105.206M115.255 102.509L126.807 95.841V56.1592L92.4414 36.3203L58.0781 56.1592V70.6019" stroke="black" stroke-linecap="round" stroke-linejoin="round"/>
<path d="M85.2137 95.6459C63.327 83.8471 53.8047 76.6033 53.8047 68.2202C53.8047 63.7693 58.0779 62.0625 58.0779 62.0625" stroke="black" stroke-linecap="round" stroke-linejoin="round"/>
<path d="M85.4945 111.67V70.9634H70.4148L65.084 59.0625H92.4403H119.797L114.468 70.9634H99.386V104.663" stroke="black" stroke-linecap="round" stroke-linejoin="round"/>
<path d="M72.6387 94.9737C102.964 108.324 117.815 109.308 125.348 106.356C133.825 103.034 131.786 95.3882 126.806 89.8512C132.186 91.4804 133.738 94.8063 133.738 94.8063M50.0293 72.8359C55.8072 78.8548 70.4827 87.195 70.4827 87.195" stroke="black" stroke-linecap="round" stroke-linejoin="round"/>
<path d="M1.776 210V193.2H12.168V194.856H3.792V200.712H11.448V202.344H3.792V208.344H12.168V210H1.776ZM24.9709 215.28V208.032C24.5869 208.608 24.0349 209.128 23.3149 209.592C22.5949 210.056 21.6909 210.288 20.6029 210.288C19.4189 210.288 18.3789 210.016 17.4829 209.472C16.6029 208.928 15.9149 208.184 15.4189 207.24C14.9389 206.296 14.6989 205.224 14.6989 204.024C14.6989 202.824 14.9469 201.76 15.4429 200.832C15.9389 199.888 16.6269 199.152 17.5069 198.624C18.3869 198.08 19.4269 197.808 20.6269 197.808C21.6029 197.808 22.4669 198.008 23.2189 198.408C23.9709 198.808 24.5549 199.368 24.9709 200.088L25.1629 198.096H26.9869V215.28H24.9709ZM20.8189 208.536C21.6189 208.536 22.3229 208.352 22.9309 207.984C23.5549 207.6 24.0349 207.072 24.3709 206.4C24.7229 205.728 24.8989 204.944 24.8989 204.048C24.8989 203.152 24.7229 202.368 24.3709 201.696C24.0349 201.024 23.5549 200.504 22.9309 200.136C22.3229 199.752 21.6189 199.56 20.8189 199.56C20.0349 199.56 19.3309 199.752 18.7069 200.136C18.0989 200.504 17.6189 201.024 17.2669 201.696C16.9309 202.368 16.7629 203.152 16.7629 204.048C16.7629 204.944 16.9309 205.728 17.2669 206.4C17.6189 207.072 18.0989 207.6 18.7069 207.984C19.3309 208.352 20.0349 208.536 20.8189 208.536ZM34.6172 210.288C33.2092 210.288 32.0892 209.864 31.2572 209.016C30.4252 208.152 30.0092 206.832 30.0092 205.056V198.096H32.0252V204.84C32.0252 207.32 33.0412 208.56 35.0732 208.56C36.1132 208.56 36.9692 208.192 37.6412 207.456C38.3292 206.704 38.6732 205.64 38.6732 204.264V198.096H40.6892V210H38.8652L38.7212 207.864C38.3532 208.616 37.8012 209.208 37.0652 209.64C36.3452 210.072 35.5292 210.288 34.6172 210.288ZM45.2316 195.456C44.8316 195.456 44.4956 195.328 44.2236 195.072C43.9676 194.8 43.8396 194.464 43.8396 194.064C43.8396 193.68 43.9676 193.36 44.2236 193.104C44.4956 192.848 44.8316 192.72 45.2316 192.72C45.6156 192.72 45.9436 192.848 46.2156 193.104C46.4876 193.36 46.6236 193.68 46.6236 194.064C46.6236 194.464 46.4876 194.8 46.2156 195.072C45.9436 195.328 45.6156 195.456 45.2316 195.456ZM44.2236 210V198.096H46.2396V210H44.2236ZM49.7498 215.28V198.096H51.5738L51.7658 200.064C52.1498 199.488 52.6938 198.968 53.3978 198.504C54.1178 198.04 55.0298 197.808 56.1338 197.808C57.3178 197.808 58.3498 198.08 59.2298 198.624C60.1098 199.168 60.7898 199.912 61.2698 200.856C61.7658 201.8 62.0138 202.872 62.0138 204.072C62.0138 205.272 61.7658 206.344 61.2698 207.288C60.7898 208.216 60.1018 208.952 59.2058 209.496C58.3258 210.024 57.2938 210.288 56.1098 210.288C55.1338 210.288 54.2618 210.088 53.4938 209.688C52.7418 209.288 52.1658 208.728 51.7658 208.008V215.28H49.7498ZM55.8938 208.536C56.6938 208.536 57.3978 208.352 58.0058 207.984C58.6138 207.6 59.0938 207.072 59.4458 206.4C59.7978 205.728 59.9738 204.944 59.9738 204.048C59.9738 203.152 59.7978 202.368 59.4458 201.696C59.0938 201.024 58.6138 200.504 58.0058 200.136C57.3978 199.752 56.6938 199.56 55.8938 199.56C55.0938 199.56 54.3898 199.752 53.7818 200.136C53.1738 200.504 52.6938 201.024 52.3418 201.696C51.9898 202.368 51.8138 203.152 51.8138 204.048C51.8138 204.944 51.9898 205.728 52.3418 206.4C52.6938 207.072 53.1738 207.6 53.7818 207.984C54.3898 208.352 55.0938 208.536 55.8938 208.536ZM70.1721 210.288C69.0361 210.288 68.0281 210.032 67.1481 209.52C66.2681 208.992 65.5721 208.264 65.0601 207.336C64.5641 206.408 64.3161 205.312 64.3161 204.048C64.3161 202.8 64.5641 201.712 65.0601 200.784C65.5561 199.84 66.2441 199.112 67.1241 198.6C68.0201 198.072 69.0521 197.808 70.2201 197.808C71.3721 197.808 72.3641 198.072 73.1961 198.6C74.0441 199.112 74.6921 199.792 75.1401 200.64C75.5881 201.488 75.8121 202.4 75.8121 203.376C75.8121 203.552 75.8041 203.728 75.7881 203.904C75.7881 204.08 75.7881 204.28 75.7881 204.504H66.3081C66.3561 205.416 66.5641 206.176 66.9321 206.784C67.3161 207.376 67.7881 207.824 68.3481 208.128C68.9241 208.432 69.5321 208.584 70.1721 208.584C71.0041 208.584 71.7001 208.392 72.2601 208.008C72.8201 207.624 73.2281 207.104 73.4841 206.448H75.4761C75.1561 207.552 74.5401 208.472 73.6281 209.208C72.7321 209.928 71.5801 210.288 70.1721 210.288ZM70.1721 199.512C69.2121 199.512 68.3561 199.808 67.6041 200.4C66.8681 200.976 66.4441 201.824 66.3321 202.944H73.8201C73.7721 201.872 73.4041 201.032 72.7161 200.424C72.0281 199.816 71.1801 199.512 70.1721 199.512ZM90.1877 210.288C89.0517 210.288 88.0437 210.032 87.1637 209.52C86.2837 208.992 85.5877 208.264 85.0757 207.336C84.5797 206.408 84.3317 205.312 84.3317 204.048C84.3317 202.8 84.5797 201.712 85.0757 200.784C85.5717 199.84 86.2597 199.112 87.1397 198.6C88.0357 198.072 89.0677 197.808 90.2357 197.808C91.3877 197.808 92.3797 198.072 93.2117 198.6C94.0597 199.112 94.7077 199.792 95.1557 200.64C95.6037 201.488 95.8277 202.4 95.8277 203.376C95.8277 203.552 95.8197 203.728 95.8037 203.904C95.8037 204.08 95.8037 204.28 95.8037 204.504H86.3237C86.3717 205.416 86.5797 206.176 86.9477 206.784C87.3317 207.376 87.8037 207.824 88.3637 208.128C88.9397 208.432 89.5477 208.584 90.1877 208.584C91.0197 208.584 91.7157 208.392 92.2757 208.008C92.8357 207.624 93.2437 207.104 93.4997 206.448H95.4917C95.1717 207.552 94.5557 208.472 93.6437 209.208C92.7477 209.928 91.5957 210.288 90.1877 210.288ZM90.1877 199.512C89.2277 199.512 88.3717 199.808 87.6197 200.4C86.8837 200.976 86.4597 201.824 86.3477 202.944H93.8357C93.7877 201.872 93.4197 201.032 92.7317 200.424C92.0437 199.816 91.1957 199.512 90.1877 199.512ZM98.4998 210V198.096H100.324L100.444 200.232C100.828 199.48 101.38 198.888 102.1 198.456C102.82 198.024 103.636 197.808 104.548 197.808C105.956 197.808 107.076 198.24 107.908 199.104C108.756 199.952 109.18 201.264 109.18 203.04V210H107.164V203.256C107.164 200.776 106.14 199.536 104.092 199.536C103.068 199.536 102.212 199.912 101.524 200.664C100.852 201.4 100.516 202.456 100.516 203.832V210H98.4998ZM116.938 206.256C116.266 206.256 115.65 206.168 115.09 205.992L113.89 207.12C114.066 207.248 114.282 207.36 114.538 207.456C114.81 207.536 115.194 207.616 115.69 207.696C116.186 207.76 116.882 207.832 117.778 207.912C119.378 208.024 120.522 208.392 121.21 209.016C121.898 209.64 122.242 210.456 122.242 211.464C122.242 212.152 122.05 212.808 121.666 213.432C121.298 214.056 120.722 214.568 119.938 214.968C119.17 215.368 118.178 215.568 116.962 215.568C115.89 215.568 114.938 215.424 114.106 215.136C113.274 214.864 112.626 214.44 112.162 213.864C111.698 213.304 111.466 212.592 111.466 211.728C111.466 211.28 111.586 210.792 111.826 210.264C112.066 209.752 112.514 209.264 113.17 208.8C112.818 208.656 112.514 208.504 112.258 208.344C112.018 208.168 111.794 207.976 111.586 207.768V207.216L113.626 205.2C112.682 204.4 112.21 203.344 112.21 202.032C112.21 201.248 112.394 200.536 112.762 199.896C113.13 199.256 113.666 198.752 114.37 198.384C115.074 198 115.93 197.808 116.938 197.808C117.626 197.808 118.25 197.904 118.81 198.096H123.202V199.608L120.97 199.704C121.434 200.376 121.666 201.152 121.666 202.032C121.666 202.816 121.474 203.528 121.09 204.168C120.722 204.808 120.186 205.32 119.482 205.704C118.794 206.072 117.946 206.256 116.938 206.256ZM116.938 204.6C117.786 204.6 118.458 204.384 118.954 203.952C119.466 203.504 119.722 202.864 119.722 202.032C119.722 201.216 119.466 200.592 118.954 200.16C118.458 199.712 117.786 199.488 116.938 199.488C116.074 199.488 115.386 199.712 114.874 200.16C114.378 200.592 114.13 201.216 114.13 202.032C114.13 202.864 114.378 203.504 114.874 203.952C115.386 204.384 116.074 204.6 116.938 204.6ZM113.434 211.536C113.434 212.336 113.77 212.928 114.442 213.312C115.114 213.712 115.954 213.912 116.962 213.912C117.954 213.912 118.746 213.696 119.338 213.264C119.946 212.832 120.25 212.256 120.25 211.536C120.25 211.024 120.042 210.576 119.626 210.192C119.21 209.824 118.442 209.608 117.322 209.544C116.442 209.48 115.682 209.4 115.042 209.304C114.386 209.656 113.954 210.032 113.746 210.432C113.538 210.848 113.434 211.216 113.434 211.536ZM129.436 210.288C128.444 210.288 127.62 210.12 126.964 209.784C126.308 209.448 125.82 209 125.5 208.44C125.18 207.88 125.02 207.272 125.02 206.616C125.02 205.4 125.484 204.464 126.412 203.808C127.34 203.152 128.604 202.824 130.204 202.824H133.42V202.68C133.42 201.64 133.148 200.856 132.604 200.328C132.06 199.784 131.332 199.512 130.42 199.512C129.636 199.512 128.956 199.712 128.38 200.112C127.82 200.496 127.468 201.064 127.324 201.816H125.26C125.34 200.952 125.628 200.224 126.124 199.632C126.636 199.04 127.268 198.592 128.02 198.288C128.772 197.968 129.572 197.808 130.42 197.808C132.084 197.808 133.332 198.256 134.164 199.152C135.012 200.032 135.436 201.208 135.436 202.68V210H133.636L133.516 207.864C133.18 208.536 132.684 209.112 132.028 209.592C131.388 210.056 130.524 210.288 129.436 210.288ZM129.748 208.584C130.516 208.584 131.172 208.384 131.716 207.984C132.276 207.584 132.7 207.064 132.988 206.424C133.276 205.784 133.42 205.112 133.42 204.408V204.384H130.372C129.188 204.384 128.348 204.592 127.852 205.008C127.372 205.408 127.132 205.912 127.132 206.52C127.132 207.144 127.356 207.648 127.804 208.032C128.268 208.4 128.916 208.584 129.748 208.584ZM143.165 206.256C142.493 206.256 141.877 206.168 141.317 205.992L140.117 207.12C140.293 207.248 140.509 207.36 140.765 207.456C141.037 207.536 141.421 207.616 141.917 207.696C142.413 207.76 143.109 207.832 144.005 207.912C145.605 208.024 146.749 208.392 147.437 209.016C148.125 209.64 148.469 210.456 148.469 211.464C148.469 212.152 148.277 212.808 147.893 213.432C147.525 214.056 146.949 214.568 146.165 214.968C145.397 215.368 144.405 215.568 143.189 215.568C142.117 215.568 141.165 215.424 140.333 215.136C139.501 214.864 138.853 214.44 138.389 213.864C137.925 213.304 137.693 212.592 137.693 211.728C137.693 211.28 137.813 210.792 138.053 210.264C138.293 209.752 138.741 209.264 139.397 208.8C139.045 208.656 138.741 208.504 138.485 208.344C138.245 208.168 138.021 207.976 137.813 207.768V207.216L139.853 205.2C138.909 204.4 138.437 203.344 138.437 202.032C138.437 201.248 138.621 200.536 138.989 199.896C139.357 199.256 139.893 198.752 140.597 198.384C141.301 198 142.157 197.808 143.165 197.808C143.853 197.808 144.477 197.904 145.037 198.096H149.429V199.608L147.197 199.704C147.661 200.376 147.893 201.152 147.893 202.032C147.893 202.816 147.701 203.528 147.317 204.168C146.949 204.808 146.413 205.32 145.709 205.704C145.021 206.072 144.173 206.256 143.165 206.256ZM143.165 204.6C144.013 204.6 144.685 204.384 145.181 203.952C145.693 203.504 145.949 202.864 145.949 202.032C145.949 201.216 145.693 200.592 145.181 200.16C144.685 199.712 144.013 199.488 143.165 199.488C142.301 199.488 141.613 199.712 141.101 200.16C140.605 200.592 140.357 201.216 140.357 202.032C140.357 202.864 140.605 203.504 141.101 203.952C141.613 204.384 142.301 204.6 143.165 204.6ZM139.661 211.536C139.661 212.336 139.997 212.928 140.669 213.312C141.341 213.712 142.181 213.912 143.189 213.912C144.181 213.912 144.973 213.696 145.565 213.264C146.173 212.832 146.477 212.256 146.477 211.536C146.477 211.024 146.269 210.576 145.853 210.192C145.437 209.824 144.669 209.608 143.549 209.544C142.669 209.48 141.909 209.4 141.269 209.304C140.613 209.656 140.181 210.032 139.973 210.432C139.765 210.848 139.661 211.216 139.661 211.536ZM156.586 210.288C155.45 210.288 154.442 210.032 153.562 209.52C152.682 208.992 151.986 208.264 151.474 207.336C150.978 206.408 150.73 205.312 150.73 204.048C150.73 202.8 150.978 201.712 151.474 200.784C151.97 199.84 152.658 199.112 153.538 198.6C154.434 198.072 155.466 197.808 156.634 197.808C157.786 197.808 158.778 198.072 159.61 198.6C160.458 199.112 161.106 199.792 161.554 200.64C162.002 201.488 162.226 202.4 162.226 203.376C162.226 203.552 162.218 203.728 162.202 203.904C162.202 204.08 162.202 204.28 162.202 204.504H152.722C152.77 205.416 152.978 206.176 153.346 206.784C153.73 207.376 154.202 207.824 154.762 208.128C155.338 208.432 155.946 208.584 156.586 208.584C157.418 208.584 158.114 208.392 158.674 208.008C159.234 207.624 159.642 207.104 159.898 206.448H161.89C161.57 207.552 160.954 208.472 160.042 209.208C159.146 209.928 157.994 210.288 156.586 210.288ZM156.586 199.512C155.626 199.512 154.77 199.808 154.018 200.4C153.282 200.976 152.858 201.824 152.746 202.944H160.234C160.186 201.872 159.818 201.032 159.13 200.424C158.442 199.816 157.594 199.512 156.586 199.512ZM156.034 197.112V195.6L161.074 192.552V194.304L156.034 197.112ZM170.25 210.288C169.114 210.288 168.106 210.032 167.226 209.52C166.346 208.992 165.65 208.264 165.138 207.336C164.642 206.408 164.394 205.312 164.394 204.048C164.394 202.8 164.642 201.712 165.138 200.784C165.634 199.84 166.322 199.112 167.202 198.6C168.098 198.072 169.13 197.808 170.298 197.808C171.45 197.808 172.442 198.072 173.274 198.6C174.122 199.112 174.77 199.792 175.218 200.64C175.666 201.488 175.89 202.4 175.89 203.376C175.89 203.552 175.882 203.728 175.866 203.904C175.866 204.08 175.866 204.28 175.866 204.504H166.386C166.434 205.416 166.642 206.176 167.01 206.784C167.394 207.376 167.866 207.824 168.426 208.128C169.002 208.432 169.61 208.584 170.25 208.584C171.082 208.584 171.778 208.392 172.338 208.008C172.898 207.624 173.306 207.104 173.562 206.448H175.554C175.234 207.552 174.618 208.472 173.706 209.208C172.81 209.928 171.658 210.288 170.25 210.288ZM170.25 199.512C169.29 199.512 168.434 199.808 167.682 200.4C166.946 200.976 166.522 201.824 166.41 202.944H173.898C173.85 201.872 173.482 201.032 172.794 200.424C172.106 199.816 171.258 199.512 170.25 199.512Z" fill="black"/>
<defs>
<linearGradient id="paint0_linear_206_159" x1="92.5" y1="0" x2="92.5" y2="152" gradientUnits="userSpaceOnUse">
<stop stop-color="#3A73B7"/>
<stop offset="1" stop-color="#60BCB4"/>
</linearGradient>
</defs>
</svg>
