<svg width="20" height="21" viewBox="0 0 20 21" fill="none" xmlns="http://www.w3.org/2000/svg">
<g clip-path="url(#clip0_1196_1434)">
<path d="M19.8032 10.6633C19.8032 5.1948 15.3701 0.761719 9.90158 0.761719C4.43308 0.761719 0 5.1948 0 10.6633C0 15.6054 3.62084 19.7018 8.35446 20.4446V13.5255H5.84038V10.6633H8.35446V8.48185C8.35446 6.00027 9.83273 4.62952 12.0944 4.62952C13.1774 4.62952 14.3109 4.82291 14.3109 4.82291V7.25963H13.0623C11.8324 7.25963 11.4487 8.02294 11.4487 8.80675V10.6633H14.1948L13.7558 13.5255H11.4487V20.4446C16.1823 19.7018 19.8032 15.6054 19.8032 10.6633Z" fill="#2171CF"/>
</g>
<defs>
<clipPath id="clip0_1196_1434">
<rect width="19.8032" height="19.8032" fill="white" transform="translate(0 0.761719)"/>
</clipPath>
</defs>
</svg>
