<svg width="1060" height="104" viewBox="0 0 1060 104" fill="none" xmlns="http://www.w3.org/2000/svg">
<path d="M836.254 39.8921C831.043 39.8921 826.804 44.1315 826.804 49.3423C826.804 55.8918 836.263 67.0796 836.263 67.0796C836.263 67.0796 845.704 55.5697 845.704 49.3423C845.704 44.1315 841.465 39.8921 836.254 39.8921ZM839.105 52.1094C838.319 52.8954 837.287 53.2885 836.254 53.2885C835.221 53.2885 834.189 52.8954 833.403 52.1094C831.831 50.5373 831.831 47.9791 833.403 46.4069C834.164 45.6452 835.177 45.2257 836.254 45.2257C837.331 45.2257 838.344 45.6454 839.105 46.4069C840.678 47.9791 840.678 50.5373 839.105 52.1094Z" fill="black"/>
<g clip-path="url(#clip0_797_3202)">
<path d="M410.076 52.3489C411.104 51.3208 411.104 49.6481 410.076 48.62L406.46 45.0043C405.907 44.4512 405.14 44.171 404.357 44.2354C403.589 44.2986 402.895 44.6902 402.451 45.3095C402.359 45.4381 402.271 45.5685 402.184 45.7L409.454 52.9705L410.076 52.3489Z" fill="black"/>
<path d="M424.995 63.5394L421.38 59.9238C420.352 58.8958 418.679 58.8957 417.651 59.9238L417.029 60.5454L424.3 67.8162C424.432 67.7292 424.562 67.64 424.69 67.5481C425.31 67.1049 425.701 66.4102 425.764 65.6422C425.829 64.8591 425.549 64.0926 424.995 63.5394Z" fill="black"/>
<path d="M414.544 61.939C413.839 61.939 413.177 61.6648 412.679 61.1668L408.833 57.3207C408.335 56.8227 408.061 56.1605 408.061 55.4562C408.061 55.0561 408.15 54.6698 408.317 54.3193L401.286 47.2878C400.297 49.3646 399.859 51.6913 400.04 54.0267C400.283 57.1738 401.64 60.1301 403.861 62.3511L407.649 66.1386C409.87 68.3596 412.826 69.7168 415.973 69.9602C416.317 69.9868 416.661 70 417.004 70C418.988 70 420.941 69.5575 422.712 68.7141L415.681 61.6826C415.33 61.8503 414.944 61.939 414.544 61.939Z" fill="black"/>
<path d="M417.695 40C417.21 40 416.816 40.3935 416.816 40.8789C416.816 41.3643 417.21 41.7578 417.695 41.7578C423.511 41.7578 428.242 46.4891 428.242 52.3047C428.242 52.7901 428.636 53.1836 429.121 53.1836C429.606 53.1836 430 52.7901 430 52.3047C430 45.5199 424.48 40 417.695 40Z" fill="black"/>
<path d="M417.695 52.3039C417.695 52.3039 417.695 52.3042 417.695 52.3047C417.695 52.7901 418.089 53.1836 418.574 53.1836C419.06 53.1836 419.453 52.7901 419.453 52.3047C419.453 51.3354 418.665 50.5469 417.695 50.5469C417.21 50.5469 416.816 50.94 416.816 51.4254C416.816 51.9108 417.21 52.3039 417.695 52.3039Z" fill="black"/>
<path d="M417.695 48.7891C419.634 48.7891 421.211 50.3662 421.211 52.3047C421.211 52.7901 421.604 53.1836 422.09 53.1836C422.575 53.1836 422.969 52.7901 422.969 52.3047C422.969 49.3969 420.603 47.0312 417.695 47.0312C417.21 47.0312 416.816 47.4248 416.816 47.9102C416.816 48.3955 417.21 48.7891 417.695 48.7891Z" fill="black"/>
<path d="M417.695 43.5156C417.21 43.5156 416.816 43.9091 416.816 44.3945C416.816 44.8799 417.21 45.2734 417.695 45.2734C421.572 45.2734 424.727 48.4277 424.727 52.3047C424.727 52.7901 425.12 53.1836 425.605 53.1836C426.091 53.1836 426.484 52.7901 426.484 52.3047C426.484 47.4584 422.542 43.5156 417.695 43.5156Z" fill="black"/>
</g>
<g filter="url(#filter0_d_797_3202)">
<circle cx="31" cy="69" r="17" fill="white"/>
</g>
<g clip-path="url(#clip1_797_3202)">
<path d="M32.9987 64.9925H34.0942V63.0845C33.9052 63.0585 33.2552 63 32.4982 63C30.9187 63 29.8367 63.9935 29.8367 65.8195V67.5H28.0938V69.633H29.8367V75H31.9737V69.6335H33.6462L33.9117 67.5005H31.9732V66.031C31.9737 65.4145 32.1397 64.9925 32.9987 64.9925Z" fill="black"/>
</g>
<g filter="url(#filter1_d_797_3202)">
<circle cx="81" cy="69" r="17" fill="white"/>
</g>
<g clip-path="url(#clip2_797_3202)">
<path d="M84.481 62H78.519C76.5786 62 75 63.5786 75 65.519V71.4811C75 73.4214 76.5786 75 78.519 75H84.4811C86.4214 75 88 73.4214 88 71.4811V65.519C88 63.5786 86.4214 62 84.481 62V62ZM87.2379 71.4811C87.2379 73.0012 86.0012 74.2379 84.481 74.2379H78.519C76.9988 74.2379 75.7621 73.0012 75.7621 71.4811V65.519C75.7621 63.9988 76.9988 62.7621 78.519 62.7621H84.4811C86.0012 62.7621 87.2379 63.9988 87.2379 65.519V71.4811Z" fill="black"/>
<path d="M81.4999 64.9454C79.5399 64.9454 77.9453 66.54 77.9453 68.5C77.9453 70.46 79.5399 72.0546 81.4999 72.0546C83.4599 72.0546 85.0545 70.46 85.0545 68.5C85.0545 66.54 83.4599 64.9454 81.4999 64.9454ZM81.4999 71.2925C79.9602 71.2925 78.7074 70.0398 78.7074 68.5C78.7074 66.9603 79.9602 65.7075 81.4999 65.7075C83.0397 65.7075 84.2924 66.9603 84.2924 68.5C84.2924 70.0398 83.0397 71.2925 81.4999 71.2925Z" fill="black"/>
<path d="M85.1392 63.683C84.56 63.683 84.0889 64.1543 84.0889 64.7334C84.0889 65.3126 84.56 65.7838 85.1392 65.7838C85.7184 65.7838 86.1896 65.3126 86.1896 64.7334C86.1896 64.1542 85.7184 63.683 85.1392 63.683ZM85.1392 65.0216C84.9803 65.0216 84.851 64.8923 84.851 64.7334C84.851 64.5744 84.9803 64.4452 85.1392 64.4452C85.2982 64.4452 85.4275 64.5744 85.4275 64.7334C85.4275 64.8923 85.2982 65.0216 85.1392 65.0216Z" fill="black"/>
</g>
<g filter="url(#filter2_d_797_3202)">
<circle cx="131" cy="69" r="17" fill="white"/>
</g>
<g clip-path="url(#clip3_797_3202)">
<path d="M137 65.4692C136.517 65.6812 136.001 65.8218 135.464 65.8901C136.017 65.5602 136.439 65.0418 136.637 64.417C136.122 64.7241 135.553 64.9411 134.947 65.0621C134.458 64.5413 133.761 64.2188 133 64.2188C131.525 64.2188 130.337 65.4164 130.337 66.8846C130.337 67.0958 130.355 67.2989 130.398 67.4923C128.183 67.3842 126.222 66.3223 124.905 64.7046C124.675 65.1036 124.54 65.5602 124.54 66.0518C124.54 66.9748 125.016 67.7929 125.724 68.2666C125.296 68.2585 124.876 68.1342 124.52 67.9384C124.52 67.9465 124.52 67.9571 124.52 67.9676C124.52 69.2627 125.444 70.3385 126.655 70.5863C126.438 70.6456 126.202 70.6741 125.957 70.6741C125.786 70.6741 125.614 70.6643 125.452 70.6286C125.797 71.684 126.777 72.4599 127.942 72.4851C127.036 73.1944 125.884 73.6218 124.638 73.6218C124.419 73.6218 124.21 73.6121 124 73.5852C125.181 74.3466 126.58 74.7812 128.089 74.7812C132.993 74.7812 135.674 70.7188 135.674 67.1974C135.674 67.0796 135.67 66.9658 135.664 66.8529C136.193 66.4775 136.638 66.0087 137 65.4692Z" fill="black"/>
</g>
<g filter="url(#filter3_d_797_3202)">
<circle cx="181" cy="69" r="17" fill="white"/>
</g>
<g clip-path="url(#clip4_797_3202)">
<path d="M185.997 74V73.9996H186V69.9653C186 67.9917 185.575 66.4714 183.268 66.4714C182.159 66.4714 181.414 67.0801 181.11 67.6571H181.078V66.6557H178.891V73.9996H181.169V70.3631C181.169 69.4057 181.35 68.4799 182.536 68.4799C183.704 68.4799 183.721 69.5725 183.721 70.4246V74H185.997Z" fill="black"/>
<path d="M175.182 66.6561H177.462V74H175.182V66.6561Z" fill="black"/>
<path d="M176.321 63C175.592 63 175 63.5917 175 64.3209C175 65.0501 175.592 65.6542 176.321 65.6542C177.05 65.6542 177.642 65.0501 177.642 64.3209C177.641 63.5917 177.05 63 176.321 63V63Z" fill="black"/>
</g>
<path d="M18.768 25.112C18.032 25.112 17.3707 24.984 16.784 24.728C16.208 24.4613 15.7547 24.0987 15.424 23.64C15.0933 23.1707 14.9227 22.632 14.912 22.024H16.464C16.5173 22.5467 16.7307 22.9893 17.104 23.352C17.488 23.704 18.0427 23.88 18.768 23.88C19.4613 23.88 20.0053 23.7093 20.4 23.368C20.8053 23.016 21.008 22.568 21.008 22.024C21.008 21.5973 20.8907 21.2507 20.656 20.984C20.4213 20.7173 20.128 20.5147 19.776 20.376C19.424 20.2373 18.9493 20.088 18.352 19.928C17.616 19.736 17.024 19.544 16.576 19.352C16.1387 19.16 15.76 18.8613 15.44 18.456C15.1307 18.04 14.976 17.4853 14.976 16.792C14.976 16.184 15.1307 15.6453 15.44 15.176C15.7493 14.7067 16.1813 14.344 16.736 14.088C17.3013 13.832 17.9467 13.704 18.672 13.704C19.7173 13.704 20.5707 13.9653 21.232 14.488C21.904 15.0107 22.2827 15.704 22.368 16.568H20.768C20.7147 16.1413 20.4907 15.768 20.096 15.448C19.7013 15.1173 19.1787 14.952 18.528 14.952C17.92 14.952 17.424 15.112 17.04 15.432C16.656 15.7413 16.464 16.1787 16.464 16.744C16.464 17.1493 16.576 17.48 16.8 17.736C17.0347 17.992 17.3173 18.1893 17.648 18.328C17.9893 18.456 18.464 18.6053 19.072 18.776C19.808 18.9787 20.4 19.1813 20.848 19.384C21.296 19.576 21.68 19.88 22 20.296C22.32 20.7013 22.48 21.256 22.48 21.96C22.48 22.504 22.336 23.016 22.048 23.496C21.76 23.976 21.3333 24.3653 20.768 24.664C20.2027 24.9627 19.536 25.112 18.768 25.112ZM32.3986 16.232V25H30.9426V23.704C30.6653 24.152 30.276 24.504 29.7746 24.76C29.284 25.0053 28.74 25.128 28.1426 25.128C27.46 25.128 26.8466 24.9893 26.3026 24.712C25.7586 24.424 25.3266 23.9973 25.0066 23.432C24.6973 22.8667 24.5426 22.1787 24.5426 21.368V16.232H25.9826V21.176C25.9826 22.04 26.2013 22.7067 26.6386 23.176C27.076 23.6347 27.6733 23.864 28.4306 23.864C29.2093 23.864 29.8226 23.624 30.2706 23.144C30.7186 22.664 30.9426 21.9653 30.9426 21.048V16.232H32.3986ZM35.609 14.808C35.3317 14.808 35.097 14.712 34.905 14.52C34.713 14.328 34.617 14.0933 34.617 13.816C34.617 13.5387 34.713 13.304 34.905 13.112C35.097 12.92 35.3317 12.824 35.609 12.824C35.8757 12.824 36.0997 12.92 36.281 13.112C36.473 13.304 36.569 13.5387 36.569 13.816C36.569 14.0933 36.473 14.328 36.281 14.52C36.0997 14.712 35.8757 14.808 35.609 14.808ZM36.313 16.232V25H34.857V16.232H36.313ZM42.0585 23.656L44.7785 16.232H46.3305L42.8905 25H41.1945L37.7545 16.232H39.3225L42.0585 23.656ZM55.7633 20.28C55.7633 20.5573 55.7473 20.8507 55.7153 21.16H48.7073C48.7606 22.024 49.0539 22.7013 49.5873 23.192C50.1313 23.672 50.7873 23.912 51.5553 23.912C52.1846 23.912 52.7073 23.768 53.1233 23.48C53.5499 23.1813 53.8486 22.7867 54.0193 22.296H55.5873C55.3526 23.1387 54.8833 23.8267 54.1793 24.36C53.4753 24.8827 52.6006 25.144 51.5553 25.144C50.7233 25.144 49.9766 24.9573 49.3153 24.584C48.6646 24.2107 48.1526 23.6827 47.7793 23C47.4059 22.3067 47.2193 21.5067 47.2193 20.6C47.2193 19.6933 47.4006 18.8987 47.7633 18.216C48.1259 17.5333 48.6326 17.0107 49.2833 16.648C49.9446 16.2747 50.7019 16.088 51.5553 16.088C52.3873 16.088 53.1233 16.2693 53.7633 16.632C54.4033 16.9947 54.8939 17.496 55.2353 18.136C55.5873 18.7653 55.7633 19.48 55.7633 20.28ZM54.2593 19.976C54.2593 19.4213 54.1366 18.9467 53.8913 18.552C53.6459 18.1467 53.3099 17.8427 52.8833 17.64C52.4673 17.4267 52.0033 17.32 51.4913 17.32C50.7553 17.32 50.1259 17.5547 49.6033 18.024C49.0913 18.4933 48.7979 19.144 48.7233 19.976H54.2593ZM58.7731 23.8H63.0771V25H57.1091V23.8L61.3651 17.416H57.1411V16.232H63.0451V17.416L58.7731 23.8ZM71.0464 18.52V19.752H64.6624V18.52H71.0464ZM78.0509 16.072C79.1175 16.072 79.9815 16.3973 80.6429 17.048C81.3042 17.688 81.6349 18.616 81.6349 19.832V25H80.1949V20.04C80.1949 19.1653 79.9762 18.4987 79.5389 18.04C79.1015 17.5707 78.5042 17.336 77.7469 17.336C76.9789 17.336 76.3655 17.576 75.9069 18.056C75.4589 18.536 75.2349 19.2347 75.2349 20.152V25H73.7789V16.232H75.2349V17.48C75.5229 17.032 75.9122 16.6853 76.4029 16.44C76.9042 16.1947 77.4535 16.072 78.0509 16.072ZM87.8373 25.144C87.0159 25.144 86.2693 24.9573 85.5973 24.584C84.9359 24.2107 84.4133 23.6827 84.0293 23C83.6559 22.3067 83.4693 21.5067 83.4693 20.6C83.4693 19.704 83.6613 18.9147 84.0453 18.232C84.4399 17.5387 84.9733 17.0107 85.6453 16.648C86.3173 16.2747 87.0693 16.088 87.9013 16.088C88.7333 16.088 89.4853 16.2747 90.1573 16.648C90.8293 17.0107 91.3573 17.5333 91.7413 18.216C92.1359 18.8987 92.3333 19.6933 92.3333 20.6C92.3333 21.5067 92.1306 22.3067 91.7253 23C91.3306 23.6827 90.7919 24.2107 90.1093 24.584C89.4266 24.9573 88.6693 25.144 87.8373 25.144ZM87.8373 23.864C88.3599 23.864 88.8506 23.7413 89.3093 23.496C89.7679 23.2507 90.1359 22.8827 90.4133 22.392C90.7013 21.9013 90.8453 21.304 90.8453 20.6C90.8453 19.896 90.7066 19.2987 90.4293 18.808C90.1519 18.3173 89.7893 17.9547 89.3413 17.72C88.8933 17.4747 88.4079 17.352 87.8853 17.352C87.3519 17.352 86.8613 17.4747 86.4133 17.72C85.9759 17.9547 85.6239 18.3173 85.3573 18.808C85.0906 19.2987 84.9573 19.896 84.9573 20.6C84.9573 21.3147 85.0853 21.9173 85.3413 22.408C85.6079 22.8987 85.9599 23.2667 86.3973 23.512C86.8346 23.7467 87.3146 23.864 87.8373 23.864ZM102.024 16.232V25H100.568V23.704C100.29 24.152 99.901 24.504 99.3996 24.76C98.909 25.0053 98.365 25.128 97.7676 25.128C97.085 25.128 96.4716 24.9893 95.9276 24.712C95.3836 24.424 94.9516 23.9973 94.6316 23.432C94.3223 22.8667 94.1676 22.1787 94.1676 21.368V16.232H95.6076V21.176C95.6076 22.04 95.8263 22.7067 96.2636 23.176C96.701 23.6347 97.2983 23.864 98.0556 23.864C98.8343 23.864 99.4476 23.624 99.8956 23.144C100.344 22.664 100.568 21.9653 100.568 21.048V16.232H102.024ZM107.586 25.144C106.914 25.144 106.311 25.032 105.778 24.808C105.245 24.5733 104.823 24.2533 104.514 23.848C104.205 23.432 104.034 22.9573 104.002 22.424H105.506C105.549 22.8613 105.751 23.2187 106.114 23.496C106.487 23.7733 106.973 23.912 107.57 23.912C108.125 23.912 108.562 23.7893 108.882 23.544C109.202 23.2987 109.362 22.9893 109.362 22.616C109.362 22.232 109.191 21.9493 108.85 21.768C108.509 21.576 107.981 21.3893 107.266 21.208C106.615 21.0373 106.082 20.8667 105.666 20.696C105.261 20.5147 104.909 20.2533 104.61 19.912C104.322 19.56 104.178 19.1013 104.178 18.536C104.178 18.088 104.311 17.6773 104.578 17.304C104.845 16.9307 105.223 16.6373 105.714 16.424C106.205 16.2 106.765 16.088 107.394 16.088C108.365 16.088 109.149 16.3333 109.746 16.824C110.343 17.3147 110.663 17.9867 110.706 18.84H109.25C109.218 18.3813 109.031 18.0133 108.69 17.736C108.359 17.4587 107.911 17.32 107.346 17.32C106.823 17.32 106.407 17.432 106.098 17.656C105.789 17.88 105.634 18.1733 105.634 18.536C105.634 18.824 105.725 19.064 105.906 19.256C106.098 19.4373 106.333 19.5867 106.61 19.704C106.898 19.8107 107.293 19.9333 107.794 20.072C108.423 20.2427 108.935 20.4133 109.33 20.584C109.725 20.744 110.061 20.9893 110.338 21.32C110.626 21.6507 110.775 22.0827 110.786 22.616C110.786 23.096 110.653 23.528 110.386 23.912C110.119 24.296 109.741 24.6 109.25 24.824C108.77 25.0373 108.215 25.144 107.586 25.144Z" fill="black"/>
<line x1="295.5" x2="295.5" y2="102.005" stroke="#C2C2C2"/>
<line x1="730.5" x2="730.5" y2="102.005" stroke="#C2C2C2"/>
<path d="M867.776 62V45.2H873.68C874.864 45.2 875.84 45.392 876.608 45.776C877.392 46.144 877.976 46.656 878.36 47.312C878.744 47.952 878.936 48.672 878.936 49.472C878.936 50.56 878.64 51.416 878.048 52.04C877.472 52.664 876.776 53.096 875.96 53.336C876.584 53.448 877.152 53.696 877.664 54.08C878.176 54.464 878.576 54.944 878.864 55.52C879.168 56.096 879.32 56.728 879.32 57.416C879.32 58.264 879.112 59.04 878.696 59.744C878.28 60.432 877.664 60.984 876.848 61.4C876.032 61.8 875.04 62 873.872 62H867.776ZM869.792 52.544H873.536C874.608 52.544 875.432 52.296 876.008 51.8C876.584 51.288 876.872 50.584 876.872 49.688C876.872 48.84 876.584 48.16 876.008 47.648C875.448 47.136 874.6 46.88 873.464 46.88H869.792V52.544ZM869.792 60.32H873.656C874.808 60.32 875.696 60.056 876.32 59.528C876.944 58.984 877.256 58.232 877.256 57.272C877.256 56.328 876.928 55.576 876.272 55.016C875.616 54.44 874.728 54.152 873.608 54.152H869.792V60.32ZM882.214 62V45.2H892.606V46.856H884.23V52.712H891.886V54.344H884.23V60.344H892.606V62H882.214ZM895.76 62V45.2H897.776L906.728 58.664V45.2H908.744V62H906.728L897.776 48.536V62H895.76ZM912.307 62V45.2H914.323V62H912.307ZM917.885 62V45.2H919.901L928.853 58.664V45.2H930.869V62H928.853L919.901 48.536V62H917.885ZM932.704 64.856L934.096 59.552H936.184L934.096 64.856H932.704ZM952.417 62.288C950.769 62.288 949.345 61.928 948.145 61.208C946.961 60.472 946.041 59.456 945.385 58.16C944.729 56.848 944.401 55.328 944.401 53.6C944.401 51.888 944.729 50.384 945.385 49.088C946.041 47.776 946.961 46.752 948.145 46.016C949.345 45.28 950.769 44.912 952.417 44.912C954.337 44.912 955.897 45.376 957.097 46.304C958.313 47.216 959.089 48.496 959.425 50.144H957.193C956.937 49.104 956.409 48.272 955.609 47.648C954.825 47.008 953.761 46.688 952.417 46.688C951.217 46.688 950.169 46.968 949.273 47.528C948.377 48.072 947.681 48.864 947.185 49.904C946.705 50.928 946.465 52.16 946.465 53.6C946.465 55.04 946.705 56.28 947.185 57.32C947.681 58.344 948.377 59.136 949.273 59.696C950.169 60.24 951.217 60.512 952.417 60.512C953.761 60.512 954.825 60.208 955.609 59.6C956.409 58.976 956.937 58.152 957.193 57.128H959.425C959.089 58.744 958.313 60.008 957.097 60.92C955.897 61.832 954.337 62.288 952.417 62.288ZM967.627 62.288C966.507 62.288 965.499 62.032 964.603 61.52C963.707 61.008 962.995 60.288 962.467 59.36C961.955 58.416 961.699 57.312 961.699 56.048C961.699 54.784 961.963 53.688 962.491 52.76C963.019 51.816 963.731 51.088 964.627 50.576C965.539 50.064 966.555 49.808 967.675 49.808C968.795 49.808 969.803 50.064 970.699 50.576C971.595 51.088 972.299 51.816 972.811 52.76C973.339 53.688 973.603 54.784 973.603 56.048C973.603 57.312 973.339 58.416 972.811 59.36C972.283 60.288 971.563 61.008 970.651 61.52C969.755 62.032 968.747 62.288 967.627 62.288ZM967.627 60.56C968.315 60.56 968.955 60.392 969.547 60.056C970.139 59.72 970.619 59.216 970.987 58.544C971.355 57.872 971.539 57.04 971.539 56.048C971.539 55.056 971.355 54.224 970.987 53.552C970.635 52.88 970.163 52.376 969.571 52.04C968.979 51.704 968.347 51.536 967.675 51.536C966.987 51.536 966.347 51.704 965.755 52.04C965.163 52.376 964.683 52.88 964.315 53.552C963.947 54.224 963.763 55.056 963.763 56.048C963.763 57.04 963.947 57.872 964.315 58.544C964.683 59.216 965.155 59.72 965.731 60.056C966.323 60.392 966.955 60.56 967.627 60.56ZM980.641 62C979.553 62 978.697 61.736 978.073 61.208C977.449 60.68 977.137 59.728 977.137 58.352V51.8H975.073V50.096H977.137L977.401 47.24H979.153V50.096H982.657V51.8H979.153V58.352C979.153 59.104 979.305 59.616 979.609 59.888C979.913 60.144 980.449 60.272 981.217 60.272H982.465V62H980.641ZM990.314 62.288C989.194 62.288 988.186 62.032 987.29 61.52C986.394 61.008 985.682 60.288 985.154 59.36C984.642 58.416 984.386 57.312 984.386 56.048C984.386 54.784 984.65 53.688 985.178 52.76C985.706 51.816 986.418 51.088 987.314 50.576C988.226 50.064 989.242 49.808 990.362 49.808C991.482 49.808 992.49 50.064 993.386 50.576C994.282 51.088 994.986 51.816 995.498 52.76C996.026 53.688 996.29 54.784 996.29 56.048C996.29 57.312 996.026 58.416 995.498 59.36C994.97 60.288 994.25 61.008 993.338 61.52C992.442 62.032 991.434 62.288 990.314 62.288ZM990.314 60.56C991.002 60.56 991.642 60.392 992.234 60.056C992.826 59.72 993.306 59.216 993.674 58.544C994.042 57.872 994.226 57.04 994.226 56.048C994.226 55.056 994.042 54.224 993.674 53.552C993.322 52.88 992.85 52.376 992.258 52.04C991.666 51.704 991.034 51.536 990.362 51.536C989.674 51.536 989.034 51.704 988.442 52.04C987.85 52.376 987.37 52.88 987.002 53.552C986.634 54.224 986.45 55.056 986.45 56.048C986.45 57.04 986.634 57.872 987.002 58.544C987.37 59.216 987.842 59.72 988.418 60.056C989.01 60.392 989.642 60.56 990.314 60.56ZM999.094 62V50.096H1000.92L1001.04 52.232C1001.42 51.48 1001.97 50.888 1002.69 50.456C1003.41 50.024 1004.23 49.808 1005.14 49.808C1006.55 49.808 1007.67 50.24 1008.5 51.104C1009.35 51.952 1009.77 53.264 1009.77 55.04V62H1007.76V55.256C1007.76 52.776 1006.73 51.536 1004.69 51.536C1003.66 51.536 1002.81 51.912 1002.12 52.664C1001.45 53.4 1001.11 54.456 1001.11 55.832V62H999.094ZM1018.25 62.288C1017.13 62.288 1016.12 62.032 1015.23 61.52C1014.33 61.008 1013.62 60.288 1013.09 59.36C1012.58 58.416 1012.32 57.312 1012.32 56.048C1012.32 54.784 1012.59 53.688 1013.12 52.76C1013.64 51.816 1014.36 51.088 1015.25 50.576C1016.16 50.064 1017.18 49.808 1018.3 49.808C1019.42 49.808 1020.43 50.064 1021.32 50.576C1022.22 51.088 1022.92 51.816 1023.44 52.76C1023.96 53.688 1024.23 54.784 1024.23 56.048C1024.23 57.312 1023.96 58.416 1023.44 59.36C1022.91 60.288 1022.19 61.008 1021.28 61.52C1020.38 62.032 1019.37 62.288 1018.25 62.288ZM1018.25 60.56C1018.94 60.56 1019.58 60.392 1020.17 60.056C1020.76 59.72 1021.24 59.216 1021.61 58.544C1021.98 57.872 1022.16 57.04 1022.16 56.048C1022.16 55.056 1021.98 54.224 1021.61 53.552C1021.26 52.88 1020.79 52.376 1020.2 52.04C1019.6 51.704 1018.97 51.536 1018.3 51.536C1017.61 51.536 1016.97 51.704 1016.38 52.04C1015.79 52.376 1015.31 52.88 1014.94 53.552C1014.57 54.224 1014.39 55.056 1014.39 56.048C1014.39 57.04 1014.57 57.872 1014.94 58.544C1015.31 59.216 1015.78 59.72 1016.36 60.056C1016.95 60.392 1017.58 60.56 1018.25 60.56ZM1031.38 62.288C1029.97 62.288 1028.85 61.864 1028.02 61.016C1027.18 60.152 1026.77 58.832 1026.77 57.056V50.096H1028.78V56.84C1028.78 59.32 1029.8 60.56 1031.83 60.56C1032.87 60.56 1033.73 60.192 1034.4 59.456C1035.09 58.704 1035.43 57.64 1035.43 56.264V50.096H1037.45V62H1035.62L1035.48 59.864C1035.11 60.616 1034.56 61.208 1033.82 61.64C1033.1 62.072 1032.29 62.288 1031.38 62.288Z" fill="black"/>
<path d="M867.776 62V45.2H873.68C874.864 45.2 875.84 45.392 876.608 45.776C877.392 46.144 877.976 46.656 878.36 47.312C878.744 47.952 878.936 48.672 878.936 49.472C878.936 50.56 878.64 51.416 878.048 52.04C877.472 52.664 876.776 53.096 875.96 53.336C876.584 53.448 877.152 53.696 877.664 54.08C878.176 54.464 878.576 54.944 878.864 55.52C879.168 56.096 879.32 56.728 879.32 57.416C879.32 58.264 879.112 59.04 878.696 59.744C878.28 60.432 877.664 60.984 876.848 61.4C876.032 61.8 875.04 62 873.872 62H867.776ZM869.792 52.544H873.536C874.608 52.544 875.432 52.296 876.008 51.8C876.584 51.288 876.872 50.584 876.872 49.688C876.872 48.84 876.584 48.16 876.008 47.648C875.448 47.136 874.6 46.88 873.464 46.88H869.792V52.544ZM869.792 60.32H873.656C874.808 60.32 875.696 60.056 876.32 59.528C876.944 58.984 877.256 58.232 877.256 57.272C877.256 56.328 876.928 55.576 876.272 55.016C875.616 54.44 874.728 54.152 873.608 54.152H869.792V60.32ZM882.214 62V45.2H892.606V46.856H884.23V52.712H891.886V54.344H884.23V60.344H892.606V62H882.214ZM895.76 62V45.2H897.776L906.728 58.664V45.2H908.744V62H906.728L897.776 48.536V62H895.76ZM912.307 62V45.2H914.323V62H912.307ZM917.885 62V45.2H919.901L928.853 58.664V45.2H930.869V62H928.853L919.901 48.536V62H917.885ZM932.704 64.856L934.096 59.552H936.184L934.096 64.856H932.704ZM952.417 62.288C950.769 62.288 949.345 61.928 948.145 61.208C946.961 60.472 946.041 59.456 945.385 58.16C944.729 56.848 944.401 55.328 944.401 53.6C944.401 51.888 944.729 50.384 945.385 49.088C946.041 47.776 946.961 46.752 948.145 46.016C949.345 45.28 950.769 44.912 952.417 44.912C954.337 44.912 955.897 45.376 957.097 46.304C958.313 47.216 959.089 48.496 959.425 50.144H957.193C956.937 49.104 956.409 48.272 955.609 47.648C954.825 47.008 953.761 46.688 952.417 46.688C951.217 46.688 950.169 46.968 949.273 47.528C948.377 48.072 947.681 48.864 947.185 49.904C946.705 50.928 946.465 52.16 946.465 53.6C946.465 55.04 946.705 56.28 947.185 57.32C947.681 58.344 948.377 59.136 949.273 59.696C950.169 60.24 951.217 60.512 952.417 60.512C953.761 60.512 954.825 60.208 955.609 59.6C956.409 58.976 956.937 58.152 957.193 57.128H959.425C959.089 58.744 958.313 60.008 957.097 60.92C955.897 61.832 954.337 62.288 952.417 62.288ZM967.627 62.288C966.507 62.288 965.499 62.032 964.603 61.52C963.707 61.008 962.995 60.288 962.467 59.36C961.955 58.416 961.699 57.312 961.699 56.048C961.699 54.784 961.963 53.688 962.491 52.76C963.019 51.816 963.731 51.088 964.627 50.576C965.539 50.064 966.555 49.808 967.675 49.808C968.795 49.808 969.803 50.064 970.699 50.576C971.595 51.088 972.299 51.816 972.811 52.76C973.339 53.688 973.603 54.784 973.603 56.048C973.603 57.312 973.339 58.416 972.811 59.36C972.283 60.288 971.563 61.008 970.651 61.52C969.755 62.032 968.747 62.288 967.627 62.288ZM967.627 60.56C968.315 60.56 968.955 60.392 969.547 60.056C970.139 59.72 970.619 59.216 970.987 58.544C971.355 57.872 971.539 57.04 971.539 56.048C971.539 55.056 971.355 54.224 970.987 53.552C970.635 52.88 970.163 52.376 969.571 52.04C968.979 51.704 968.347 51.536 967.675 51.536C966.987 51.536 966.347 51.704 965.755 52.04C965.163 52.376 964.683 52.88 964.315 53.552C963.947 54.224 963.763 55.056 963.763 56.048C963.763 57.04 963.947 57.872 964.315 58.544C964.683 59.216 965.155 59.72 965.731 60.056C966.323 60.392 966.955 60.56 967.627 60.56ZM980.641 62C979.553 62 978.697 61.736 978.073 61.208C977.449 60.68 977.137 59.728 977.137 58.352V51.8H975.073V50.096H977.137L977.401 47.24H979.153V50.096H982.657V51.8H979.153V58.352C979.153 59.104 979.305 59.616 979.609 59.888C979.913 60.144 980.449 60.272 981.217 60.272H982.465V62H980.641ZM990.314 62.288C989.194 62.288 988.186 62.032 987.29 61.52C986.394 61.008 985.682 60.288 985.154 59.36C984.642 58.416 984.386 57.312 984.386 56.048C984.386 54.784 984.65 53.688 985.178 52.76C985.706 51.816 986.418 51.088 987.314 50.576C988.226 50.064 989.242 49.808 990.362 49.808C991.482 49.808 992.49 50.064 993.386 50.576C994.282 51.088 994.986 51.816 995.498 52.76C996.026 53.688 996.29 54.784 996.29 56.048C996.29 57.312 996.026 58.416 995.498 59.36C994.97 60.288 994.25 61.008 993.338 61.52C992.442 62.032 991.434 62.288 990.314 62.288ZM990.314 60.56C991.002 60.56 991.642 60.392 992.234 60.056C992.826 59.72 993.306 59.216 993.674 58.544C994.042 57.872 994.226 57.04 994.226 56.048C994.226 55.056 994.042 54.224 993.674 53.552C993.322 52.88 992.85 52.376 992.258 52.04C991.666 51.704 991.034 51.536 990.362 51.536C989.674 51.536 989.034 51.704 988.442 52.04C987.85 52.376 987.37 52.88 987.002 53.552C986.634 54.224 986.45 55.056 986.45 56.048C986.45 57.04 986.634 57.872 987.002 58.544C987.37 59.216 987.842 59.72 988.418 60.056C989.01 60.392 989.642 60.56 990.314 60.56ZM999.094 62V50.096H1000.92L1001.04 52.232C1001.42 51.48 1001.97 50.888 1002.69 50.456C1003.41 50.024 1004.23 49.808 1005.14 49.808C1006.55 49.808 1007.67 50.24 1008.5 51.104C1009.35 51.952 1009.77 53.264 1009.77 55.04V62H1007.76V55.256C1007.76 52.776 1006.73 51.536 1004.69 51.536C1003.66 51.536 1002.81 51.912 1002.12 52.664C1001.45 53.4 1001.11 54.456 1001.11 55.832V62H999.094ZM1018.25 62.288C1017.13 62.288 1016.12 62.032 1015.23 61.52C1014.33 61.008 1013.62 60.288 1013.09 59.36C1012.58 58.416 1012.32 57.312 1012.32 56.048C1012.32 54.784 1012.59 53.688 1013.12 52.76C1013.64 51.816 1014.36 51.088 1015.25 50.576C1016.16 50.064 1017.18 49.808 1018.3 49.808C1019.42 49.808 1020.43 50.064 1021.32 50.576C1022.22 51.088 1022.92 51.816 1023.44 52.76C1023.96 53.688 1024.23 54.784 1024.23 56.048C1024.23 57.312 1023.96 58.416 1023.44 59.36C1022.91 60.288 1022.19 61.008 1021.28 61.52C1020.38 62.032 1019.37 62.288 1018.25 62.288ZM1018.25 60.56C1018.94 60.56 1019.58 60.392 1020.17 60.056C1020.76 59.72 1021.24 59.216 1021.61 58.544C1021.98 57.872 1022.16 57.04 1022.16 56.048C1022.16 55.056 1021.98 54.224 1021.61 53.552C1021.26 52.88 1020.79 52.376 1020.2 52.04C1019.6 51.704 1018.97 51.536 1018.3 51.536C1017.61 51.536 1016.97 51.704 1016.38 52.04C1015.79 52.376 1015.31 52.88 1014.94 53.552C1014.57 54.224 1014.39 55.056 1014.39 56.048C1014.39 57.04 1014.57 57.872 1014.94 58.544C1015.31 59.216 1015.78 59.72 1016.36 60.056C1016.95 60.392 1017.58 60.56 1018.25 60.56ZM1031.38 62.288C1029.97 62.288 1028.85 61.864 1028.02 61.016C1027.18 60.152 1026.77 58.832 1026.77 57.056V50.096H1028.78V56.84C1028.78 59.32 1029.8 60.56 1031.83 60.56C1032.87 60.56 1033.73 60.192 1034.4 59.456C1035.09 58.704 1035.43 57.64 1035.43 56.264V50.096H1037.45V62H1035.62L1035.48 59.864C1035.11 60.616 1034.56 61.208 1033.82 61.64C1033.1 62.072 1032.29 62.288 1031.38 62.288Z" fill="black"/>
<defs>
<filter id="filter0_d_797_3202" x="0" y="42" width="62" height="62" filterUnits="userSpaceOnUse" color-interpolation-filters="sRGB">
<feFlood flood-opacity="0" result="BackgroundImageFix"/>
<feColorMatrix in="SourceAlpha" type="matrix" values="0 0 0 0 0 0 0 0 0 0 0 0 0 0 0 0 0 0 127 0" result="hardAlpha"/>
<feOffset dy="4"/>
<feGaussianBlur stdDeviation="7"/>
<feColorMatrix type="matrix" values="0 0 0 0 0 0 0 0 0 0 0 0 0 0 0 0 0 0 0.15 0"/>
<feBlend mode="normal" in2="BackgroundImageFix" result="effect1_dropShadow_797_3202"/>
<feBlend mode="normal" in="SourceGraphic" in2="effect1_dropShadow_797_3202" result="shape"/>
</filter>
<filter id="filter1_d_797_3202" x="50" y="42" width="62" height="62" filterUnits="userSpaceOnUse" color-interpolation-filters="sRGB">
<feFlood flood-opacity="0" result="BackgroundImageFix"/>
<feColorMatrix in="SourceAlpha" type="matrix" values="0 0 0 0 0 0 0 0 0 0 0 0 0 0 0 0 0 0 127 0" result="hardAlpha"/>
<feOffset dy="4"/>
<feGaussianBlur stdDeviation="7"/>
<feColorMatrix type="matrix" values="0 0 0 0 0 0 0 0 0 0 0 0 0 0 0 0 0 0 0.15 0"/>
<feBlend mode="normal" in2="BackgroundImageFix" result="effect1_dropShadow_797_3202"/>
<feBlend mode="normal" in="SourceGraphic" in2="effect1_dropShadow_797_3202" result="shape"/>
</filter>
<filter id="filter2_d_797_3202" x="100" y="42" width="62" height="62" filterUnits="userSpaceOnUse" color-interpolation-filters="sRGB">
<feFlood flood-opacity="0" result="BackgroundImageFix"/>
<feColorMatrix in="SourceAlpha" type="matrix" values="0 0 0 0 0 0 0 0 0 0 0 0 0 0 0 0 0 0 127 0" result="hardAlpha"/>
<feOffset dy="4"/>
<feGaussianBlur stdDeviation="7"/>
<feColorMatrix type="matrix" values="0 0 0 0 0 0 0 0 0 0 0 0 0 0 0 0 0 0 0.15 0"/>
<feBlend mode="normal" in2="BackgroundImageFix" result="effect1_dropShadow_797_3202"/>
<feBlend mode="normal" in="SourceGraphic" in2="effect1_dropShadow_797_3202" result="shape"/>
</filter>
<filter id="filter3_d_797_3202" x="150" y="42" width="62" height="62" filterUnits="userSpaceOnUse" color-interpolation-filters="sRGB">
<feFlood flood-opacity="0" result="BackgroundImageFix"/>
<feColorMatrix in="SourceAlpha" type="matrix" values="0 0 0 0 0 0 0 0 0 0 0 0 0 0 0 0 0 0 127 0" result="hardAlpha"/>
<feOffset dy="4"/>
<feGaussianBlur stdDeviation="7"/>
<feColorMatrix type="matrix" values="0 0 0 0 0 0 0 0 0 0 0 0 0 0 0 0 0 0 0.15 0"/>
<feBlend mode="normal" in2="BackgroundImageFix" result="effect1_dropShadow_797_3202"/>
<feBlend mode="normal" in="SourceGraphic" in2="effect1_dropShadow_797_3202" result="shape"/>
</filter>
<clipPath id="clip0_797_3202">
<rect width="30" height="30" fill="white" transform="translate(400 40)"/>
</clipPath>
<clipPath id="clip1_797_3202">
<rect width="12" height="12" fill="white" transform="translate(25 63)"/>
</clipPath>
<clipPath id="clip2_797_3202">
<rect width="13" height="13" fill="white" transform="translate(75 62)"/>
</clipPath>
<clipPath id="clip3_797_3202">
<rect width="13" height="13" fill="white" transform="translate(124 63)"/>
</clipPath>
<clipPath id="clip4_797_3202">
<rect width="11" height="11" fill="white" transform="translate(175 63)"/>
</clipPath>
</defs>
</svg>
