<svg width="114" height="27" viewBox="0 0 114 27" fill="none" xmlns="http://www.w3.org/2000/svg">
<g clip-path="url(#clip0_296_1281)">
<path d="M26 14C26 6.82029 20.1797 1 13 1C5.82029 1 0 6.82029 0 14C0 20.4886 4.75389 25.8668 10.9688 26.8421V17.7578H7.66797V14H10.9688V11.1359C10.9688 7.87781 12.9096 6.07812 15.879 6.07812C17.3009 6.07812 18.7891 6.33203 18.7891 6.33203V9.53125H17.1498C15.535 9.53125 15.0313 10.5334 15.0313 11.5625V14H18.6367L18.0604 17.7578H15.0313V26.8421C21.2461 25.8668 26 20.4886 26 14Z" fill="white"/>
</g>
<path d="M64.8535 2.06262H68.5081L60.5239 11.1881L69.9167 23.6058H62.5622L56.8019 16.0745L50.2108 23.6058H46.554L55.0939 13.8451L46.0833 2.06262H53.6245L58.8314 8.94648L64.8535 2.06262ZM63.5708 21.4183H65.5959L52.5242 4.13518H50.3511L63.5708 21.4183Z" fill="white"/>
<g clip-path="url(#clip1_296_1281)">
<path d="M112.149 1H90.8457C89.8252 1 89 1.83789 89 2.87383V25.1211C89 26.157 89.8252 27 90.8457 27H112.149C113.17 27 114 26.157 114 25.1262V2.87383C114 1.83789 113.17 1 112.149 1ZM96.417 23.1559H92.7061V10.7449H96.417V23.1559ZM94.5615 9.05391C93.3701 9.05391 92.4082 8.05352 92.4082 6.81953C92.4082 5.58555 93.3701 4.58516 94.5615 4.58516C95.748 4.58516 96.71 5.58555 96.71 6.81953C96.71 8.04844 95.748 9.05391 94.5615 9.05391ZM110.304 23.1559H106.598V17.123C106.598 15.6859 106.573 13.8324 104.669 13.8324C102.74 13.8324 102.447 15.4016 102.447 17.0215V23.1559H98.7461V10.7449H102.301V12.441H102.35C102.843 11.466 104.054 10.4352 105.855 10.4352C109.61 10.4352 110.304 13.0047 110.304 16.3461V23.1559Z" fill="white"/>
</g>
<defs>
<clipPath id="clip0_296_1281">
<rect width="26" height="26" fill="white" transform="translate(0 1)"/>
</clipPath>
<clipPath id="clip1_296_1281">
<rect width="25" height="26" fill="white" transform="translate(89 1)"/>
</clipPath>
</defs>
</svg>
