<svg width="920" height="239" viewBox="0 0 920 239" fill="none" xmlns="http://www.w3.org/2000/svg">
    <path
        d="M17.7796 258V76H51.0596V151.66H132.7V76H165.98V258H132.7V178.7H51.0596V258H17.7796ZM201.354 258V76H234.634V258H201.354ZM332.049 261.12C318.702 261.12 306.915 258.867 296.689 254.36C286.462 249.68 278.402 243.093 272.509 234.6C266.615 225.933 263.582 215.447 263.409 203.14H298.509C298.855 211.633 301.889 218.827 307.609 224.72C313.502 230.44 321.562 233.3 331.789 233.3C340.629 233.3 347.649 231.22 352.849 227.06C358.049 222.727 360.649 217.007 360.649 209.9C360.649 202.447 358.309 196.64 353.629 192.48C349.122 188.32 343.055 184.94 335.429 182.34C327.802 179.74 319.655 176.967 310.989 174.02C296.949 169.167 286.202 162.927 278.749 155.3C271.469 147.673 267.829 137.533 267.829 124.88C267.655 114.133 270.169 104.947 275.369 97.32C280.742 89.52 288.022 83.54 297.209 79.38C306.395 75.0467 316.969 72.88 328.929 72.88C341.062 72.88 351.722 75.0467 360.909 79.38C370.269 83.7133 377.549 89.78 382.749 97.58C388.122 105.38 390.982 114.653 391.329 125.4H355.709C355.535 118.987 353.022 113.353 348.169 108.5C343.489 103.473 336.902 100.96 328.409 100.96C321.129 100.787 314.975 102.607 309.949 106.42C305.095 110.06 302.669 115.433 302.669 122.54C302.669 128.607 304.575 133.46 308.389 137.1C312.202 140.567 317.402 143.513 323.989 145.94C330.575 148.367 338.115 150.967 346.609 153.74C355.622 156.86 363.855 160.5 371.309 164.66C378.762 168.82 384.742 174.367 389.249 181.3C393.755 188.06 396.009 196.813 396.009 207.56C396.009 217.093 393.582 225.933 388.729 234.08C383.875 242.227 376.682 248.813 367.149 253.84C357.615 258.693 345.915 261.12 332.049 261.12ZM465.14 258V102.78H412.1V76H551.72V102.78H498.42V258H465.14ZM655.052 261.12C636.852 261.12 620.905 257.133 607.212 249.16C593.692 241.187 583.032 230.18 575.232 216.14C567.605 201.927 563.792 185.547 563.792 167C563.792 148.453 567.605 132.16 575.232 118.12C583.032 103.907 593.692 92.8133 607.212 84.84C620.905 76.8667 636.852 72.88 655.052 72.88C673.078 72.88 688.938 76.8667 702.632 84.84C716.325 92.8133 726.985 103.907 734.612 118.12C742.238 132.16 746.052 148.453 746.052 167C746.052 185.547 742.238 201.927 734.612 216.14C726.985 230.18 716.325 241.187 702.632 249.16C688.938 257.133 673.078 261.12 655.052 261.12ZM655.052 231.22C672.385 231.22 686.165 225.5 696.392 214.06C706.792 202.62 711.992 186.933 711.992 167C711.992 147.067 706.792 131.38 696.392 119.94C686.165 108.5 672.385 102.78 655.052 102.78C637.718 102.78 623.852 108.5 613.452 119.94C603.052 131.38 597.852 147.067 597.852 167C597.852 186.933 603.052 202.62 613.452 214.06C623.852 225.5 637.718 231.22 655.052 231.22ZM775.436 258V76H842.256C856.816 76 868.776 78.5133 878.136 83.54C887.669 88.3933 894.776 95.0667 899.456 103.56C904.136 111.88 906.476 121.153 906.476 131.38C906.476 142.473 903.529 152.613 897.636 161.8C891.916 170.987 882.903 177.66 870.596 181.82L908.296 258H870.076L836.276 186.24H808.716V258H775.436ZM808.716 161.8H840.176C851.269 161.8 859.416 159.113 864.616 153.74C869.816 148.367 872.416 141.26 872.416 132.42C872.416 123.753 869.816 116.82 864.616 111.62C859.589 106.42 851.356 103.82 839.916 103.82H808.716V161.8ZM978.14 258V193.26L917.04 76H954.74L995.04 159.98L1035.08 76H1072.26L1011.42 193.26V258H978.14Z"
        fill="#F6FAFA" />
</svg>