<svg width="39" height="38" viewBox="0 0 39 38" fill="none" xmlns="http://www.w3.org/2000/svg">
<path d="M19.5 37.1571C30.2696 37.1571 39 28.8392 39 18.5785C39 8.31789 30.2696 0 19.5 0C8.73045 0 0 8.31789 0 18.5785C0 28.8392 8.73045 37.1571 19.5 37.1571Z" fill="url(#paint0_linear_426_4119)"/>
<path d="M17.5978 25.7209C17.1276 25.7202 16.6764 25.546 16.3409 25.2356L11.5195 20.6932C11.3548 20.5381 11.2242 20.3538 11.135 20.1511C11.0459 19.9483 11 19.731 11 19.5116C11 19.2921 11.0459 19.0748 11.135 18.872C11.2242 18.6693 11.3548 18.485 11.5195 18.3299C11.6843 18.1747 11.8798 18.0516 12.095 17.9676C12.3102 17.8836 12.5409 17.8404 12.7738 17.8404C13.0068 17.8404 13.2374 17.8836 13.4526 17.9676C13.6678 18.0516 13.8634 18.1747 14.0281 18.3299L17.5978 21.6929L27.9719 11.9192C28.3046 11.6058 28.7557 11.4297 29.2262 11.4297C29.6966 11.4297 30.1478 11.6058 30.4805 11.9192C30.8131 12.2326 31 12.6576 31 13.1008C31 13.5441 30.8131 13.9691 30.4805 14.2825L18.8494 25.2356C18.5165 25.5466 18.0666 25.721 17.5978 25.7209Z" fill="white"/>
<defs>
<linearGradient id="paint0_linear_426_4119" x1="19.5" y1="0" x2="19.5" y2="37.1571" gradientUnits="userSpaceOnUse">
<stop stop-color="#3A73B7"/>
<stop offset="1" stop-color="#60BCB4"/>
</linearGradient>
</defs>
</svg>
