<svg width="20" height="21" viewBox="0 0 20 21" fill="none" xmlns="http://www.w3.org/2000/svg">
<g clip-path="url(#clip0_1196_1438)">
<path d="M18.591 0.761719H2.36478C1.5875 0.761719 0.958984 1.39991 0.958984 2.18894V19.1338C0.958984 19.9228 1.5875 20.5649 2.36478 20.5649H18.591C19.3682 20.5649 20.0005 19.9228 20.0005 19.1377V2.18894C20.0005 1.39991 19.3682 0.761719 18.591 0.761719ZM6.60821 17.6369H3.78174V8.18403H6.60821V17.6369ZM5.19497 6.89606C4.28753 6.89606 3.55488 6.1341 3.55488 5.19422C3.55488 4.25435 4.28753 3.49239 5.19497 3.49239C6.0987 3.49239 6.83135 4.25435 6.83135 5.19422C6.83135 6.13023 6.0987 6.89606 5.19497 6.89606ZM17.1852 17.6369H14.3624V13.042C14.3624 11.9474 14.3438 10.5357 12.8934 10.5357C11.4244 10.5357 11.2012 11.7308 11.2012 12.9646V17.6369H8.38219V8.18403H11.0897V9.47588H11.1268C11.5025 8.73326 12.4248 7.9481 13.7971 7.9481C16.6571 7.9481 17.1852 9.90521 17.1852 12.4502V17.6369Z" fill="#2171CF"/>
</g>
<defs>
<clipPath id="clip0_1196_1438">
<rect width="19.0415" height="19.8032" fill="white" transform="translate(0.958984 0.761719)"/>
</clipPath>
</defs>
</svg>
