<svg width="84" height="84" viewBox="0 0 84 84" fill="none" xmlns="http://www.w3.org/2000/svg">
<g filter="url(#filter0_d_797_3791)">
<circle cx="41.875" cy="38.0377" r="27.625" fill="white"/>
</g>
<g clip-path="url(#clip0_797_3791)">
<path d="M47.5316 26.6627H37.8433C34.6902 26.6627 32.125 29.2279 32.125 32.381V42.0694C32.125 45.2224 34.6902 47.7876 37.8433 47.7876H47.5318C50.6848 47.7876 53.25 45.2224 53.25 42.0694V32.381C53.25 29.2279 50.6848 26.6627 47.5316 26.6627V26.6627ZM52.0115 42.0694C52.0115 44.5395 50.0019 46.5492 47.5316 46.5492H37.8433C35.3731 46.5492 33.3634 44.5395 33.3634 42.0694V32.381C33.3634 29.9107 35.3731 27.9011 37.8433 27.9011H47.5318C50.0019 27.9011 52.0115 29.9107 52.0115 32.381V42.0694Z" fill="url(#paint0_linear_797_3791)"/>
<path d="M42.6873 31.449C39.5023 31.449 36.9111 34.0401 36.9111 37.2252C36.9111 40.4102 39.5023 43.0014 42.6873 43.0014C45.8724 43.0014 48.4635 40.4102 48.4635 37.2252C48.4635 34.0401 45.8724 31.449 42.6873 31.449ZM42.6873 41.7629C40.1853 41.7629 38.1496 39.7273 38.1496 37.2252C38.1496 34.7232 40.1853 32.6874 42.6873 32.6874C45.1895 32.6874 47.2251 34.7232 47.2251 37.2252C47.2251 39.7273 45.1895 41.7629 42.6873 41.7629Z" fill="url(#paint1_linear_797_3791)"/>
<path d="M48.6013 29.3976C47.6601 29.3976 46.8945 30.1633 46.8945 31.1044C46.8945 32.0456 47.6601 32.8113 48.6013 32.8113C49.5426 32.8113 50.3083 32.0456 50.3083 31.1044C50.3083 30.1631 49.5426 29.3976 48.6013 29.3976ZM48.6013 31.5727C48.3431 31.5727 48.133 31.3626 48.133 31.1044C48.133 30.846 48.3431 30.636 48.6013 30.636C48.8597 30.636 49.0698 30.846 49.0698 31.1044C49.0698 31.3626 48.8597 31.5727 48.6013 31.5727Z" fill="url(#paint2_linear_797_3791)"/>
</g>
<defs>
<filter id="filter0_d_797_3791" x="0.25" y="0.412659" width="83.25" height="83.25" filterUnits="userSpaceOnUse" color-interpolation-filters="sRGB">
<feFlood flood-opacity="0" result="BackgroundImageFix"/>
<feColorMatrix in="SourceAlpha" type="matrix" values="0 0 0 0 0 0 0 0 0 0 0 0 0 0 0 0 0 0 127 0" result="hardAlpha"/>
<feOffset dy="4"/>
<feGaussianBlur stdDeviation="7"/>
<feColorMatrix type="matrix" values="0 0 0 0 0 0 0 0 0 0 0 0 0 0 0 0 0 0 0.15 0"/>
<feBlend mode="normal" in2="BackgroundImageFix" result="effect1_dropShadow_797_3791"/>
<feBlend mode="normal" in="SourceGraphic" in2="effect1_dropShadow_797_3791" result="shape"/>
</filter>
<linearGradient id="paint0_linear_797_3791" x1="42.6875" y1="26.6627" x2="42.6875" y2="47.7876" gradientUnits="userSpaceOnUse">
<stop stop-color="#3A73B7"/>
<stop offset="1" stop-color="#60BCB4"/>
</linearGradient>
<linearGradient id="paint1_linear_797_3791" x1="42.6873" y1="31.449" x2="42.6873" y2="43.0014" gradientUnits="userSpaceOnUse">
<stop stop-color="#3A73B7"/>
<stop offset="1" stop-color="#60BCB4"/>
</linearGradient>
<linearGradient id="paint2_linear_797_3791" x1="48.6014" y1="29.3976" x2="48.6014" y2="32.8113" gradientUnits="userSpaceOnUse">
<stop stop-color="#3A73B7"/>
<stop offset="1" stop-color="#60BCB4"/>
</linearGradient>
<clipPath id="clip0_797_3791">
<rect width="21.125" height="21.125" fill="white" transform="translate(32.125 26.6627)"/>
</clipPath>
</defs>
</svg>
