<svg width="152" height="224" viewBox="0 0 152 224" fill="none" xmlns="http://www.w3.org/2000/svg">
<circle cx="76" cy="76" r="74" stroke="url(#paint0_linear_206_157)" stroke-width="4"/>
<path d="M88.3563 84.5444L109.133 76.3369C113.784 74.4994 115.149 75.0287 117.319 76.6541C118.546 77.5728 118.994 78.6884 119.106 80.0666C119.338 82.9344 118.789 84.7937 116.949 86.0319C105.795 93.5328 93.9059 99.1219 79.0003 105.249C71.7553 108.226 61.0409 106.262 51.4159 102.952L38.525 102.902C37.9114 102.903 37.3036 102.783 36.7362 102.55C36.1689 102.316 35.6532 101.973 35.2185 101.54C34.7838 101.106 34.4386 100.592 34.2028 100.026C33.9669 99.4591 33.8449 98.8517 33.8438 98.2381V85.1962C33.8438 82.6019 35.9328 80.515 38.525 80.515H52.3631C57.6284 73.97 73.6562 76.1509 85.0006 76.5359C88.0631 76.6409 89.2094 79.7931 88.3563 84.5444ZM88.3563 84.5444C85.4075 90.2034 77.9109 88.705 70.8563 88.9609M93.9322 64.2028L91.235 61.5056L88.5356 64.205H86.3984M80.9997 64.2028L83.6991 61.5056L86.3963 64.2028M73.5622 53.1144H94.8181L100.781 58.6597L94.8181 64.205H93.9344M81.0019 64.205H73.5644M73.5622 64.2028L68.1722 69.5928C66.2034 71.5616 63.0359 71.5616 61.0694 69.5928L53.6844 62.2144C51.7156 60.2456 51.7156 57.0781 53.6844 55.1094L61.0672 47.7266C63.0359 45.7578 66.2034 45.7578 68.17 47.7266L73.56 53.1166M64.1472 58.6597C64.1472 60.5497 62.6159 62.0831 60.7238 62.0831C58.8338 62.0831 57.2981 60.5519 57.2981 58.6597C57.2981 56.7697 58.8294 55.2362 60.7216 55.2362C62.6116 55.2362 64.1472 56.7675 64.1472 58.6575V58.6597Z" stroke="black" stroke-linecap="round" stroke-linejoin="round"/>
<path d="M28.776 217V200.2H30.792V217H28.776ZM34.2341 217V205.096H36.0581L36.1781 207.232C36.5621 206.48 37.1141 205.888 37.8341 205.456C38.5541 205.024 39.3701 204.808 40.2821 204.808C41.6901 204.808 42.8101 205.24 43.6421 206.104C44.4901 206.952 44.9141 208.264 44.9141 210.04V217H42.8981V210.256C42.8981 207.776 41.8741 206.536 39.8261 206.536C38.8021 206.536 37.9461 206.912 37.2581 207.664C36.5861 208.4 36.2501 209.456 36.2501 210.832V217H34.2341ZM52.6725 217C51.5845 217 50.7285 216.736 50.1045 216.208C49.4805 215.68 49.1685 214.728 49.1685 213.352V206.8H47.1045V205.096H49.1685L49.4325 202.24H51.1845V205.096H54.6885V206.8H51.1845V213.352C51.1845 214.104 51.3365 214.616 51.6405 214.888C51.9445 215.144 52.4805 215.272 53.2485 215.272H54.4965V217H52.6725ZM62.2736 217.288C61.1376 217.288 60.1296 217.032 59.2496 216.52C58.3696 215.992 57.6736 215.264 57.1616 214.336C56.6656 213.408 56.4176 212.312 56.4176 211.048C56.4176 209.8 56.6656 208.712 57.1616 207.784C57.6576 206.84 58.3456 206.112 59.2256 205.6C60.1216 205.072 61.1536 204.808 62.3216 204.808C63.4736 204.808 64.4656 205.072 65.2976 205.6C66.1456 206.112 66.7936 206.792 67.2416 207.64C67.6896 208.488 67.9136 209.4 67.9136 210.376C67.9136 210.552 67.9056 210.728 67.8896 210.904C67.8896 211.08 67.8896 211.28 67.8896 211.504H58.4096C58.4576 212.416 58.6656 213.176 59.0336 213.784C59.4176 214.376 59.8896 214.824 60.4496 215.128C61.0256 215.432 61.6336 215.584 62.2736 215.584C63.1056 215.584 63.8016 215.392 64.3616 215.008C64.9216 214.624 65.3296 214.104 65.5856 213.448H67.5776C67.2576 214.552 66.6416 215.472 65.7296 216.208C64.8336 216.928 63.6816 217.288 62.2736 217.288ZM62.2736 206.512C61.3136 206.512 60.4576 206.808 59.7056 207.4C58.9696 207.976 58.5456 208.824 58.4336 209.944H65.9216C65.8736 208.872 65.5056 208.032 64.8176 207.424C64.1296 206.816 63.2816 206.512 62.2736 206.512ZM61.7216 204.112V202.6L66.7616 199.552V201.304L61.7216 204.112ZM75.2194 213.256C74.5474 213.256 73.9314 213.168 73.3714 212.992L72.1714 214.12C72.3474 214.248 72.5634 214.36 72.8194 214.456C73.0914 214.536 73.4754 214.616 73.9714 214.696C74.4674 214.76 75.1634 214.832 76.0594 214.912C77.6594 215.024 78.8034 215.392 79.4914 216.016C80.1794 216.64 80.5234 217.456 80.5234 218.464C80.5234 219.152 80.3314 219.808 79.9474 220.432C79.5794 221.056 79.0034 221.568 78.2194 221.968C77.4514 222.368 76.4594 222.568 75.2434 222.568C74.1714 222.568 73.2194 222.424 72.3874 222.136C71.5554 221.864 70.9074 221.44 70.4434 220.864C69.9794 220.304 69.7474 219.592 69.7474 218.728C69.7474 218.28 69.8674 217.792 70.1074 217.264C70.3474 216.752 70.7954 216.264 71.4514 215.8C71.0994 215.656 70.7954 215.504 70.5394 215.344C70.2994 215.168 70.0754 214.976 69.8674 214.768V214.216L71.9074 212.2C70.9634 211.4 70.4914 210.344 70.4914 209.032C70.4914 208.248 70.6754 207.536 71.0434 206.896C71.4114 206.256 71.9474 205.752 72.6514 205.384C73.3554 205 74.2114 204.808 75.2194 204.808C75.9074 204.808 76.5314 204.904 77.0914 205.096H81.4834V206.608L79.2514 206.704C79.7154 207.376 79.9474 208.152 79.9474 209.032C79.9474 209.816 79.7554 210.528 79.3714 211.168C79.0034 211.808 78.4674 212.32 77.7634 212.704C77.0754 213.072 76.2274 213.256 75.2194 213.256ZM75.2194 211.6C76.0674 211.6 76.7394 211.384 77.2354 210.952C77.7474 210.504 78.0034 209.864 78.0034 209.032C78.0034 208.216 77.7474 207.592 77.2354 207.16C76.7394 206.712 76.0674 206.488 75.2194 206.488C74.3554 206.488 73.6674 206.712 73.1554 207.16C72.6594 207.592 72.4114 208.216 72.4114 209.032C72.4114 209.864 72.6594 210.504 73.1554 210.952C73.6674 211.384 74.3554 211.6 75.2194 211.6ZM71.7154 218.536C71.7154 219.336 72.0514 219.928 72.7234 220.312C73.3954 220.712 74.2354 220.912 75.2434 220.912C76.2354 220.912 77.0274 220.696 77.6194 220.264C78.2274 219.832 78.5314 219.256 78.5314 218.536C78.5314 218.024 78.3234 217.576 77.9074 217.192C77.4914 216.824 76.7234 216.608 75.6034 216.544C74.7234 216.48 73.9634 216.4 73.3234 216.304C72.6674 216.656 72.2354 217.032 72.0274 217.432C71.8194 217.848 71.7154 218.216 71.7154 218.536ZM83.7576 217V205.096H85.5816L85.7496 207.376C86.1176 206.592 86.6776 205.968 87.4296 205.504C88.1816 205.04 89.1096 204.808 90.2136 204.808V206.92H89.6616C88.9576 206.92 88.3096 207.048 87.7176 207.304C87.1256 207.544 86.6536 207.96 86.3016 208.552C85.9496 209.144 85.7736 209.96 85.7736 211V217H83.7576ZM93.7003 202.456C93.3003 202.456 92.9643 202.328 92.6923 202.072C92.4363 201.8 92.3083 201.464 92.3083 201.064C92.3083 200.68 92.4363 200.36 92.6923 200.104C92.9643 199.848 93.3003 199.72 93.7003 199.72C94.0843 199.72 94.4123 199.848 94.6843 200.104C94.9563 200.36 95.0923 200.68 95.0923 201.064C95.0923 201.464 94.9563 201.8 94.6843 202.072C94.4123 202.328 94.0843 202.456 93.7003 202.456ZM92.6923 217V205.096H94.7083V217H92.6923ZM102.923 217C101.835 217 100.979 216.736 100.355 216.208C99.7305 215.68 99.4185 214.728 99.4185 213.352V206.8H97.3545V205.096H99.4185L99.6825 202.24H101.435V205.096H104.939V206.8H101.435V213.352C101.435 214.104 101.587 214.616 101.891 214.888C102.195 215.144 102.731 215.272 103.499 215.272H104.747V217H102.923ZM112.524 217.288C111.388 217.288 110.38 217.032 109.5 216.52C108.62 215.992 107.924 215.264 107.412 214.336C106.916 213.408 106.668 212.312 106.668 211.048C106.668 209.8 106.916 208.712 107.412 207.784C107.908 206.84 108.596 206.112 109.476 205.6C110.372 205.072 111.404 204.808 112.572 204.808C113.724 204.808 114.716 205.072 115.548 205.6C116.396 206.112 117.044 206.792 117.492 207.64C117.94 208.488 118.164 209.4 118.164 210.376C118.164 210.552 118.156 210.728 118.14 210.904C118.14 211.08 118.14 211.28 118.14 211.504H108.66C108.708 212.416 108.916 213.176 109.284 213.784C109.668 214.376 110.14 214.824 110.7 215.128C111.276 215.432 111.884 215.584 112.524 215.584C113.356 215.584 114.052 215.392 114.612 215.008C115.172 214.624 115.58 214.104 115.836 213.448H117.828C117.508 214.552 116.892 215.472 115.98 216.208C115.084 216.928 113.932 217.288 112.524 217.288ZM112.524 206.512C111.564 206.512 110.708 206.808 109.956 207.4C109.22 207.976 108.796 208.824 108.684 209.944H116.172C116.124 208.872 115.756 208.032 115.068 207.424C114.38 206.816 113.532 206.512 112.524 206.512ZM111.972 204.112V202.6L117.012 199.552V201.304L111.972 204.112Z" fill="black"/>
<defs>
<linearGradient id="paint0_linear_206_157" x1="76" y1="0" x2="76" y2="152" gradientUnits="userSpaceOnUse">
<stop stop-color="#3A73B7"/>
<stop offset="1" stop-color="#60BCB4"/>
</linearGradient>
</defs>
</svg>
