<svg width="29" height="24" viewBox="0 0 29 24" fill="none" xmlns="http://www.w3.org/2000/svg">
<path fill-rule="evenodd" clip-rule="evenodd" d="M14.1081 2C18.658 2 22.3379 5.13 22.3379 9C22.3379 14.25 14.1081 22 14.1081 22C14.1081 22 5.87842 14.25 5.87842 9C5.87842 5.13 9.55828 2 14.1081 2ZM8.22977 9C8.22977 11.85 11.6627 16.21 14.1081 18.88C16.6006 16.19 19.9865 11.88 19.9865 9C19.9865 6.24 17.353 4 14.1081 4C10.8633 4 8.22977 6.24 8.22977 9ZM14.1081 11.5C12.4849 11.5 11.169 10.3807 11.169 9C11.169 7.61929 12.4849 6.5 14.1081 6.5C15.7314 6.5 17.0473 7.61929 17.0473 9C17.0473 10.3807 15.7314 11.5 14.1081 11.5Z" fill="white"/>
</svg>
