<svg width="37" height="37" viewBox="0 0 37 37" fill="none" xmlns="http://www.w3.org/2000/svg">
<circle cx="18.5" cy="18.5" r="18.5" fill="#3A73B7"/>
<path d="M10 19C10.5523 19 11 18.5523 11 18C11 17.4477 10.5523 17 10 17C9.44772 17 9 17.4477 9 18C9 18.5523 9.44772 19 10 19Z" fill="#FFFAFA"/>
<path d="M26.06 17H13.94C13.4209 17 13 17.4209 13 17.94V18.06C13 18.5791 13.4209 19 13.94 19H26.06C26.5791 19 27 18.5791 27 18.06V17.94C27 17.4209 26.5791 17 26.06 17Z" fill="#FFFAFA"/>
<path d="M26.06 22H9.94C9.42085 22 9 22.4209 9 22.94V23.06C9 23.5791 9.42085 24 9.94 24H26.06C26.5791 24 27 23.5791 27 23.06V22.94C27 22.4209 26.5791 22 26.06 22Z" fill="#FFFAFA"/>
<path d="M26.06 12H9.94C9.42085 12 9 12.4209 9 12.94V13.06C9 13.5791 9.42085 14 9.94 14H26.06C26.5791 14 27 13.5791 27 13.06V12.94C27 12.4209 26.5791 12 26.06 12Z" fill="#FFFAFA"/>
</svg>
