<svg width="26" height="25" viewBox="0 0 26 25" fill="none" xmlns="http://www.w3.org/2000/svg">
<rect x="0.5" width="25" height="25" rx="12.5" fill="white"/>
<path d="M13.3438 4.64057C13.5635 4.42112 13.8613 4.29785 14.1719 4.29785C14.4824 4.29785 14.7803 4.42112 15 4.64057L21.6406 11.2812C21.8601 11.5009 21.9833 11.7988 21.9833 12.1093C21.9833 12.4199 21.8601 12.7177 21.6406 12.9374L15 19.5781C14.7777 19.785 14.4839 19.8976 14.1803 19.8924C13.8766 19.8871 13.5869 19.7644 13.3719 19.5499C13.1574 19.3349 13.0347 19.0452 13.0294 18.7416C13.0242 18.4379 13.1369 18.1441 13.3438 17.9218L17.9844 13.2812H6.35938C6.04857 13.2812 5.7505 13.1577 5.53073 12.938C5.31096 12.7182 5.1875 12.4201 5.1875 12.1093C5.1875 11.7985 5.31096 11.5004 5.53073 11.2807C5.7505 11.0609 6.04857 10.9374 6.35938 10.9374H17.9844L13.3438 6.29682C13.1243 6.07709 13.001 5.77924 13.001 5.4687C13.001 5.15815 13.1243 4.8603 13.3438 4.64057Z" fill="#3A73B7"/>
</svg>
