<svg width="72" height="72" viewBox="0 0 72 72" fill="none" xmlns="http://www.w3.org/2000/svg">
<rect width="72" height="72" rx="10" fill="#3A73B7"/>
<path d="M35.2727 27.6872C35.1824 27.5918 35.1119 27.4795 35.0651 27.3567C35.0183 27.234 34.9961 27.1033 34.9998 26.972C35.0035 26.8407 35.0331 26.7114 35.0867 26.5915C35.1404 26.4716 35.2172 26.3635 35.3127 26.2732C35.4081 26.183 35.5204 26.1125 35.6432 26.0657C35.7659 26.0189 35.8966 25.9967 36.0279 26.0004C36.1592 26.0041 36.2885 26.0337 36.4084 26.0873C36.5283 26.141 36.6364 26.2178 36.7267 26.3132L45.2267 35.3132C45.4022 35.4989 45.5 35.7447 45.5 36.0002C45.5 36.2558 45.4022 36.5016 45.2267 36.6872L36.7267 45.6882C36.637 45.7858 36.5289 45.8646 36.4086 45.92C36.2883 45.9754 36.1581 46.0064 36.0257 46.0111C35.8933 46.0158 35.7613 45.9942 35.6374 45.9474C35.5134 45.9007 35.4 45.8298 35.3037 45.7388C35.2073 45.6479 35.1301 45.5387 35.0763 45.4176C35.0225 45.2965 34.9933 45.166 34.9905 45.0335C34.9876 44.9011 35.011 44.7694 35.0595 44.6461C35.1079 44.5228 35.1804 44.4103 35.2727 44.3153L43.1247 36.0002L35.2727 27.6872Z" fill="white"/>
</svg>
