<svg width="72" height="72" viewBox="0 0 72 72" fill="none" xmlns="http://www.w3.org/2000/svg">
<rect width="72" height="72" rx="10" fill="#3A73B7"/>
<path d="M39.7273 27.6872C39.8176 27.5918 39.8881 27.4795 39.9349 27.3567C39.9817 27.234 40.0039 27.1033 40.0002 26.972C39.9965 26.8407 39.9669 26.7114 39.9133 26.5915C39.8596 26.4716 39.7828 26.3635 39.6873 26.2732C39.5919 26.183 39.4796 26.1125 39.3568 26.0657C39.2341 26.0189 39.1034 25.9967 38.9721 26.0004C38.8408 26.0041 38.7115 26.0337 38.5916 26.0873C38.4717 26.141 38.3636 26.2178 38.2733 26.3132L29.7733 35.3132C29.5978 35.4989 29.5 35.7447 29.5 36.0002C29.5 36.2558 29.5978 36.5016 29.7733 36.6872L38.2733 45.6882C38.363 45.7858 38.4711 45.8646 38.5914 45.92C38.7117 45.9754 38.8419 46.0064 38.9743 46.0111C39.1067 46.0158 39.2387 45.9942 39.3626 45.9474C39.4866 45.9007 39.6 45.8298 39.6963 45.7388C39.7927 45.6479 39.8699 45.5387 39.9237 45.4176C39.9775 45.2965 40.0067 45.166 40.0095 45.0335C40.0124 44.9011 39.989 44.7694 39.9405 44.6461C39.8921 44.5228 39.8196 44.4103 39.7273 44.3153L31.8753 36.0002L39.7273 27.6872Z" fill="white"/>
</svg>
