<svg width="152" height="224" viewBox="0 0 152 224" fill="none" xmlns="http://www.w3.org/2000/svg">
<circle cx="76" cy="76" r="74" stroke="url(#paint0_linear_206_158)" stroke-width="4"/>
<path d="M101.622 66.0234H50.3745C45.4085 66.0234 41.3828 70.0491 41.3828 75.0151V110.63C41.3828 115.596 45.4085 119.621 50.3745 119.621H101.622C106.588 119.621 110.614 115.596 110.614 110.63V75.0151C110.614 70.0491 106.588 66.0234 101.622 66.0234Z" stroke="black" stroke-linecap="round" stroke-linejoin="round"/>
<path d="M53.8164 66.0271V60.5833C53.8164 54.6933 56.1562 49.0445 60.3211 44.8797C64.4859 40.7148 70.1347 38.375 76.0247 38.375C81.9148 38.375 87.5635 40.7148 91.7284 44.8797C95.8933 49.0445 98.2331 54.6933 98.2331 60.5833V66.0271M75.9997 101.158V84.4917" stroke="black" stroke-linecap="round" stroke-linejoin="round"/>
<path d="M34.128 217.288C32.896 217.288 31.824 217.064 30.912 216.616C30 216.168 29.296 215.544 28.8 214.744C28.304 213.944 28.056 213.016 28.056 211.96H30.168C30.168 212.616 30.32 213.224 30.624 213.784C30.928 214.328 31.368 214.768 31.944 215.104C32.536 215.424 33.264 215.584 34.128 215.584C35.264 215.584 36.144 215.312 36.768 214.768C37.392 214.224 37.704 213.544 37.704 212.728C37.704 212.056 37.56 211.52 37.272 211.12C36.984 210.704 36.592 210.368 36.096 210.112C35.616 209.856 35.056 209.632 34.416 209.44C33.792 209.248 33.136 209.032 32.448 208.792C31.152 208.344 30.192 207.792 29.568 207.136C28.944 206.464 28.632 205.592 28.632 204.52C28.616 203.624 28.824 202.832 29.256 202.144C29.688 201.44 30.296 200.896 31.08 200.512C31.88 200.112 32.824 199.912 33.912 199.912C34.984 199.912 35.912 200.112 36.696 200.512C37.496 200.912 38.112 201.464 38.544 202.168C38.992 202.872 39.224 203.672 39.24 204.568H37.128C37.128 204.104 37.008 203.648 36.768 203.2C36.528 202.736 36.16 202.36 35.664 202.072C35.184 201.784 34.576 201.64 33.84 201.64C32.928 201.624 32.176 201.856 31.584 202.336C31.008 202.816 30.72 203.48 30.72 204.328C30.72 205.048 30.92 205.6 31.32 205.984C31.736 206.368 32.312 206.688 33.048 206.944C33.784 207.184 34.632 207.464 35.592 207.784C36.392 208.072 37.112 208.408 37.752 208.792C38.392 209.176 38.888 209.672 39.24 210.28C39.608 210.888 39.792 211.664 39.792 212.608C39.792 213.408 39.584 214.168 39.168 214.888C38.752 215.592 38.12 216.168 37.272 216.616C36.44 217.064 35.392 217.288 34.128 217.288ZM47.883 217.288C46.747 217.288 45.739 217.032 44.859 216.52C43.979 215.992 43.283 215.264 42.771 214.336C42.275 213.408 42.027 212.312 42.027 211.048C42.027 209.8 42.275 208.712 42.771 207.784C43.267 206.84 43.955 206.112 44.835 205.6C45.731 205.072 46.763 204.808 47.931 204.808C49.083 204.808 50.075 205.072 50.907 205.6C51.755 206.112 52.403 206.792 52.851 207.64C53.299 208.488 53.523 209.4 53.523 210.376C53.523 210.552 53.515 210.728 53.499 210.904C53.499 211.08 53.499 211.28 53.499 211.504H44.019C44.067 212.416 44.275 213.176 44.643 213.784C45.027 214.376 45.499 214.824 46.059 215.128C46.635 215.432 47.243 215.584 47.883 215.584C48.715 215.584 49.411 215.392 49.971 215.008C50.531 214.624 50.939 214.104 51.195 213.448H53.187C52.867 214.552 52.251 215.472 51.339 216.208C50.443 216.928 49.291 217.288 47.883 217.288ZM47.883 206.512C46.923 206.512 46.067 206.808 45.315 207.4C44.579 207.976 44.155 208.824 44.043 209.944H51.531C51.483 208.872 51.115 208.032 50.427 207.424C49.739 206.816 48.891 206.512 47.883 206.512ZM47.331 204.112V202.6L52.371 199.552V201.304L47.331 204.112ZM61.6671 217.288C60.5311 217.288 59.5071 217.032 58.5951 216.52C57.6991 215.992 56.9871 215.264 56.4591 214.336C55.9471 213.392 55.6911 212.296 55.6911 211.048C55.6911 209.8 55.9471 208.712 56.4591 207.784C56.9871 206.84 57.6991 206.112 58.5951 205.6C59.5071 205.072 60.5311 204.808 61.6671 204.808C63.0751 204.808 64.2591 205.176 65.2191 205.912C66.1951 206.648 66.8111 207.632 67.0671 208.864H65.0031C64.8431 208.128 64.4511 207.56 63.8271 207.16C63.2031 206.744 62.4751 206.536 61.6431 206.536C60.9711 206.536 60.3391 206.704 59.7471 207.04C59.1551 207.376 58.6751 207.88 58.3071 208.552C57.9391 209.224 57.7551 210.056 57.7551 211.048C57.7551 212.04 57.9391 212.872 58.3071 213.544C58.6751 214.216 59.1551 214.728 59.7471 215.08C60.3391 215.416 60.9711 215.584 61.6431 215.584C62.4751 215.584 63.2031 215.384 63.8271 214.984C64.4511 214.568 64.8431 213.984 65.0031 213.232H67.0671C66.8271 214.432 66.2191 215.408 65.2431 216.16C64.2671 216.912 63.0751 217.288 61.6671 217.288ZM74.2266 217.288C72.8186 217.288 71.6986 216.864 70.8666 216.016C70.0346 215.152 69.6186 213.832 69.6186 212.056V205.096H71.6346V211.84C71.6346 214.32 72.6506 215.56 74.6826 215.56C75.7226 215.56 76.5786 215.192 77.2506 214.456C77.9386 213.704 78.2826 212.64 78.2826 211.264V205.096H80.2986V217H78.4746L78.3306 214.864C77.9626 215.616 77.4106 216.208 76.6746 216.64C75.9546 217.072 75.1386 217.288 74.2266 217.288ZM83.6169 217V205.096H85.4409L85.6089 207.376C85.9769 206.592 86.5369 205.968 87.2889 205.504C88.0409 205.04 88.9689 204.808 90.0729 204.808V206.92H89.5209C88.8169 206.92 88.1689 207.048 87.5769 207.304C86.9849 207.544 86.5129 207.96 86.1609 208.552C85.8089 209.144 85.6329 209.96 85.6329 211V217H83.6169ZM93.5597 202.456C93.1597 202.456 92.8237 202.328 92.5517 202.072C92.2957 201.8 92.1677 201.464 92.1677 201.064C92.1677 200.68 92.2957 200.36 92.5517 200.104C92.8237 199.848 93.1597 199.72 93.5597 199.72C93.9437 199.72 94.2717 199.848 94.5437 200.104C94.8157 200.36 94.9517 200.68 94.9517 201.064C94.9517 201.464 94.8157 201.8 94.5437 202.072C94.2717 202.328 93.9437 202.456 93.5597 202.456ZM92.5517 217V205.096H94.5677V217H92.5517ZM102.782 217C101.694 217 100.838 216.736 100.214 216.208C99.5899 215.68 99.2779 214.728 99.2779 213.352V206.8H97.2139V205.096H99.2779L99.5419 202.24H101.294V205.096H104.798V206.8H101.294V213.352C101.294 214.104 101.446 214.616 101.75 214.888C102.054 215.144 102.59 215.272 103.358 215.272H104.606V217H102.782ZM112.383 217.288C111.247 217.288 110.239 217.032 109.359 216.52C108.479 215.992 107.783 215.264 107.271 214.336C106.775 213.408 106.527 212.312 106.527 211.048C106.527 209.8 106.775 208.712 107.271 207.784C107.767 206.84 108.455 206.112 109.335 205.6C110.231 205.072 111.263 204.808 112.431 204.808C113.583 204.808 114.575 205.072 115.407 205.6C116.255 206.112 116.903 206.792 117.351 207.64C117.799 208.488 118.023 209.4 118.023 210.376C118.023 210.552 118.015 210.728 117.999 210.904C117.999 211.08 117.999 211.28 117.999 211.504H108.519C108.567 212.416 108.775 213.176 109.143 213.784C109.527 214.376 109.999 214.824 110.559 215.128C111.135 215.432 111.743 215.584 112.383 215.584C113.215 215.584 113.911 215.392 114.471 215.008C115.031 214.624 115.439 214.104 115.695 213.448H117.687C117.367 214.552 116.751 215.472 115.839 216.208C114.943 216.928 113.791 217.288 112.383 217.288ZM112.383 206.512C111.423 206.512 110.567 206.808 109.815 207.4C109.079 207.976 108.655 208.824 108.543 209.944H116.031C115.983 208.872 115.615 208.032 114.927 207.424C114.239 206.816 113.391 206.512 112.383 206.512ZM111.831 204.112V202.6L116.871 199.552V201.304L111.831 204.112Z" fill="black"/>
<defs>
<linearGradient id="paint0_linear_206_158" x1="76" y1="0" x2="76" y2="152" gradientUnits="userSpaceOnUse">
<stop stop-color="#3A73B7"/>
<stop offset="1" stop-color="#60BCB4"/>
</linearGradient>
</defs>
</svg>
