<svg width="658" height="378" viewBox="0 0 658 378" fill="none" xmlns="http://www.w3.org/2000/svg">
<path d="M515.601 255.344H646.797V351.749H515.601V255.344Z" fill="#EBEBEB"/>
<path d="M548.472 351.072C548.622 351.072 548.742 329.591 548.742 303.084C548.742 276.577 548.622 255.086 548.472 255.086C548.323 255.086 548.213 276.577 548.213 303.084C548.213 329.591 548.333 351.072 548.472 351.072Z" fill="#E0E0E0"/>
<path d="M526.722 329.805H536.781V340.636H526.722V329.805Z" fill="#FAFAFA"/>
<path d="M591.861 255.602H606.766V276.169H591.861V255.602Z" fill="#E0E0E0"/>
<path d="M591.861 330.891H606.766V351.458H591.861V330.891Z" fill="#E0E0E0"/>
<path d="M495.085 159.164H626.281V255.569H495.085V159.164Z" fill="#EBEBEB"/>
<path d="M527.963 254.875C528.103 254.875 528.223 233.394 528.223 206.887C528.223 180.38 528.103 158.898 527.963 158.898C527.823 158.898 527.703 180.38 527.703 206.887C527.703 233.394 527.813 254.875 527.963 254.875Z" fill="#E0E0E0"/>
<path d="M506.21 233.625H516.27V244.456H506.21V233.625Z" fill="#FAFAFA"/>
<path d="M571.357 159.406H586.262V179.974H571.357V159.406Z" fill="#E0E0E0"/>
<path d="M571.357 234.711H586.262V255.279H571.357V234.711Z" fill="#E0E0E0"/>
<path d="M504.101 81.8906H609.594V159.403H504.101V81.8906Z" fill="#F5F5F5"/>
<path d="M530.54 158.867C530.65 158.867 530.75 141.583 530.75 120.272C530.75 98.9622 530.65 81.6875 530.54 81.6875C530.43 81.6875 530.33 98.9622 530.33 120.272C530.33 141.583 530.42 158.867 530.54 158.867Z" fill="#E0E0E0"/>
<path d="M513.045 141.766H521.137V150.474H513.045V141.766Z" fill="#FAFAFA"/>
<path d="M565.428 82.0938H577.406V98.6356H565.428V82.0938Z" fill="#E0E0E0"/>
<path d="M565.428 142.633H577.406V159.175H565.428V142.633Z" fill="#E0E0E0"/>
<path d="M33.2041 135.703H132.293V208.514H33.2041V135.703Z" fill="#F5F5F5"/>
<path d="M58.0307 208.012C58.1405 208.012 58.2305 191.775 58.2305 171.759C58.2305 151.743 58.1405 135.516 58.0307 135.516C57.9208 135.516 57.8409 151.743 57.8409 171.759C57.8409 191.775 57.9208 208.012 58.0307 208.012Z" fill="#E0E0E0"/>
<path d="M41.6148 191.945H49.207V200.131H41.6148V191.945Z" fill="#FAFAFA"/>
<path d="M90.8079 135.898H102.066V151.431H90.8079V135.898Z" fill="#E0E0E0"/>
<path d="M90.8079 192.773H102.066V208.306H90.8079V192.773Z" fill="#E0E0E0"/>
<path d="M-0.000228882 292.242H114.203V376.17H-0.000228882V292.242Z" fill="#EBEBEB"/>
<path d="M28.5693 375.556C28.6892 375.556 28.7891 356.854 28.7891 333.783C28.7891 310.712 28.6892 292 28.5693 292C28.4494 292 28.3396 310.702 28.3396 333.783C28.3396 356.863 28.4794 375.556 28.5693 375.556Z" fill="#E0E0E0"/>
<path d="M9.67867 357.055H18.4297V366.487H9.67867V357.055Z" fill="#FAFAFA"/>
<path d="M66.3787 292.453H79.3555V310.356H66.3787V292.453Z" fill="#E0E0E0"/>
<path d="M66.3787 358.016H79.3555V375.919H66.3787V358.016Z" fill="#E0E0E0"/>
<path d="M15.7731 208.531H129.977V292.459H15.7731V208.531Z" fill="#EBEBEB"/>
<path d="M44.3835 291.853C44.5134 291.853 44.6133 273.151 44.6133 250.08C44.6133 227.009 44.5134 208.297 44.3835 208.297C44.2537 208.297 44.1537 226.999 44.1537 250.08C44.1537 273.16 44.2537 291.853 44.3835 291.853Z" fill="#E0E0E0"/>
<path d="M25.4521 273.344H34.2031V282.776H25.4521V273.344Z" fill="#FAFAFA"/>
<path d="M82.1561 208.734H95.1328V226.637H82.1561V208.734Z" fill="#E0E0E0"/>
<path d="M82.1561 274.305H95.1328V292.208H82.1561V274.305Z" fill="#E0E0E0"/>
<path d="M226.399 136.883H325.488V209.694H226.399V136.883Z" fill="#F5F5F5"/>
<path d="M251.22 209.184C251.33 209.184 251.41 192.947 251.41 172.931C251.41 152.915 251.33 136.688 251.22 136.688C251.11 136.688 251.021 152.868 251.021 172.931C251.021 192.994 251.11 209.184 251.22 209.184Z" fill="#E0E0E0"/>
<path d="M234.798 193.117H242.391V201.302H234.798V193.117Z" fill="#FAFAFA"/>
<path d="M283.995 137.07H295.254V152.603H283.995V137.07Z" fill="#E0E0E0"/>
<path d="M283.995 193.953H295.254V209.486H283.995V193.953Z" fill="#E0E0E0"/>
<path d="M217.606 64.2656H316.695V137.076H217.606V64.2656Z" fill="#EBEBEB"/>
<path d="M242.433 136.559C242.543 136.559 242.633 120.379 242.633 100.316C242.633 80.2522 242.543 64.0625 242.433 64.0625C242.323 64.0625 242.233 80.2427 242.233 100.316C242.233 120.388 242.353 136.559 242.433 136.559Z" fill="#E0E0E0"/>
<path d="M226.005 120.5H233.598V128.685H226.005V120.5Z" fill="#FAFAFA"/>
<path d="M275.206 64.4453H286.465V79.9783H275.206V64.4453Z" fill="#E0E0E0"/>
<path d="M275.206 121.32H286.465V136.853H275.206V121.32Z" fill="#E0E0E0"/>
<path d="M221.321 13.7188H292.219V65.8189H221.321V13.7188Z" fill="#EBEBEB"/>
<path d="M239.075 65.4586C239.155 65.4586 239.215 53.847 239.215 39.5228C239.215 25.1986 239.155 13.625 239.075 13.625C238.995 13.625 238.935 25.2366 238.935 39.5608C238.935 53.885 239.005 65.4586 239.075 65.4586Z" fill="#E0E0E0"/>
<path d="M227.327 53.9766H232.762V59.83H227.327V53.9766Z" fill="#FAFAFA"/>
<path d="M262.53 13.8594H270.582V24.9761H262.53V13.8594Z" fill="#E0E0E0"/>
<path d="M262.53 54.5547H270.582V65.6714H262.53V54.5547Z" fill="#E0E0E0"/>
<path d="M193.179 293.406H307.383V377.334H193.179V293.406Z" fill="#EBEBEB"/>
<path d="M221.79 376.736C221.92 376.736 222.02 358.034 222.02 334.963C222.02 311.892 221.92 293.18 221.79 293.18C221.66 293.18 221.57 311.882 221.57 334.963C221.57 358.043 221.67 376.736 221.79 376.736Z" fill="#E0E0E0"/>
<path d="M202.874 358.227H211.625V367.659H202.874V358.227Z" fill="#FAFAFA"/>
<path d="M259.574 293.617H272.551V311.52H259.574V293.617Z" fill="#E0E0E0"/>
<path d="M259.574 359.172H272.551V377.075H259.574V359.172Z" fill="#E0E0E0"/>
<path d="M208.968 209.703H323.172V293.631H208.968V209.703Z" fill="#EBEBEB"/>
<path d="M237.563 293.025C237.693 293.025 237.793 274.323 237.793 251.252C237.793 228.181 237.693 209.469 237.563 209.469C237.433 209.469 237.343 228.171 237.343 251.252C237.343 274.332 237.443 293.025 237.563 293.025Z" fill="#E0E0E0"/>
<path d="M218.647 274.516H227.398V283.948H218.647V274.516Z" fill="#FAFAFA"/>
<path d="M275.351 209.914H288.328V227.817H275.351V209.914Z" fill="#E0E0E0"/>
<path d="M275.351 275.469H288.328V293.372H275.351V275.469Z" fill="#E0E0E0"/>
<path d="M457.332 360.706V351.75H649.636C650.317 351.75 650.97 352.008 651.451 352.466C651.933 352.925 652.203 353.547 652.203 354.196V358.26C652.203 358.909 651.933 359.531 651.451 359.99C650.97 360.448 650.317 360.706 649.636 360.706H644.281V364.827C644.281 365.144 644.347 365.457 644.474 365.749C644.601 366.041 644.787 366.306 645.021 366.53C645.256 366.754 645.535 366.931 645.841 367.052C646.148 367.173 646.477 367.235 646.809 367.235H649.676C650.336 367.235 650.97 367.481 651.442 367.92C651.914 368.36 652.187 368.958 652.203 369.586V373.726C652.203 374.365 651.937 374.978 651.463 375.429C650.989 375.881 650.346 376.134 649.676 376.134H457.332V367.178H502.156V360.687L457.332 360.706ZM598.188 360.706H586.66V367.197H598.188V360.706ZM605.87 367.197H617.389V360.706H605.87V367.197ZM579.008 360.706H567.49V367.197H579.008V360.706ZM559.807 360.706H548.279V367.197H559.777L559.807 360.706ZM540.597 360.706H529.059V367.197H540.567L540.597 360.706ZM636.629 360.706H625.071V367.197H636.599L636.629 360.706ZM509.868 367.197H521.367V360.706H509.838L509.868 367.197Z" fill="#E0E0E0"/>
<path d="M463.821 174H567.895V250.485H463.821V174Z" fill="url(#paint0_linear_615_2681)"/>
<path opacity="0.3" d="M463.821 174H567.895V250.485H463.821V174Z" fill="black"/>
<path d="M489.893 249.939C489.983 249.939 490.062 232.893 490.062 211.868C490.062 190.843 489.983 173.797 489.893 173.797C489.803 173.797 489.723 190.843 489.723 211.868C489.723 232.893 489.803 249.939 489.893 249.939Z" fill="#263238"/>
<path d="M472.643 233.078H480.625V241.673H472.643V233.078Z" fill="#F5F5F5"/>
<path d="M524.327 174.195H536.145V190.518H524.327V174.195Z" fill="#263238"/>
<path d="M524.327 233.938H536.145V250.26H524.327V233.938Z" fill="#263238"/>
<path d="M464.716 174.002H464.986H465.765H468.762L479.821 174.05H516.294H552.777L563.825 173.993L552.777 173.945H516.294H479.821L468.762 173.993H465.765H464.986L464.716 174.002Z" fill="#263238"/>
<path d="M377.18 173.906H481.254V250.391H377.18V173.906Z" fill="url(#paint1_linear_615_2681)"/>
<path d="M403.252 249.845C403.342 249.845 403.422 232.799 403.422 211.774C403.422 190.749 403.342 173.703 403.252 173.703C403.162 173.703 403.082 190.74 403.082 211.774C403.082 232.808 403.192 249.845 403.252 249.845Z" fill="#263238"/>
<path d="M385.999 232.984H393.98V241.579H385.999V232.984Z" fill="#F5F5F5"/>
<path opacity="0.5" d="M437.682 174.102H449.5V190.424H437.682V174.102Z" fill="white"/>
<path opacity="0.5" d="M437.682 233.836H449.5V250.159H437.682V233.836Z" fill="white"/>
<path d="M378.343 173.902H379.133H382.129L393.178 173.949H429.651H466.134L477.192 173.902L466.134 173.844L429.651 173.797L393.178 173.844L382.129 173.902H379.133H378.343Z" fill="#263238"/>
<path d="M371.332 97.4219H475.406V173.906H371.332V97.4219Z" fill="url(#paint2_linear_615_2681)"/>
<path d="M397.408 173.368C397.508 173.368 397.578 156.322 397.578 135.298C397.578 114.273 397.508 97.2266 397.408 97.2266C397.308 97.2266 397.238 114.263 397.238 135.298C397.238 156.332 397.318 173.368 397.408 173.368Z" fill="#263238"/>
<path d="M380.155 156.5H388.137V165.095H380.155V156.5Z" fill="#F5F5F5"/>
<path d="M431.842 97.6172H443.66V113.94H431.842V97.6172Z" fill="#263238"/>
<path d="M431.842 157.352H443.66V173.674H431.842V157.352Z" fill="#263238"/>
<path d="M372.22 97.3774C372.306 97.3916 372.394 97.3916 372.48 97.3774H373.269H376.266H387.315L423.788 97.425L460.27 97.3774H471.329H474.326H475.115C475.201 97.3916 475.289 97.3916 475.375 97.3774H475.115H474.326H471.329L460.27 97.3203H423.788H387.315L376.266 97.3774H373.269H372.48H372.22Z" fill="#263238"/>
<path d="M382.457 335.636V326.68H574.751C575.433 326.68 576.087 326.937 576.57 327.396C577.053 327.854 577.325 328.476 577.328 329.126V333.19C577.325 333.839 577.053 334.462 576.57 334.92C576.087 335.378 575.433 335.636 574.751 335.636H569.396V339.709C569.396 340.351 569.664 340.966 570.139 341.419C570.615 341.872 571.261 342.127 571.934 342.127H574.791C575.462 342.127 576.106 342.38 576.581 342.832C577.057 343.283 577.325 343.895 577.328 344.535V348.647C577.325 349.286 577.057 349.899 576.581 350.35C576.106 350.801 575.462 351.055 574.791 351.055H382.457V342.098H427.281V335.607L382.457 335.636ZM523.313 335.636H511.795V342.127H523.303L523.313 335.636ZM530.995 342.127H542.514V335.636H530.985L530.995 342.127ZM504.083 335.636H492.555V342.127H504.083V335.636ZM484.873 335.636H473.354V342.127H484.892L484.873 335.636ZM465.672 335.636H454.134V342.127H465.692L465.672 335.636ZM561.694 335.636H550.176V342.127H561.714L561.694 335.636ZM434.943 342.127H446.492V335.636H434.963L434.943 342.127Z" fill="#455A64"/>
<path d="M227.463 181.344C227.148 181.037 226.901 180.673 226.735 180.275C226.569 179.876 226.489 179.449 226.498 179.02C226.507 178.591 226.606 178.168 226.789 177.776C226.972 177.384 227.235 177.031 227.563 176.737L260 147.527C260.648 146.948 261.504 146.625 262.393 146.625C263.282 146.625 264.137 146.948 264.785 147.527C265.126 147.829 265.4 148.193 265.592 148.597C265.783 149.001 265.888 149.437 265.9 149.88C265.912 150.324 265.831 150.765 265.662 151.178C265.493 151.591 265.239 151.968 264.915 152.286L251.978 165.249L258.711 171.426L262.218 168.771L286.683 195.468L299.76 183.485L315.523 227.657L312.397 287.619H276.134L278.671 216.359L254.346 183.352L254.156 175.5L247.163 168.675L232.089 181.505C231.435 182.06 230.582 182.353 229.707 182.323C228.832 182.293 228.003 181.942 227.393 181.344H227.463Z" fill="#263238"/>
<path d="M325.272 298.721C325.411 298.721 325.531 244.013 325.531 176.542C325.531 109.071 325.411 54.3438 325.272 54.3438C325.132 54.3438 325.012 109.042 325.012 176.542C325.012 244.042 325.162 298.721 325.272 298.721Z" fill="#263238"/>
<path d="M244.102 283.308L222.044 224.917L230.336 221.719V210.44L170.027 209.555C168.606 209.529 167.242 209.012 166.191 208.1C165.14 207.187 164.473 205.942 164.313 204.596L155.442 129.577C155.243 127.9 154.403 126.351 153.082 125.225C151.761 124.1 150.051 123.478 148.279 123.477C147.308 123.476 146.346 123.662 145.452 124.025C144.558 124.387 143.75 124.919 143.077 125.586C142.404 126.254 141.88 127.045 141.537 127.911C141.193 128.776 141.036 129.699 141.077 130.624L144.453 207.927L112.965 208.089L111.897 222.185L205.021 225.659L229.307 282.47L244.102 283.308Z" fill="#455A64"/>
<path d="M230.229 281.877L308.629 282.467V287.445L276.152 287.045L224.425 286.664L99.0129 269.799L113.228 218.251H198.142C199.61 218.23 201.061 218.551 202.37 219.184C203.679 219.818 204.806 220.745 205.654 221.887L230.229 281.877Z" fill="#263238"/>
<path d="M267.796 66.3106L324.738 239.467L324.339 287.636H306.287V239.771L259.595 66.777L133.084 66.1012L108.889 246.301H94.6132L124.053 67.3671C124.516 65.0265 125.823 62.9136 127.747 61.3931C129.671 59.8725 132.092 59.04 134.592 59.0391H257.527C259.832 59.0381 262.075 59.745 263.925 61.0549C265.775 62.3647 267.133 64.2077 267.796 66.3106Z" fill="#455A64"/>
<path d="M335.02 343.268V297.012L324.39 287.637L224.492 286.409L206.511 272.475C203.162 269.885 199.04 268.366 194.733 268.135L175.492 267.098C175.492 267.098 166.861 261.435 158.51 255.819C147.933 248.679 135.29 244.841 122.327 244.836H66.9532C64.9422 244.836 63.0136 245.597 61.5917 246.952C60.1697 248.307 59.3709 250.144 59.3709 252.06V343.268H335.02Z" fill="url(#paint3_linear_615_2681)"/>
<path d="M59.3885 328.367H335.996V343.577H59.3885V328.367Z" fill="#263238"/>
<path d="M321.684 343.099C321.784 349.544 319.875 355.873 316.2 361.285C312.525 366.697 307.247 370.948 301.035 373.502C294.823 376.056 287.956 376.798 281.302 375.633C274.647 374.468 268.505 371.45 263.652 366.959C258.798 362.468 255.452 356.706 254.035 350.403C252.619 344.1 253.196 337.538 255.694 331.548C258.193 325.558 262.499 320.407 268.07 316.749C273.64 313.091 280.224 311.089 286.989 310.996C296.058 310.871 304.807 314.183 311.313 320.203C317.819 326.223 321.55 334.459 321.684 343.099Z" fill="#263238"/>
<path d="M321.671 343.031C321.671 343.031 321.671 343.079 321.671 343.107C321.723 351.7 318.21 359.965 311.898 366.102C305.586 372.24 296.985 375.754 287.966 375.879C278.948 376.005 270.243 372.732 263.745 366.772C257.247 360.813 253.483 352.65 253.271 344.059C253.271 344.059 253.271 344.002 253.271 343.973L321.671 343.031Z" fill="#263238"/>
<path d="M311.494 343.246C311.555 347.76 310.21 352.19 307.629 355.977C305.049 359.764 301.348 362.737 296.995 364.521C292.642 366.305 287.832 366.82 283.172 366.002C278.512 365.183 274.211 363.066 270.812 359.92C267.414 356.774 265.07 352.739 264.077 348.324C263.084 343.91 263.487 339.314 265.234 335.117C266.981 330.92 269.994 327.311 273.893 324.744C277.791 322.178 282.401 320.77 287.139 320.698C290.293 320.65 293.427 321.196 296.359 322.304C299.292 323.412 301.966 325.061 304.229 327.156C306.491 329.25 308.298 331.75 309.545 334.511C310.791 337.272 311.454 340.24 311.494 343.246Z" fill="#FAFAFA"/>
<path d="M287.137 320.698C290.291 320.65 293.425 321.196 296.357 322.304C299.29 323.412 301.964 325.061 304.227 327.156C306.489 329.25 308.296 331.75 309.543 334.511C310.789 337.272 311.452 340.24 311.492 343.246L263.471 343.902C263.421 340.897 263.994 337.912 265.157 335.118C266.32 332.324 268.05 329.776 270.249 327.62C272.447 325.465 275.071 323.744 277.969 322.556C280.867 321.368 283.982 320.737 287.137 320.698Z" fill="#E0E0E0"/>
<path d="M302.112 343.373C302.148 346.129 301.324 348.832 299.747 351.142C298.17 353.452 295.909 355.264 293.25 356.35C290.592 357.436 287.655 357.746 284.811 357.242C281.968 356.737 279.345 355.441 277.275 353.516C275.204 351.592 273.78 349.126 273.18 346.43C272.581 343.734 272.835 340.929 273.908 338.37C274.982 335.811 276.828 333.613 279.213 332.054C281.598 330.495 284.415 329.644 287.307 329.61C291.185 329.567 294.923 330.992 297.699 333.573C300.475 336.153 302.062 339.678 302.112 343.373Z" fill="#263238"/>
<path d="M154.317 343.099C154.417 349.544 152.508 355.873 148.833 361.285C145.157 366.697 139.88 370.948 133.668 373.502C127.456 376.056 120.589 376.798 113.934 375.633C107.28 374.468 101.138 371.45 96.2844 366.959C91.431 362.468 88.0845 356.706 86.6681 350.403C85.2517 344.1 85.8291 337.538 88.3272 331.548C90.8254 325.558 95.132 320.407 100.702 316.749C106.273 313.091 112.857 311.089 119.622 310.996C128.691 310.871 137.44 314.183 143.946 320.203C150.452 326.223 154.182 334.459 154.317 343.099Z" fill="#263238"/>
<path d="M154.3 343.031C154.3 343.031 154.3 343.079 154.3 343.107C154.352 351.7 150.839 359.965 144.527 366.102C138.215 372.24 129.613 375.754 120.595 375.879C111.577 376.005 102.872 372.732 96.374 366.772C89.8762 360.813 86.1118 352.65 85.9001 344.059C85.9001 344.059 85.9001 344.002 85.9001 343.973L154.3 343.031Z" fill="#263238"/>
<path d="M144.127 343.246C144.188 347.76 142.843 352.19 140.262 355.977C137.682 359.764 133.981 362.737 129.628 364.521C125.275 366.305 120.465 366.82 115.805 366.002C111.145 365.183 106.844 363.066 103.445 359.92C100.047 356.774 97.703 352.739 96.7101 348.324C95.7172 343.91 96.1197 339.314 97.8666 335.117C99.6136 330.92 102.627 327.311 106.525 324.744C110.424 322.178 115.034 320.77 119.772 320.698C122.926 320.65 126.06 321.196 128.992 322.304C131.925 323.412 134.599 325.061 136.862 327.156C139.124 329.25 140.931 331.75 142.177 334.511C143.424 337.272 144.087 340.24 144.127 343.246Z" fill="#FAFAFA"/>
<path d="M119.77 320.698C122.924 320.65 126.058 321.196 128.99 322.304C131.923 323.412 134.597 325.061 136.86 327.156C139.122 329.25 140.929 331.75 142.175 334.511C143.422 337.272 144.085 340.24 144.125 343.246L96.104 343.902C96.0538 340.897 96.6267 337.912 97.7897 335.118C98.9528 332.324 100.683 329.776 102.882 327.62C105.08 325.465 107.704 323.744 110.602 322.556C113.5 321.368 116.615 320.737 119.77 320.698Z" fill="#E0E0E0"/>
<path d="M134.733 343.373C134.769 346.128 133.946 348.83 132.37 351.14C130.794 353.449 128.535 355.261 125.878 356.348C123.221 357.434 120.286 357.746 117.443 357.244C114.6 356.742 111.978 355.448 109.906 353.526C107.835 351.605 106.408 349.141 105.805 346.447C105.203 343.753 105.452 340.949 106.521 338.39C107.59 335.831 109.432 333.631 111.813 332.068C114.194 330.506 117.008 329.651 119.898 329.611C121.822 329.584 123.731 329.92 125.518 330.597C127.305 331.275 128.934 332.282 130.312 333.56C131.69 334.839 132.79 336.363 133.549 338.047C134.307 339.731 134.71 341.541 134.733 343.373Z" fill="#263238"/>
<path d="M75.6048 320.376C75.6672 320.304 75.7239 320.228 75.7746 320.148L76.2141 319.462L76.9134 318.339C77.219 317.825 77.5524 317.326 77.9124 316.845C80.1064 313.701 82.6964 310.824 85.6245 308.279C86.5036 307.432 87.5725 306.699 88.6214 305.852C89.6704 305.005 90.8692 304.282 92.0679 303.473C93.2667 302.664 94.5854 301.921 96.0039 301.265C96.6932 300.922 97.3925 300.551 98.1118 300.218L100.359 299.266C103.548 297.985 106.87 297.028 110.269 296.41C113.918 295.742 117.635 295.474 121.348 295.611C128.544 295.994 135.56 297.899 141.887 301.188L144.025 302.331C144.714 302.73 145.364 303.168 146.023 303.568C147.371 304.348 148.53 305.3 149.719 306.128C150.908 306.956 151.937 307.898 152.916 308.803C153.895 309.707 154.854 310.573 155.653 311.496C158.315 314.296 160.606 317.397 162.476 320.728C162.789 321.238 163.069 321.766 163.315 322.308C163.545 322.765 163.745 323.155 163.905 323.488L164.274 324.212C164.313 324.295 164.36 324.375 164.414 324.45C164.397 324.36 164.367 324.274 164.324 324.193L164.005 323.45L163.465 322.251C163.229 321.7 162.959 321.163 162.656 320.643C160.843 317.255 158.58 314.104 155.923 311.268C155.134 310.316 154.145 309.478 153.196 308.527C152.247 307.575 151.108 306.737 149.989 305.805C148.87 304.872 147.631 304.006 146.283 303.206C145.623 302.797 144.964 302.359 144.285 301.95L142.137 300.779C139.065 299.192 135.827 297.916 132.477 296.972C128.869 295.962 125.152 295.349 121.398 295.145C114.123 294.874 106.876 296.159 100.19 298.904L97.9319 299.856C97.2027 300.189 96.5034 300.57 95.8041 300.922C94.3756 301.588 93.1268 302.445 91.8082 303.168C90.4895 303.891 89.4207 304.767 88.3518 305.595C87.2829 306.423 86.2339 307.204 85.3548 308.06C82.4301 310.647 79.8652 313.58 77.7226 316.788C77.3605 317.278 77.027 317.786 76.7236 318.311L76.0743 319.462C75.9044 319.758 75.7746 319.986 75.6747 320.176C75.5748 320.367 75.5948 320.367 75.6048 320.376Z" fill="#263238"/>
<path d="M242.825 326.378C242.883 326.298 242.93 326.212 242.965 326.121C243.045 325.921 243.155 325.664 243.294 325.34L243.834 324.074C244.074 323.579 244.343 323.008 244.643 322.371C246.384 318.774 248.553 315.379 251.106 312.253C254.832 307.568 259.584 303.713 265.032 300.956C268.295 299.438 271.755 298.34 275.322 297.691C279.143 296.941 283.04 296.603 286.94 296.682C290.84 296.734 294.721 297.21 298.508 298.1C302.031 298.941 305.428 300.204 308.618 301.86C314.066 304.62 318.938 308.307 322.993 312.739C325.689 315.742 328.034 319.017 329.986 322.504C330.685 323.741 331.215 324.712 331.544 325.359C331.704 325.673 331.844 325.921 331.944 326.111C331.982 326.2 332.032 326.283 332.094 326.358C332.076 326.265 332.042 326.175 331.994 326.092L331.634 325.321C331.335 324.636 330.835 323.655 330.166 322.399C328.274 318.853 325.961 315.525 323.273 312.482C319.223 307.98 314.332 304.233 308.847 301.432C305.627 299.757 302.196 298.477 298.638 297.624C294.812 296.724 290.891 296.242 286.95 296.187C283.008 296.122 279.07 296.48 275.212 297.253C271.605 297.917 268.108 299.038 264.812 300.584C259.319 303.39 254.544 307.316 250.827 312.082C248.284 315.245 246.148 318.686 244.463 322.332L243.704 324.055C243.514 324.56 243.344 325.007 243.214 325.34C243.085 325.673 242.995 325.93 242.925 326.14C242.882 326.215 242.848 326.295 242.825 326.378Z" fill="#263238"/>
<path d="M335.09 326.68H486.715V343.574H335.09V326.68Z" fill="#263238"/>
<path d="M339.196 333.855C339.196 334.687 339.455 335.501 339.941 336.192C340.426 336.884 341.115 337.423 341.922 337.742C342.729 338.06 343.617 338.144 344.473 337.981C345.33 337.819 346.117 337.418 346.734 336.83C347.352 336.242 347.772 335.492 347.942 334.676C348.113 333.86 348.025 333.014 347.691 332.245C347.357 331.477 346.791 330.82 346.065 330.357C345.339 329.895 344.485 329.648 343.612 329.648C342.441 329.648 341.318 330.092 340.49 330.881C339.662 331.67 339.196 332.74 339.196 333.855Z" fill="#455A64"/>
<path d="M337.077 57.7109H349.734V297.253H337.077V57.7109Z" fill="#455A64"/>
<path d="M157.084 310.904C157.084 311.037 178.422 311.151 204.735 311.151C231.048 311.151 252.387 311.037 252.387 310.904C252.387 310.77 231.058 310.656 204.735 310.656C178.412 310.656 157.084 310.77 157.084 310.904Z" fill="#263238"/>
<path d="M176.502 307.309C176.652 307.309 176.762 298.467 176.762 287.56C176.762 276.653 176.652 267.82 176.502 267.82C176.352 267.82 176.242 276.653 176.242 287.56C176.242 298.467 176.362 307.309 176.502 307.309Z" fill="#263238"/>
<path d="M325.26 52.2188H351.094V63.2022H325.26V52.2188Z" fill="#263238"/>
<path d="M335.09 295.273H351.723V326.891H335.09V295.273Z" fill="#263238"/>
<path d="M373.711 250.422H477.785V326.906H373.711V250.422Z" fill="url(#paint4_linear_615_2681)"/>
<path opacity="0.3" d="M373.711 250.422H477.785V326.906H373.711V250.422Z" fill="black"/>
<path d="M399.783 326.361C399.873 326.361 399.953 309.314 399.953 288.29C399.953 267.265 399.873 250.219 399.783 250.219C399.693 250.219 399.613 267.265 399.613 288.29C399.613 309.314 399.693 326.361 399.783 326.361Z" fill="#263238"/>
<path d="M382.53 309.492H390.512V318.087H382.53V309.492Z" fill="#F5F5F5"/>
<path d="M434.217 250.617H446.035V266.94H434.217V250.617Z" fill="#263238"/>
<path d="M434.217 310.344H446.035V326.667H434.217V310.344Z" fill="#263238"/>
<path d="M374.617 250.422H374.877H375.666H378.663L389.722 250.469L426.165 250.622H462.648L473.696 250.574H476.693H477.482H477.742C477.656 250.566 477.569 250.566 477.482 250.574H476.693H473.696L462.648 250.527L426.165 250.479L389.692 250.527L378.633 250.574H375.636H374.847C374.776 250.516 374.699 250.465 374.617 250.422Z" fill="#263238"/>
<path d="M482.879 250.422H586.953V326.906H482.879V250.422Z" fill="url(#paint5_linear_615_2681)"/>
<path d="M508.943 326.361C509.043 326.361 509.113 309.314 509.113 288.29C509.113 267.265 509.043 250.219 508.943 250.219C508.844 250.219 508.784 267.265 508.784 288.29C508.784 309.314 508.854 326.361 508.943 326.361Z" fill="#263238"/>
<path d="M491.69 309.492H499.672V318.087H491.69V309.492Z" fill="#F5F5F5"/>
<path opacity="0.5" d="M543.373 250.617H555.191V266.94H543.373V250.617Z" fill="white"/>
<path opacity="0.5" d="M543.373 310.344H555.191V326.667H543.373V310.344Z" fill="white"/>
<path d="M483.779 250.415H484.049H484.828H487.825L498.873 250.463H535.346H571.829L582.888 250.415H585.885H586.664H586.934C586.844 250.408 586.754 250.408 586.664 250.415H585.885H582.888L571.829 250.368L535.346 250.32L498.873 250.368L487.825 250.415H484.828H484.049C483.959 250.407 483.869 250.407 483.779 250.415Z" fill="#263238"/>
<path d="M55.0234 271.203C49.6589 272.44 45.1535 277.628 45.2434 282.891C45.3573 285.527 46.3755 288.055 48.1421 290.087C49.9086 292.119 52.326 293.543 55.0234 294.141" fill="url(#paint6_linear_615_2681)"/>
<g opacity="0.6">
<path d="M55.0273 271.203C49.6628 272.44 45.1574 277.628 45.2474 282.891C45.3612 285.527 46.3795 288.055 48.146 290.087C49.9126 292.119 52.3299 293.543 55.0273 294.141" fill="white"/>
</g>
<path d="M54.8092 268.258H59.3945V297.201H54.8092V268.258Z" fill="url(#paint7_linear_615_2681)"/>
<path opacity="0.3" d="M54.8092 268.258H59.3945V297.201H54.8092V268.258Z" fill="black"/>
<path d="M272.973 152.263C273.524 151.855 273.903 151.273 274.041 150.621C274.178 149.969 274.065 149.292 273.722 148.713C272.953 147.437 272.054 145.934 271.644 145.306C271.144 144.562 270.687 143.794 270.275 143.002C270.149 142.529 269.885 142.1 269.514 141.763C269.143 141.426 268.68 141.196 268.178 141.099C266.957 140.949 265.72 140.984 264.511 141.203L252.014 143.773L246.19 146.514L251.854 151.273L255.001 150.321C255.95 151.102 259.656 151.511 260.915 151.368C262.523 151.178 265.74 150.179 267.568 150.512L269.336 150.75L268.497 151.416C266.96 151.311 265.422 151.61 264.052 152.282C263.833 152.423 263.665 152.625 263.573 152.86C263.48 153.096 263.467 153.353 263.535 153.596C263.603 153.84 263.749 154.056 263.953 154.217C264.157 154.377 264.408 154.472 264.671 154.49L268.777 154.747C269.888 154.25 270.957 153.671 271.974 153.015C272.292 152.747 272.625 152.496 272.973 152.263Z" fill="#FFBE9D"/>
<path d="M269.324 150.791C269.526 150.922 269.753 151.013 269.993 151.057C270.646 151.239 271.339 151.239 271.991 151.057C272.46 150.911 272.874 150.636 273.18 150.268C273.355 150.044 273.479 149.788 273.545 149.516C273.61 149.244 273.615 148.962 273.56 148.688C273.485 148.373 273.302 148.092 273.04 147.888C272.78 147.707 272.489 147.569 272.181 147.479C271.583 147.29 270.972 147.14 270.353 147.031C269.175 146.815 267.984 146.669 266.786 146.594C266.237 146.594 265.718 146.537 265.218 146.537H264.839H264.539C264.33 146.509 264.124 146.47 263.919 146.422C263.069 146.162 262.206 145.943 261.332 145.766C262.108 146.203 262.951 146.524 263.83 146.717C264.041 146.785 264.258 146.836 264.479 146.87C264.612 146.885 264.746 146.885 264.878 146.87H265.218C265.688 146.87 266.217 146.927 266.747 146.974C267.923 147.073 269.093 147.229 270.253 147.441C270.848 147.545 271.435 147.685 272.011 147.86C272.591 148.021 273.01 148.269 273.09 148.716C273.134 148.929 273.134 149.147 273.09 149.359C273.045 149.572 272.957 149.774 272.83 149.953C272.572 150.271 272.226 150.515 271.831 150.658C271.235 150.857 270.597 150.912 269.973 150.82C269.594 150.81 269.324 150.743 269.324 150.791Z" fill="#EB996E"/>
<path d="M267.777 144.586C267.637 144.586 267.397 145.176 267.647 145.928C267.897 146.68 268.456 147.08 268.546 146.975C268.636 146.87 268.336 146.413 268.137 145.785C267.937 145.157 267.927 144.605 267.777 144.586Z" fill="#EB996E"/>
<path d="M265.818 145.337C265.678 145.337 265.638 145.813 265.988 146.288C266.338 146.764 266.807 146.802 266.857 146.669C266.907 146.536 266.647 146.308 266.398 145.984C266.148 145.66 265.968 145.318 265.818 145.337Z" fill="#EB996E"/>
<path d="M216.622 142.686C214.904 142.001 226.492 153.355 226.492 153.355L247.91 145.741L255.473 150.167L232.446 165.614C230.08 167.204 227.194 167.935 224.312 167.673C221.429 167.411 218.74 166.174 216.732 164.187L203.136 149.215L216.622 142.686Z" fill="#FFBE9D"/>
<path d="M204.063 97.1832C207.06 96.6312 208.918 95.7555 208.998 94.661C209.157 92.3958 201.615 90.0735 192.145 89.4548C182.674 88.8361 174.882 90.1877 174.712 92.4434C174.643 93.5379 176.351 94.642 179.208 95.5652" fill="url(#paint8_linear_615_2681)"/>
<g opacity="0.4">
<path d="M202.398 96.9979C205.045 96.522 206.773 95.7415 206.773 94.7707C206.773 92.0582 200.23 90.6971 191.839 90.1546C183.447 89.6121 176.524 90.8018 176.384 92.8101C176.315 93.7618 177.833 94.7136 180.38 95.5702" fill="black"/>
</g>
<path d="M206.719 93.4505C206.719 93.4505 204.951 83.6949 204.771 83.2094C204.591 82.724 202.024 78.3459 195.241 76.6993L189.566 76.3281C189.566 76.3281 181.335 78.2793 179.736 80.0591C178.138 81.8389 176.859 90.8617 176.859 90.8617L193.003 88.5965L203.642 91.804L206.719 93.4505Z" fill="url(#paint9_linear_615_2681)"/>
<path d="M193.464 75.4862L195.902 75.6385C196.47 76.3568 196.753 77.2435 196.701 78.1417C196.701 79.8263 196.271 91.3809 196.271 91.3809L189.179 90.6194L190.407 76.3809L187.96 76.7426L188.09 75.9336L188.779 75.2578L193.464 75.4862Z" fill="url(#paint10_linear_615_2681)"/>
<path d="M178.638 128.667L196.021 129.028C196.24 127.287 196.081 116.389 196.081 116.389C196.081 116.389 202.694 115.837 203.223 109.603C203.753 103.368 203.633 90.8432 203.633 90.8432L203.563 90.2911C196.2 86.7029 187.439 85.8559 180.586 90.234L179.587 90.8812L178.638 128.667Z" fill="#FFBE9D"/>
<path d="M196.078 116.413C193.051 116.208 190.149 115.181 187.716 113.453C187.716 113.453 189.524 118.212 196.098 118.031L196.078 116.413Z" fill="#EB996E"/>
<path d="M179.887 97.3839C179.777 97.3839 175.481 95.8325 175.321 100.106C175.162 104.379 179.697 103.647 179.707 103.532C179.717 103.418 179.887 97.3839 179.887 97.3839Z" fill="#FFBE9D"/>
<path d="M178.418 101.861C178.418 101.861 178.338 101.918 178.208 101.966C178.115 102.004 178.015 102.023 177.913 102.023C177.812 102.023 177.712 102.004 177.619 101.966C177.336 101.781 177.11 101.527 176.964 101.231C176.818 100.935 176.758 100.607 176.79 100.281C176.79 99.9147 176.879 99.5533 177.049 99.2247C177.097 99.0927 177.177 98.9736 177.283 98.8775C177.389 98.7814 177.518 98.7111 177.659 98.6726C177.749 98.6543 177.842 98.666 177.924 98.7059C178.006 98.7458 178.071 98.8113 178.108 98.8916C178.168 99.0153 178.108 99.101 178.158 99.1105C178.208 99.12 178.258 99.0438 178.228 98.863C178.203 98.7564 178.144 98.6599 178.058 98.587C177.937 98.4943 177.783 98.4499 177.629 98.4633C177.443 98.4914 177.268 98.565 177.121 98.6767C176.974 98.7885 176.86 98.9346 176.79 99.1009C176.577 99.4464 176.45 99.834 176.42 100.234C176.376 100.618 176.455 101.006 176.648 101.346C176.841 101.686 177.138 101.962 177.499 102.137C177.618 102.176 177.744 102.189 177.869 102.174C177.994 102.159 178.113 102.117 178.218 102.051C178.418 101.966 178.418 101.871 178.418 101.861Z" fill="#EB996E"/>
<path d="M201.469 98.5458C201.442 98.7797 201.324 98.9957 201.14 99.1521C200.956 99.3085 200.717 99.3943 200.47 99.3929C200.229 99.3929 199.997 99.3016 199.827 99.1392C199.656 98.9768 199.561 98.7565 199.561 98.5268C199.588 98.2929 199.705 98.0769 199.889 97.9205C200.074 97.7641 200.313 97.6783 200.56 97.6797C200.801 97.6797 201.032 97.771 201.202 97.9334C201.373 98.0958 201.469 98.3161 201.469 98.5458Z" fill="#263238"/>
<path d="M201.764 97.6636C201.644 97.7683 200.964 97.2258 199.955 97.1592C198.947 97.0926 198.177 97.5304 198.077 97.4066C197.978 97.2829 198.167 97.1497 198.497 96.9498C198.956 96.6928 199.485 96.5734 200.015 96.6072C200.54 96.6397 201.04 96.8296 201.444 97.1497C201.734 97.3781 201.824 97.616 201.764 97.6636Z" fill="#263238"/>
<path d="M191.543 98.1883C191.537 98.3067 191.506 98.4227 191.452 98.5296C191.398 98.6365 191.322 98.7321 191.229 98.811C191.136 98.8898 191.028 98.9502 190.91 98.9887C190.793 99.0273 190.668 99.0431 190.544 99.0354C190.425 99.0354 190.307 99.0129 190.198 98.9693C190.088 98.9257 189.988 98.8617 189.905 98.7812C189.821 98.7006 189.755 98.605 189.71 98.5C189.666 98.395 189.644 98.2826 189.645 98.1693C189.651 98.0509 189.682 97.9349 189.736 97.828C189.79 97.7211 189.865 97.6255 189.958 97.5467C190.051 97.4678 190.16 97.4074 190.277 97.3689C190.395 97.3304 190.52 97.3145 190.644 97.3222C190.763 97.3222 190.88 97.3447 190.99 97.3883C191.1 97.4319 191.199 97.4959 191.283 97.5765C191.367 97.657 191.433 97.7526 191.477 97.8576C191.522 97.9626 191.544 98.075 191.543 98.1883Z" fill="#263238"/>
<path d="M191.857 97.2036C191.738 97.3178 191.068 96.7753 190.059 96.7086C189.05 96.642 188.281 97.0798 188.181 96.9561C188.081 96.8324 188.261 96.6991 188.601 96.4897C189.055 96.2317 189.582 96.1152 190.109 96.1566C190.635 96.1845 191.136 96.375 191.538 96.6991C191.827 96.9466 191.917 97.156 191.857 97.2036Z" fill="#263238"/>
<path d="M195.005 104.543C195.549 104.427 196.106 104.369 196.663 104.372C196.923 104.372 197.173 104.372 197.223 104.163C197.264 103.913 197.222 103.656 197.103 103.43L196.474 101.526C195.889 99.8992 195.434 98.2319 195.115 96.5391C195.845 98.1148 196.44 99.7445 196.893 101.412C197.103 102.078 197.303 102.716 197.493 103.316C197.624 103.618 197.645 103.953 197.553 104.267C197.509 104.351 197.445 104.423 197.367 104.479C197.289 104.535 197.199 104.573 197.103 104.591C196.957 104.609 196.809 104.609 196.663 104.591C196.111 104.646 195.553 104.63 195.005 104.543Z" fill="#263238"/>
<path d="M191.999 104.984C192.169 104.984 192.089 106.022 192.998 106.821C193.907 107.621 194.996 107.583 194.996 107.773C194.996 107.963 194.726 107.954 194.227 107.935C193.59 107.899 192.986 107.654 192.519 107.24C192.071 106.836 191.803 106.285 191.769 105.698C191.789 105.251 191.929 104.984 191.999 104.984Z" fill="#263238"/>
<path d="M192.406 93.4535C192.286 93.7104 191.297 93.5201 190.109 93.5867C188.92 93.6533 187.941 93.8913 187.801 93.6438C187.661 93.3963 187.921 93.2916 188.32 93.0632C188.853 92.7812 189.449 92.6245 190.059 92.6064C190.669 92.5767 191.278 92.6843 191.837 92.9205C192.236 93.1203 192.406 93.3392 192.406 93.4535Z" fill="#263238"/>
<path d="M201.596 94.8656C201.396 95.0655 200.726 94.799 199.887 94.7323C199.048 94.6657 198.339 94.7799 198.189 94.542C198.039 94.304 198.259 94.2184 198.579 94.028C199.011 93.8084 199.501 93.7156 199.988 93.7614C200.475 93.8071 200.937 93.9893 201.316 94.285C201.596 94.5229 201.676 94.7609 201.596 94.8656Z" fill="#263238"/>
<path d="M179.421 93.3349C179.471 95.0767 179.291 96.8184 179.341 98.5602C179.4 99.2181 179.576 99.8617 179.86 100.464C179.955 100.812 180.162 101.124 180.453 101.355C180.743 101.586 181.102 101.724 181.479 101.75C181.856 101.777 182.232 101.689 182.555 101.501C182.877 101.313 183.13 101.034 183.277 100.702C183.633 100.014 183.824 99.26 183.836 98.4935C183.843 97.7262 183.978 96.9648 184.236 96.2378C184.662 95.4841 185.171 94.7758 185.754 94.1249C186.041 93.7941 186.243 93.4046 186.346 92.9868C186.448 92.569 186.447 92.1344 186.344 91.7169C183.926 91.6463 181.533 92.2023 179.421 93.3254" fill="#263238"/>
<path d="M203.636 94.1068L203.746 90.6138L193.257 86.8828L179.621 89.7381L179.361 93.4881C187.241 90.7439 195.922 90.9652 203.636 94.1068Z" fill="#455A64"/>
<path d="M203.12 89.8276L203.56 90.2845L207.246 92.8447C202.419 91.3037 197.409 90.3445 192.331 89.9894C186.755 89.8682 181.183 90.3665 175.728 91.4742L181.003 88.8949C181.859 88.1331 182.867 87.5427 183.967 87.1585C185.067 86.7743 186.236 86.6042 187.406 86.6582L197.037 87.096C198.189 87.1481 199.32 87.4162 200.364 87.8849C201.408 88.3536 202.344 89.0138 203.12 89.8276Z" fill="url(#paint11_linear_615_2681)"/>
<path d="M196.403 86.7808C196.225 85.1591 196.179 83.5268 196.263 81.8982C196.221 80.2668 196.308 78.6346 196.523 77.0156C196.712 78.6366 196.759 80.2698 196.662 81.8982C196.71 83.5297 196.624 85.1623 196.403 86.7808Z" fill="#263238"/>
<path d="M187.97 76.7479C188.561 76.5405 189.18 76.4124 189.808 76.3672C190.002 76.3815 190.184 76.4647 190.317 76.6003C190.451 76.736 190.525 76.9143 190.527 77.1001L190.467 78.128C190.397 78.8608 190.338 79.6413 190.268 80.4503C190.128 82.1064 189.968 83.6007 189.838 84.6762C189.809 85.2659 189.709 85.8504 189.538 86.4179C189.466 85.833 189.466 85.2421 189.538 84.6571C189.598 83.5721 189.708 82.0778 189.858 80.4313C189.938 79.6127 190.008 78.8323 190.078 78.0994C190.078 77.7568 190.158 77.4237 190.188 77.1001C190.189 76.9871 190.147 76.8775 190.07 76.7918C189.993 76.706 189.885 76.6498 189.768 76.6337C189.173 76.7179 188.572 76.7561 187.97 76.7479Z" fill="#263238"/>
<path d="M207.496 92.8214C207.496 92.8214 207.057 92.612 206.247 92.2789C205.848 92.1076 205.358 91.9172 204.799 91.6222C204.15 91.3025 203.596 90.8309 203.19 90.2516C202.721 89.5854 202.691 88.7002 202.192 88.034C201.692 87.3677 200.653 87.2631 199.634 87.1679C197.576 86.949 195.309 86.7872 192.921 86.692C190.533 86.5968 188.246 86.5778 186.178 86.5968C185.229 86.5211 184.281 86.7561 183.491 87.2631C183.171 87.5544 182.88 87.873 182.622 88.2148L182.212 88.6812L182.002 88.9001C181.916 88.9746 181.818 89.0356 181.712 89.0809C180.234 89.6425 179.025 90.0327 178.196 90.2897C177.776 90.4551 177.346 90.5949 176.907 90.7085C177.004 90.6413 177.108 90.5839 177.217 90.5372C177.427 90.442 177.736 90.3087 178.146 90.1469C178.945 89.8138 180.144 89.4141 181.583 88.8335C181.658 88.8007 181.728 88.7591 181.792 88.7098L181.982 88.4908L182.372 88.0245C182.644 87.6846 182.945 87.3663 183.271 87.0727C184.111 86.4972 185.136 86.221 186.168 86.2923C188.246 86.2923 190.533 86.2922 192.931 86.3589C195.329 86.4255 197.616 86.6254 199.684 86.8633C200.196 86.9015 200.703 86.9778 201.203 87.0917C201.681 87.208 202.102 87.4809 202.391 87.8627C202.971 88.6431 202.971 89.5283 203.39 90.1184C203.757 90.6718 204.266 91.1271 204.869 91.4413C205.398 91.7459 205.868 91.9648 206.277 92.1552C206.687 92.3455 206.967 92.5073 207.166 92.6215C207.286 92.6727 207.397 92.74 207.496 92.8214Z" fill="#263238"/>
<path d="M206.022 93.2655C205.926 93.2264 205.835 93.1752 205.753 93.1132C205.583 92.999 205.323 92.8467 204.984 92.6659C203.996 92.198 202.962 91.8249 201.897 91.5523C198.364 90.6684 194.719 90.2646 191.068 90.353C188.92 90.353 186.882 90.353 185.074 90.4292C183.266 90.5053 181.567 90.7813 180.189 91.0003C179.57 91.1004 178.956 91.2306 178.351 91.3905C177.893 91.4697 177.46 91.6453 177.082 91.9044C176.932 92.0182 176.812 92.1632 176.731 92.3282C176.65 92.4932 176.609 92.6739 176.613 92.8562C176.557 92.7642 176.536 92.6567 176.553 92.5516C176.588 92.2488 176.737 91.9683 176.972 91.7617C177.352 91.4608 177.8 91.2489 178.281 91.143C178.891 90.9624 179.512 90.8131 180.139 90.6957C181.76 90.3937 183.398 90.1745 185.044 90.039C186.912 89.9057 188.97 89.9438 191.108 89.9343C194.794 89.8398 198.473 90.286 202.017 91.2572C203.096 91.5485 204.133 91.9674 205.103 92.5041C205.365 92.6504 205.613 92.8193 205.843 93.0085C205.963 93.1798 206.032 93.2559 206.022 93.2655Z" fill="#263238"/>
<path d="M194.852 75.8678C194.519 75.8921 194.185 75.8921 193.853 75.8678L191.435 75.7822C190.496 75.7822 189.627 75.6394 189.027 75.6965C188.865 75.7025 188.705 75.7422 188.561 75.8128C188.416 75.8835 188.289 75.9835 188.188 76.1058C188.188 76.1058 188.188 76.0106 188.328 75.8869C188.519 75.7203 188.76 75.6168 189.017 75.5918C189.825 75.5319 190.637 75.5319 191.445 75.5918L193.863 75.7251C194.197 75.7371 194.529 75.785 194.852 75.8678Z" fill="#FAFAFA"/>
<path d="M195.27 87.1601C195.1 87.1765 194.929 87.1765 194.76 87.1601H193.381C192.213 87.1601 190.604 87.1601 188.826 87.1601L186.319 87.2172C185.649 87.2137 184.981 87.2646 184.321 87.3695C183.873 87.4579 183.472 87.6897 183.182 88.0262C183.085 88.1529 183.005 88.2904 182.942 88.4355C182.961 88.2726 183.027 88.1179 183.132 87.9881C183.415 87.6231 183.826 87.3665 184.291 87.2648C184.949 87.1434 185.618 87.0797 186.289 87.0744C187.058 87.0744 187.907 87.0173 188.796 87.0078C190.584 87.0078 192.193 87.0078 193.362 87.0554L194.74 87.122C194.917 87.1198 195.095 87.1325 195.27 87.1601Z" fill="#FAFAFA"/>
<path d="M190.008 85.4707C189.994 85.3568 189.994 85.2419 190.008 85.128C190.008 84.8139 190.097 84.5094 190.147 84.1763C190.257 83.3863 190.397 82.2727 190.527 81.083C190.657 79.8933 190.727 78.7797 190.777 77.9897C190.777 77.6661 190.797 77.3489 190.837 77.038C190.819 76.9243 190.819 76.8089 190.837 76.6953C190.851 76.8091 190.851 76.9242 190.837 77.038C190.837 77.2569 190.837 77.5805 190.837 77.9897C190.837 78.7892 190.757 79.8933 190.637 81.102C190.517 82.3108 190.347 83.4053 190.207 84.1858C190.137 84.5855 190.067 84.8996 190.018 85.1375C190.031 85.2485 190.028 85.3607 190.008 85.4707Z" fill="#FAFAFA"/>
<path d="M181.695 89.2656C181.594 89.3212 181.487 89.3658 181.376 89.3989L180.497 89.713L177.579 90.6647C177.042 90.828 176.515 91.0219 176.001 91.2453C175.591 91.4256 175.261 91.7394 175.072 92.1305C174.949 92.3967 174.918 92.6932 174.982 92.9775C175.052 93.1679 175.132 93.2631 175.112 93.2726C175.028 93.1953 174.963 93.101 174.922 92.9966C174.809 92.7048 174.809 92.3841 174.922 92.0924C175.122 91.6698 175.478 91.3314 175.921 91.1406C176.436 90.9001 176.971 90.6996 177.52 90.541L180.457 89.5892L181.346 89.3227C181.459 89.2901 181.577 89.2709 181.695 89.2656Z" fill="#FAFAFA"/>
<path d="M255.528 259.349L254.619 274.806C254.619 274.806 270.802 280.868 270.922 283.733L239.414 283.143L239.794 259.016L255.528 259.349Z" fill="url(#paint12_linear_615_2681)"/>
<g opacity="0.4">
<path d="M255.531 259.357L254.622 274.813C254.622 274.813 270.806 280.876 270.926 283.741L239.418 283.151L239.798 259.023L255.531 259.357Z" fill="black"/>
</g>
<path d="M244.913 273.321C244.608 273.402 244.344 273.588 244.175 273.843C244.005 274.098 243.94 274.404 243.994 274.701C244.068 274.995 244.258 275.249 244.524 275.412C244.79 275.575 245.112 275.634 245.423 275.577C245.752 275.498 246.039 275.303 246.224 275.031C246.409 274.759 246.48 274.431 246.422 274.111C246.31 273.814 246.083 273.57 245.787 273.428C245.492 273.286 245.15 273.258 244.833 273.35" fill="#E0E0E0"/>
<path d="M239.421 283.138L239.561 280.711L269.72 282.186C269.72 282.186 271.109 282.795 270.929 283.728L239.421 283.138Z" fill="#E0E0E0"/>
<path d="M255.132 274.664C255.132 274.807 254.362 274.854 253.593 275.311C252.824 275.768 252.404 276.377 252.264 276.32C252.125 276.263 252.374 275.416 253.313 274.883C254.252 274.35 255.172 274.531 255.132 274.664Z" fill="#263238"/>
<path d="M258.418 276.031C258.418 276.173 257.779 276.411 257.239 276.982C256.7 277.553 256.54 278.248 256.39 278.239C256.24 278.229 256.15 277.392 256.83 276.649C257.509 275.907 258.418 275.888 258.418 276.031Z" fill="#263238"/>
<path d="M260.214 279.829C260.074 279.829 259.875 279.115 260.284 278.325C260.694 277.535 261.423 277.221 261.483 277.373C261.543 277.525 261.093 277.916 260.764 278.572C260.434 279.229 260.334 279.81 260.214 279.829Z" fill="#263238"/>
<path d="M254.927 271.11C254.858 271.243 254.158 271.034 253.289 271.11C252.42 271.186 251.731 271.396 251.661 271.272C251.591 271.148 252.24 270.634 253.269 270.596C254.298 270.558 255.007 270.996 254.927 271.11Z" fill="#263238"/>
<g opacity="0.3">
<path d="M255.344 262.412L255.194 265.162L239.71 264.734L239.74 262.25L255.344 262.412Z" fill="black"/>
</g>
<path d="M255.051 268.003C254.533 268.133 253.99 268.133 253.472 268.003C252.908 267.89 252.359 267.717 251.834 267.489C251.525 267.347 251.225 267.188 250.935 267.013C250.763 266.911 250.606 266.79 250.465 266.651C250.37 266.543 250.314 266.409 250.305 266.269C250.296 266.128 250.335 265.989 250.416 265.871C250.494 265.77 250.597 265.688 250.715 265.632C250.833 265.575 250.963 265.546 251.095 265.547C251.295 265.543 251.494 265.572 251.684 265.633C252.029 265.713 252.364 265.828 252.683 265.976C253.212 266.22 253.697 266.541 254.122 266.927C254.831 267.584 255.071 268.136 255.021 268.165C254.971 268.193 254.601 267.746 253.872 267.213C253.443 266.896 252.973 266.634 252.473 266.432C252.182 266.315 251.882 266.219 251.574 266.147C251.245 266.052 250.965 266.052 250.875 266.147C250.785 266.242 250.875 266.223 250.875 266.318C250.976 266.42 251.09 266.51 251.215 266.585C251.481 266.756 251.758 266.911 252.044 267.051C252.526 267.292 253.031 267.489 253.552 267.641C254.061 267.722 254.563 267.843 255.051 268.003Z" fill="#263238"/>
<path d="M254.853 268.201C254.793 268.201 254.504 267.697 254.464 266.745C254.452 266.187 254.537 265.631 254.713 265.099C254.818 264.768 254.959 264.449 255.133 264.147C255.22 263.953 255.357 263.784 255.532 263.656C255.707 263.528 255.913 263.444 256.132 263.414C256.272 263.42 256.407 263.463 256.522 263.539C256.637 263.614 256.727 263.72 256.781 263.842C256.855 264.02 256.906 264.205 256.931 264.394C256.981 264.729 256.981 265.069 256.931 265.403C256.83 265.965 256.587 266.494 256.222 266.945C255.592 267.716 254.943 267.897 254.933 267.83C254.923 267.764 255.423 267.478 255.932 266.745C256.214 266.318 256.395 265.837 256.462 265.337C256.506 265.05 256.506 264.758 256.462 264.471C256.462 264.147 256.302 263.89 256.172 263.919C256.042 263.947 255.742 264.147 255.612 264.404C255.446 264.659 255.309 264.93 255.203 265.213C255.014 265.693 254.9 266.196 254.863 266.707C254.783 267.63 254.933 268.182 254.853 268.201Z" fill="#263238"/>
<path d="M170.425 193.704C170.425 193.704 173.872 210.531 179.586 210.769C186.579 211.054 237.377 211.721 237.377 211.721L234.36 265.601L256.517 265.096L265.328 211.997C266.313 207.233 265.476 202.291 262.971 198.063L262.791 197.768C260.898 194.801 258.236 192.347 255.061 190.642C251.886 188.937 248.304 188.038 244.66 188.031L202.473 187.422L170.425 193.704Z" fill="#263238"/>
<path d="M246.904 259.349L246.005 274.806C246.005 274.806 262.189 280.868 262.309 283.733L230.801 283.143L231.18 259.016L246.904 259.349Z" fill="url(#paint13_linear_615_2681)"/>
<path d="M236.3 273.321C235.994 273.402 235.731 273.588 235.561 273.843C235.391 274.098 235.327 274.404 235.381 274.701C235.452 274.996 235.642 275.252 235.908 275.415C236.175 275.579 236.498 275.637 236.809 275.577C237.139 275.498 237.425 275.303 237.611 275.031C237.796 274.759 237.866 274.431 237.808 274.111C237.697 273.814 237.47 273.57 237.174 273.428C236.878 273.286 236.537 273.258 236.22 273.35" fill="#E0E0E0"/>
<path d="M230.808 283.138L230.948 280.711L261.107 282.186C261.107 282.186 262.496 282.795 262.316 283.728L230.808 283.138Z" fill="#E0E0E0"/>
<path d="M246.518 274.664C246.518 274.807 245.739 274.854 244.98 275.311C244.221 275.768 243.791 276.377 243.651 276.32C243.511 276.263 243.761 275.416 244.7 274.883C245.639 274.35 246.558 274.531 246.518 274.664Z" fill="#263238"/>
<path d="M249.797 276.031C249.797 276.173 249.158 276.411 248.628 276.982C248.099 277.553 247.929 278.248 247.779 278.239C247.629 278.229 247.539 277.392 248.218 276.649C248.898 275.907 249.797 275.888 249.797 276.031Z" fill="#263238"/>
<path d="M251.605 279.829C251.455 279.829 251.265 279.115 251.675 278.325C252.084 277.535 252.814 277.221 252.873 277.373C252.933 277.525 252.484 277.916 252.154 278.572C251.825 279.229 251.755 279.81 251.605 279.829Z" fill="#263238"/>
<path d="M246.352 271.11C246.282 271.243 245.582 271.034 244.713 271.11C243.844 271.186 243.155 271.396 243.085 271.272C243.015 271.148 243.664 270.634 244.693 270.596C245.722 270.558 246.352 270.996 246.352 271.11Z" fill="#263238"/>
<g opacity="0.3">
<path d="M246.73 262.412L246.571 265.162L231.096 264.734L231.126 262.25L246.73 262.412Z" fill="black"/>
</g>
<path d="M246.441 268.003C245.924 268.133 245.38 268.133 244.863 268.003C244.299 267.89 243.749 267.717 243.225 267.489C242.915 267.349 242.614 267.19 242.326 267.013C242.154 266.911 241.996 266.79 241.856 266.651C241.761 266.543 241.705 266.409 241.696 266.269C241.687 266.128 241.726 265.989 241.806 265.871C241.885 265.77 241.987 265.688 242.105 265.632C242.223 265.575 242.353 265.546 242.485 265.547C242.686 265.543 242.885 265.572 243.075 265.633C243.42 265.713 243.755 265.828 244.074 265.976C244.601 266.217 245.083 266.539 245.502 266.927C246.222 267.584 246.501 268.136 246.411 268.165C246.322 268.193 245.992 267.746 245.263 267.213C244.834 266.896 244.364 266.634 243.864 266.432C243.573 266.315 243.272 266.219 242.965 266.147C242.635 266.052 242.356 266.052 242.266 266.147C242.176 266.242 242.266 266.223 242.266 266.318C242.367 266.42 242.481 266.51 242.605 266.585C242.872 266.756 243.149 266.911 243.434 267.051C243.917 267.292 244.422 267.489 244.943 267.641C245.452 267.722 245.953 267.843 246.441 268.003Z" fill="#263238"/>
<path d="M246.24 268.201C246.18 268.201 245.89 267.697 245.85 266.745C245.834 266.187 245.919 265.63 246.1 265.099C246.205 264.768 246.345 264.449 246.52 264.147C246.606 263.953 246.744 263.784 246.919 263.656C247.094 263.528 247.3 263.444 247.519 263.414C247.658 263.42 247.793 263.463 247.908 263.539C248.023 263.614 248.113 263.72 248.168 263.842C248.242 264.02 248.293 264.205 248.318 264.394C248.368 264.729 248.368 265.069 248.318 265.403C248.217 265.965 247.973 266.494 247.608 266.945C246.979 267.716 246.33 267.897 246.32 267.83C246.31 267.764 246.809 267.478 247.319 266.745C247.601 266.318 247.781 265.837 247.848 265.337C247.893 265.05 247.893 264.758 247.848 264.471C247.798 264.147 247.678 263.89 247.559 263.919C247.439 263.947 247.129 264.147 246.999 264.404C246.833 264.659 246.695 264.93 246.59 265.213C246.401 265.693 246.287 266.196 246.25 266.707C246.17 267.63 246.35 268.182 246.24 268.201Z" fill="#263238"/>
<path d="M164.871 193.704C164.871 193.704 168.308 210.531 174.032 210.769C181.025 211.054 231.823 211.721 231.823 211.721L228.736 265.601L250.893 265.096L259.754 211.997C260.738 207.233 259.902 202.291 257.397 198.063L257.217 197.768C255.323 194.799 252.659 192.345 249.482 190.64C246.305 188.934 242.722 188.036 239.075 188.031L196.898 187.422L164.871 193.704Z" fill="#263238"/>
<path d="M208.09 126.155L201.397 168.49L205.922 187.525L164.824 199.051C161.108 193.988 160.968 177.912 161.098 166.539C161.328 146.494 160.399 145.523 161.308 138.49C162.217 131.456 163.765 126.945 167.661 124.727L178.87 119.273C178.87 119.273 185.183 123.081 189.029 122.9C189.029 122.9 193.595 123.081 196.122 120.768C196.122 120.739 205.393 123.404 208.09 126.155Z" fill="url(#paint14_linear_615_2681)"/>
<path d="M208.089 126.156L221.785 144.145L203.134 154.576L204.563 148.038L208.089 126.156Z" fill="url(#paint15_linear_615_2681)"/>
<path d="M240.725 188.29C240.804 188.305 240.886 188.305 240.965 188.29L241.654 188.337C242.033 188.361 242.41 188.406 242.783 188.47C243.291 188.529 243.795 188.618 244.291 188.737C247.473 189.481 250.411 190.966 252.843 193.058C254.515 194.493 255.952 196.158 257.108 197.998C258.432 200.105 259.254 202.464 259.516 204.908C259.755 207.622 259.647 210.355 259.196 213.045C258.787 215.901 258.197 218.756 257.888 221.792C257.178 227.788 256.229 233.48 255.34 238.648C254.451 243.816 253.592 248.451 252.903 252.373C252.213 256.294 251.674 259.444 251.344 261.643C251.194 262.709 251.075 263.546 250.985 264.174C250.985 264.441 250.925 264.65 250.905 264.831C250.896 264.907 250.896 264.984 250.905 265.06C250.936 264.99 250.956 264.916 250.965 264.841C250.965 264.66 251.045 264.451 251.104 264.184L251.554 261.671C251.974 259.444 252.553 256.303 253.272 252.43C253.992 248.556 254.861 243.864 255.82 238.724C256.779 233.584 257.708 227.864 258.417 221.84C258.737 218.841 259.306 215.948 259.706 213.112C260.163 210.383 260.26 207.611 259.995 204.86C259.72 202.355 258.864 199.939 257.488 197.788C256.299 195.919 254.817 194.234 253.092 192.791C250.601 190.691 247.59 189.23 244.341 188.547C243.154 188.305 241.937 188.219 240.725 188.29Z" fill="#455A64"/>
<path d="M224.979 175.224C224.979 175.224 209.126 180.097 196.798 184.352C194.705 185.076 192.457 185.294 190.254 184.989C188.05 184.683 185.961 183.863 184.171 182.6C181.881 180.992 180.184 178.732 179.326 176.147L170.885 150.811L184.98 146.109L194.401 168.885L229.465 164.498" fill="#FFBE9D"/>
<path d="M245.948 169.994L246.078 168.795C245.992 167.909 245.606 167.074 244.979 166.415C244.64 166.055 244.233 165.759 243.78 165.54L239.635 163.474C239.019 163.176 238.32 163.069 237.637 163.17L229.135 164.55L219.375 165.768L221.373 176.371L225.889 174.943C225.889 174.943 229.155 176.666 231.173 176.257C231.173 176.257 233.041 177.446 233.811 176.571C233.811 176.571 235.479 177.941 236.108 177.855C236.738 177.77 237.976 177.075 237.926 176.666L237.876 176.114C238.197 176.281 238.558 176.361 238.923 176.346C239.288 176.331 239.641 176.221 239.944 176.028C240.376 175.709 240.705 175.28 240.893 174.791C241.672 174.713 242.408 174.411 243.001 173.925C243.394 173.376 243.657 172.752 243.77 172.097C243.77 172.097 245.639 171.231 245.948 169.994Z" fill="#FFBE9D"/>
<path d="M239.676 166.164C239.616 166.164 239.516 166.602 239.726 167.268C240.036 168.112 240.549 168.875 241.225 169.495C241.974 170.228 242.673 170.828 243.103 171.323C243.532 171.818 243.762 172.16 243.832 172.132C243.902 172.103 243.832 171.684 243.392 171.113C242.863 170.407 242.265 169.75 241.604 169.153C240.98 168.567 240.46 167.889 240.066 167.144C239.796 166.573 239.766 166.164 239.676 166.164Z" fill="#EB996E"/>
<path d="M238.061 170.402C238.536 172.104 239.569 173.617 241.008 174.723C240.64 173.934 240.17 173.192 239.609 172.515C238.8 171.334 238.201 170.335 238.061 170.402Z" fill="#EB996E"/>
<path d="M235.891 173.194C235.771 173.27 236.121 173.956 236.68 174.736C237.239 175.517 237.779 176.088 237.899 176.002C238.019 175.916 237.659 175.231 237.11 174.46C236.56 173.689 236.011 173.118 235.891 173.194Z" fill="#EB996E"/>
<path d="M236.288 172.09C236.288 172.147 236.508 172.156 236.768 172.004C236.937 171.896 237.08 171.756 237.189 171.592C237.297 171.428 237.368 171.244 237.397 171.052C237.432 170.864 237.423 170.672 237.371 170.488C237.32 170.303 237.226 170.132 237.097 169.986C236.908 169.767 236.718 169.71 236.668 169.758C236.618 169.805 236.997 170.338 236.888 170.976C236.778 171.614 236.228 171.966 236.288 172.09Z" fill="#EB996E"/>
<path d="M233.926 174.924C233.926 174.981 234.106 174.99 234.325 174.924C234.466 174.844 234.588 174.738 234.684 174.612C234.78 174.486 234.849 174.343 234.885 174.191C234.947 174.025 234.954 173.845 234.906 173.675C234.858 173.505 234.756 173.353 234.615 173.239C234.355 173.068 234.156 173.182 234.176 173.239C234.286 173.338 234.364 173.465 234.399 173.606C234.435 173.746 234.426 173.893 234.375 174.029C234.266 174.514 233.866 174.8 233.926 174.924Z" fill="#EB996E"/>
<path d="M237.669 169.059C237.669 169.116 237.889 169.164 238.188 169.059C238.388 168.966 238.559 168.826 238.686 168.652C238.812 168.478 238.889 168.276 238.909 168.066C238.929 167.855 238.892 167.643 238.8 167.45C238.709 167.257 238.567 167.09 238.388 166.965C238.119 166.784 237.899 166.803 237.889 166.86C237.879 166.917 238.448 167.346 238.388 168.021C238.328 168.697 237.629 168.945 237.669 169.059Z" fill="#EB996E"/>
<path d="M170.815 128.155C174.032 126.822 177.998 128.155 180.325 130.477C182.653 132.799 183.722 135.835 184.721 138.786C185.72 141.736 188.097 147.418 189.066 150.264L170.795 157.717C169.237 153.7 167.785 149.649 166.44 145.562C165.301 142.136 164.242 138.443 165.56 135.036" fill="url(#paint16_linear_615_2681)"/>
<path d="M165.563 135.039C165.481 135.17 165.417 135.311 165.373 135.458C165.214 135.868 165.097 136.292 165.023 136.724C164.737 138.341 164.781 139.996 165.153 141.597C165.712 144.035 166.45 146.433 167.361 148.773C168.36 151.495 169.359 154.531 170.548 157.796L170.638 158.034L170.897 157.929L183.764 152.695L189.179 150.486L189.398 150.391L189.329 150.201C187.85 146.051 186.202 142.254 184.963 138.78C184.421 137.096 183.753 135.452 182.965 133.859C182.26 132.437 181.292 131.148 180.108 130.052C178.299 128.426 175.902 127.526 173.415 127.539C172.735 127.559 172.062 127.675 171.417 127.882C171.2 127.954 170.989 128.043 170.787 128.148C171.63 127.882 172.508 127.735 173.395 127.711C175.804 127.76 178.105 128.675 179.838 130.271C180.966 131.342 181.887 132.596 182.555 133.973C183.313 135.559 183.954 137.194 184.473 138.865C185.682 142.396 187.331 146.213 188.779 150.334L188.929 150.049L183.504 152.257L170.658 157.511L171.007 157.644C169.828 154.379 168.73 151.362 167.741 148.65C166.81 146.33 166.039 143.955 165.433 141.54C165.047 139.982 164.952 138.371 165.153 136.781C165.363 135.629 165.603 135.049 165.563 135.039Z" fill="#263238"/>
<path d="M188.978 177.578C189.038 177.578 189.178 176.627 189.797 174.885C190.178 173.858 190.684 172.877 191.306 171.963C192.098 170.761 193.189 169.764 194.482 169.06H194.433L214.222 166.604L226.21 165.072L231.415 164.387L235.94 163.692L237.938 163.397C238.498 163.302 239.075 163.4 239.566 163.673L242.134 164.853L243.762 165.586C243.948 165.683 244.146 165.757 244.352 165.805C244.181 165.687 244 165.582 243.812 165.491L242.224 164.682L239.696 163.426C239.153 163.116 238.514 162.994 237.888 163.083L235.89 163.349L231.365 163.978L226.15 164.625L214.162 166.119L194.403 168.698H194.343C192.99 169.443 191.859 170.505 191.056 171.782C190.442 172.726 189.955 173.739 189.607 174.799C189.387 175.463 189.214 176.141 189.088 176.826C189.023 177.073 188.986 177.325 188.978 177.578Z" fill="#EB996E"/>
<path d="M201.399 167.809C201.537 167.362 201.627 166.903 201.669 166.439C201.839 165.487 202.049 164.212 202.298 162.698C202.868 159.453 203.617 155.132 204.446 150.325C205.275 145.519 206.035 141.226 206.594 137.952C206.844 136.439 207.044 135.173 207.203 134.202C207.307 133.745 207.361 133.28 207.363 132.812C207.199 133.251 207.079 133.704 207.004 134.164L206.234 137.895C205.605 141.045 204.776 145.395 203.927 150.268C203.078 155.141 202.378 159.472 201.929 162.641C201.699 164.231 201.549 165.496 201.459 166.448C201.393 166.899 201.373 167.355 201.399 167.809Z" fill="#263238"/>
<path d="M12.0891 376.146C12.0891 376.289 156.681 376.393 334.999 376.393C513.317 376.393 657.93 376.289 657.93 376.146C657.93 376.003 513.367 375.898 334.979 375.898C156.592 375.898 12.0891 376.013 12.0891 376.146Z" fill="#263238"/>
<path d="M638.571 344.421C640.18 346.486 643.167 345.706 644.515 344.421C645.864 343.136 646.413 341.223 646.903 339.433C648.012 335.35 649.121 331.067 648.092 326.965C647.842 325.718 647.233 324.561 646.333 323.624C645.88 323.163 645.307 322.824 644.672 322.64C644.037 322.456 643.363 322.435 642.717 322.577C641.209 322.996 640.31 324.433 639.66 325.794C637.78 329.809 636.855 334.171 636.953 338.567C636.874 340.629 637.441 342.667 638.581 344.421" fill="url(#paint17_linear_615_2681)"/>
<g opacity="0.2">
<path d="M638.567 344.421C640.176 346.486 643.163 345.706 644.511 344.421C645.86 343.136 646.409 341.223 646.899 339.433C648.008 335.35 649.117 331.067 648.088 326.965C647.838 325.718 647.23 324.561 646.329 323.624C645.876 323.163 645.303 322.824 644.668 322.64C644.034 322.456 643.359 322.435 642.713 322.577C641.205 322.996 640.306 324.433 639.656 325.794C637.776 329.809 636.851 334.171 636.949 338.567C636.87 340.629 637.437 342.667 638.577 344.421" fill="black"/>
</g>
<path d="M644.663 354.924C647.219 353.704 650.117 353.294 652.935 353.754C654.472 353.849 655.932 354.424 657.091 355.391C658.15 356.447 658.389 358.341 657.241 359.303C656.492 359.804 655.586 360.046 654.673 359.988C652.475 359.988 650.028 359.712 648.31 361.016C647.311 361.768 646.691 362.977 645.503 363.357C644.908 363.506 644.279 363.466 643.711 363.243C643.143 363.019 642.667 362.625 642.356 362.12C641.754 361.084 641.593 359.868 641.906 358.722C642.029 357.93 642.342 357.175 642.82 356.517C643.298 355.858 643.929 355.313 644.663 354.924Z" fill="url(#paint18_linear_615_2681)"/>
<path d="M634.414 347.545C635.182 346.538 635.68 345.367 635.863 344.134C636.046 342.901 635.908 341.644 635.463 340.473C634.563 338.137 633.004 336.082 630.958 334.534C628.605 332.652 625.891 331.223 622.966 330.327C621.834 329.925 620.624 329.763 619.419 329.852C618.819 329.899 618.24 330.087 617.733 330.397C617.227 330.707 616.807 331.131 616.512 331.631C615.723 333.145 616.572 334.944 617.511 336.39C619.094 338.967 620.888 341.421 622.876 343.728C624.474 345.584 626.292 347.412 628.67 348.211C631.048 349.011 633.485 348.839 634.664 347.26" fill="url(#paint19_linear_615_2681)"/>
<path d="M639.358 376.157C639.433 375.845 639.47 375.526 639.468 375.205C639.528 374.501 639.588 373.625 639.668 372.588C639.767 371.311 639.937 370.04 640.178 368.781C640.492 367.233 640.936 365.712 641.506 364.231C642.062 362.747 642.84 361.346 643.814 360.072C644.607 359.04 645.63 358.188 646.811 357.579C647.611 357.171 648.474 356.888 649.368 356.741C649.707 356.725 650.042 356.671 650.367 356.579C650.035 356.547 649.7 356.547 649.368 356.579C648.44 356.668 647.536 356.917 646.701 357.312C645.456 357.914 644.373 358.78 643.534 359.844C642.521 361.134 641.717 362.562 641.147 364.079C640.558 365.558 640.106 367.084 639.798 368.638C639.574 369.923 639.431 371.22 639.368 372.521C639.368 373.635 639.308 374.53 639.308 375.148C639.29 375.485 639.306 375.823 639.358 376.157Z" fill="#263238"/>
<path d="M639.49 374.14C639.512 373.992 639.512 373.841 639.49 373.693C639.49 373.36 639.49 372.941 639.49 372.427C639.49 371.332 639.41 369.734 639.42 367.773C639.42 363.833 639.61 358.398 640.13 352.411C640.649 346.425 641.418 340.99 642.128 337.183C642.297 336.231 642.467 335.336 642.637 334.575C642.807 333.814 642.927 333.147 643.057 332.605C643.186 332.062 643.266 331.653 643.336 331.367C643.375 331.224 643.399 331.078 643.406 330.93C643.406 330.93 643.336 331.072 643.256 331.348C643.176 331.624 643.047 332.072 642.907 332.576C642.767 333.081 642.587 333.766 642.407 334.527C642.227 335.289 642.028 336.164 641.838 337.135C640.84 342.171 640.127 347.255 639.7 352.364C639.181 358.36 639.021 363.785 639.101 367.763C639.101 369.733 639.221 371.332 639.31 372.427C639.31 372.941 639.39 373.379 639.42 373.693C639.433 373.843 639.457 373.993 639.49 374.14Z" fill="#263238"/>
<path d="M639.223 363.637C639.264 363.193 639.264 362.748 639.223 362.304C639.143 361.457 638.993 360.229 638.693 358.735C637.901 354.826 636.612 351.022 634.857 347.409C633.167 343.757 630.798 340.426 627.864 337.577C627.351 337.092 626.808 336.637 626.236 336.216C625.986 336.026 625.766 335.835 625.547 335.683L624.917 335.293C624.54 335.039 624.142 334.813 623.728 334.617C625.104 335.592 626.415 336.648 627.654 337.777C630.505 340.648 632.822 343.96 634.507 347.571C635.46 349.543 636.277 351.571 636.955 353.643C637.531 355.331 638.014 357.047 638.403 358.783C638.733 360.267 638.933 361.486 639.063 362.323C639.085 362.764 639.138 363.203 639.223 363.637Z" fill="#263238"/>
<defs>
<linearGradient id="paint0_linear_615_2681" x1="515.858" y1="174" x2="515.858" y2="250.485" gradientUnits="userSpaceOnUse">
<stop stop-color="#3A73B7"/>
<stop offset="1" stop-color="#60BCB4"/>
</linearGradient>
<linearGradient id="paint1_linear_615_2681" x1="429.217" y1="173.906" x2="429.217" y2="250.391" gradientUnits="userSpaceOnUse">
<stop stop-color="#3A73B7"/>
<stop offset="1" stop-color="#60BCB4"/>
</linearGradient>
<linearGradient id="paint2_linear_615_2681" x1="423.369" y1="97.4219" x2="423.369" y2="173.906" gradientUnits="userSpaceOnUse">
<stop stop-color="#3A73B7"/>
<stop offset="1" stop-color="#60BCB4"/>
</linearGradient>
<linearGradient id="paint3_linear_615_2681" x1="197.195" y1="244.836" x2="197.195" y2="343.268" gradientUnits="userSpaceOnUse">
<stop stop-color="#3A73B7"/>
<stop offset="1" stop-color="#60BCB4"/>
</linearGradient>
<linearGradient id="paint4_linear_615_2681" x1="425.748" y1="250.422" x2="425.748" y2="326.906" gradientUnits="userSpaceOnUse">
<stop stop-color="#3A73B7"/>
<stop offset="1" stop-color="#60BCB4"/>
</linearGradient>
<linearGradient id="paint5_linear_615_2681" x1="534.916" y1="250.422" x2="534.916" y2="326.906" gradientUnits="userSpaceOnUse">
<stop stop-color="#3A73B7"/>
<stop offset="1" stop-color="#60BCB4"/>
</linearGradient>
<linearGradient id="paint6_linear_615_2681" x1="50.1328" y1="271.203" x2="50.1328" y2="294.141" gradientUnits="userSpaceOnUse">
<stop stop-color="#3A73B7"/>
<stop offset="1" stop-color="#60BCB4"/>
</linearGradient>
<linearGradient id="paint7_linear_615_2681" x1="57.1019" y1="268.258" x2="57.1019" y2="297.201" gradientUnits="userSpaceOnUse">
<stop stop-color="#3A73B7"/>
<stop offset="1" stop-color="#60BCB4"/>
</linearGradient>
<linearGradient id="paint8_linear_615_2681" x1="191.855" y1="89.3047" x2="191.855" y2="97.1832" gradientUnits="userSpaceOnUse">
<stop stop-color="#3A73B7"/>
<stop offset="1" stop-color="#60BCB4"/>
</linearGradient>
<linearGradient id="paint9_linear_615_2681" x1="191.789" y1="76.3281" x2="191.789" y2="93.4505" gradientUnits="userSpaceOnUse">
<stop stop-color="#3A73B7"/>
<stop offset="1" stop-color="#60BCB4"/>
</linearGradient>
<linearGradient id="paint10_linear_615_2681" x1="192.333" y1="75.2578" x2="192.333" y2="91.3809" gradientUnits="userSpaceOnUse">
<stop stop-color="#3A73B7"/>
<stop offset="1" stop-color="#60BCB4"/>
</linearGradient>
<linearGradient id="paint11_linear_615_2681" x1="191.487" y1="86.6484" x2="191.487" y2="92.8447" gradientUnits="userSpaceOnUse">
<stop stop-color="#3A73B7"/>
<stop offset="1" stop-color="#60BCB4"/>
</linearGradient>
<linearGradient id="paint12_linear_615_2681" x1="255.168" y1="259.016" x2="255.168" y2="283.733" gradientUnits="userSpaceOnUse">
<stop stop-color="#3A73B7"/>
<stop offset="1" stop-color="#60BCB4"/>
</linearGradient>
<linearGradient id="paint13_linear_615_2681" x1="246.555" y1="259.016" x2="246.555" y2="283.733" gradientUnits="userSpaceOnUse">
<stop stop-color="#3A73B7"/>
<stop offset="1" stop-color="#60BCB4"/>
</linearGradient>
<linearGradient id="paint14_linear_615_2681" x1="184.495" y1="119.273" x2="184.495" y2="199.051" gradientUnits="userSpaceOnUse">
<stop stop-color="#3A73B7"/>
<stop offset="1" stop-color="#60BCB4"/>
</linearGradient>
<linearGradient id="paint15_linear_615_2681" x1="212.46" y1="126.156" x2="212.46" y2="154.576" gradientUnits="userSpaceOnUse">
<stop stop-color="#3A73B7"/>
<stop offset="1" stop-color="#60BCB4"/>
</linearGradient>
<linearGradient id="paint16_linear_615_2681" x1="177.008" y1="127.625" x2="177.008" y2="157.717" gradientUnits="userSpaceOnUse">
<stop stop-color="#3A73B7"/>
<stop offset="1" stop-color="#60BCB4"/>
</linearGradient>
<linearGradient id="paint17_linear_615_2681" x1="642.723" y1="322.484" x2="642.723" y2="345.694" gradientUnits="userSpaceOnUse">
<stop stop-color="#3A73B7"/>
<stop offset="1" stop-color="#60BCB4"/>
</linearGradient>
<linearGradient id="paint18_linear_615_2681" x1="649.875" y1="353.57" x2="649.875" y2="363.446" gradientUnits="userSpaceOnUse">
<stop stop-color="#3A73B7"/>
<stop offset="1" stop-color="#60BCB4"/>
</linearGradient>
<linearGradient id="paint19_linear_615_2681" x1="626.071" y1="329.828" x2="626.071" y2="348.678" gradientUnits="userSpaceOnUse">
<stop stop-color="#3A73B7"/>
<stop offset="1" stop-color="#60BCB4"/>
</linearGradient>
</defs>
</svg>
